<svg width="30" height="30" viewBox="0 0 30 30" fill="none" xmlns="http://www.w3.org/2000/svg">
<g clip-path="url(#clip0_2022_504)">
<path d="M3.02662 19.9749C3.18072 19.9749 3.33131 19.9123 3.4407 19.8033C3.55016 19.6932 3.61184 19.5445 3.61238 19.3892C3.61238 19.235 3.54963 19.084 3.4407 18.975C3.33178 18.866 3.18066 18.8033 3.02662 18.8033C2.87193 18.8033 2.72135 18.866 2.61189 18.975C2.50259 19.0852 2.44115 19.234 2.44092 19.3892C2.44119 19.5444 2.50263 19.6932 2.61189 19.8033C2.72227 19.9127 2.87121 19.9744 3.02662 19.975V19.9749ZM5.36973 19.9749C5.52371 19.9749 5.67436 19.9123 5.78375 19.8033C5.89321 19.6932 5.95489 19.5445 5.95543 19.3892C5.95543 19.235 5.89273 19.084 5.78375 18.975C5.6737 18.8655 5.52494 18.8039 5.36973 18.8033C5.21446 18.8037 5.06564 18.8654 4.95564 18.975C4.84588 19.0849 4.78415 19.2339 4.78397 19.3892C4.78417 19.5445 4.8459 19.6934 4.95564 19.8033C5.06571 19.9128 5.21449 19.9745 5.36973 19.975V19.9749ZM8.6498 19.9749H9.82145C10.1449 19.9749 10.4071 19.7127 10.4071 19.3892C10.4071 19.0656 10.1449 18.8033 9.82145 18.8033H8.6498C8.32637 18.8033 8.0641 19.0656 8.0641 19.3892C8.0641 19.7127 8.32637 19.9749 8.6498 19.9749ZM3.02662 26.3013C2.87193 26.3013 2.72135 26.364 2.61236 26.4729C2.50279 26.5829 2.44116 26.7317 2.44092 26.887C2.44092 27.0412 2.50297 27.1923 2.61236 27.3012C2.72135 27.4102 2.87258 27.4729 3.02662 27.4729C3.18066 27.4729 3.33131 27.4102 3.4407 27.3012C3.5502 27.1911 3.61188 27.0423 3.61238 26.887C3.61184 26.7317 3.55016 26.583 3.4407 26.4729C3.33063 26.3635 3.18186 26.3018 3.02662 26.3013ZM5.36973 26.3013C5.21498 26.3013 5.06463 26.364 4.95494 26.4729C4.84569 26.5831 4.78426 26.7318 4.78397 26.887C4.78397 27.0412 4.84602 27.1923 4.95494 27.3012C5.06536 27.4106 5.21431 27.4722 5.36973 27.4729C5.52371 27.4729 5.67436 27.4102 5.78375 27.3012C5.89325 27.1911 5.95493 27.0423 5.95543 26.887C5.95489 26.7317 5.89321 26.583 5.78375 26.4729C5.6737 26.3635 5.52494 26.3018 5.36973 26.3013ZM3.02662 12.477C3.18072 12.477 3.33172 12.4143 3.4407 12.3053C3.54969 12.1963 3.61238 12.0453 3.61238 11.8913C3.61238 11.7373 3.54963 11.586 3.4407 11.477C3.33178 11.3681 3.18066 11.3054 3.02662 11.3054C2.87258 11.3054 2.72135 11.3681 2.61236 11.477C2.50279 11.5871 2.44116 11.736 2.44092 11.8913C2.44092 12.0454 2.50297 12.1964 2.61236 12.3054C2.72251 12.4148 2.87134 12.4765 3.02662 12.4771V12.477ZM5.36973 12.477C5.52371 12.477 5.67436 12.4143 5.78375 12.3053C5.89321 12.1953 5.95489 12.0465 5.95543 11.8913C5.95543 11.7373 5.89273 11.586 5.78375 11.477C5.6737 11.3676 5.52494 11.3059 5.36973 11.3054C5.21562 11.3054 5.06463 11.3681 4.95494 11.477C4.84568 11.5873 4.78425 11.7361 4.78397 11.8913C4.78424 12.0464 4.84567 12.1952 4.95494 12.3054C5.06536 12.4148 5.21431 12.4764 5.36973 12.4771V12.477ZM8.6498 12.477H12.555C12.8786 12.477 13.1409 12.2147 13.1409 11.8913C13.1409 11.5677 12.8786 11.3054 12.555 11.3054H8.6498C8.32637 11.3054 8.0641 11.5677 8.0641 11.8913C8.0641 12.2147 8.32637 12.477 8.6498 12.477Z" fill="#FFBD00"/>
<path d="M25.9696 21.5094C25.5792 20.1077 24.7591 18.8432 23.6266 17.9098C22.3523 16.8596 20.7397 16.281 19.0856 16.281C17.8125 16.281 16.5921 16.6246 15.531 17.235C15.2653 16.6727 14.7098 16.2735 14.0586 16.2302V15.0501C14.9732 14.9897 15.6988 14.2266 15.6988 13.2971V10.4853C15.6988 9.51644 14.9105 8.72794 13.9414 8.72794H1.75734C0.788262 8.72794 0 9.51644 0 10.4853V13.2971C0 14.2266 0.725566 14.9894 1.64016 15.0501V16.2302C0.725508 16.2909 0 17.0538 0 17.9832V20.795C0 21.7246 0.725566 22.4874 1.64016 22.548V23.7281C0.725508 23.7889 0 24.5518 0 25.4812V28.293C0 29.2619 0.788262 30.0504 1.75734 30.0504H25.7238C28.0818 30.0504 30 28.1331 30 25.7765C30 23.5021 28.2136 21.6371 25.9696 21.5095V21.5094ZM2.8118 15.0545H12.887V16.2259H2.8118V15.0545ZM1.17164 13.2971V10.4853C1.17164 10.1624 1.43438 9.89964 1.75734 9.89964H13.9414C14.2644 9.89964 14.5271 10.1624 14.5271 10.4853V13.2971C14.5271 13.6201 14.2644 13.8829 13.9414 13.8829H1.75734C1.43438 13.8829 1.17164 13.6201 1.17164 13.2972V13.2971ZM1.17164 20.795V17.9832C1.17164 17.6603 1.43438 17.3975 1.75734 17.3975H13.9414C14.2474 17.3975 14.499 17.6335 14.5246 17.9331C13.6798 18.633 12.9913 19.5277 12.5377 20.5639C11.7572 20.59 11.0463 20.8946 10.5004 21.3807H1.75734C1.43438 21.3807 1.17164 21.118 1.17164 20.795ZM9.41777 23.7238H2.8118V22.5524H9.6634C9.51234 22.9145 9.42627 23.3098 9.41777 23.7238ZM1.17164 28.293V25.4812C1.17164 25.1583 1.43438 24.8955 1.75734 24.8955H8.46504C8.06057 25.4393 7.82988 26.109 7.82988 26.8215C7.82988 27.6027 8.10891 28.3198 8.57238 28.8787H1.75734C1.43438 28.8787 1.17164 28.616 1.17164 28.293V28.293ZM25.7238 28.8787H11.0603C9.92502 28.8787 9.00146 27.9558 9.00146 26.8215C9.00146 25.9799 9.50613 25.2317 10.2871 24.9149C10.4157 24.8628 10.5216 24.7667 10.586 24.6438C10.6503 24.5208 10.6689 24.379 10.6385 24.2436C10.605 24.095 10.588 23.9432 10.5878 23.7909C10.5878 22.6565 11.5114 21.7336 12.6466 21.7336C12.7167 21.7336 12.7904 21.7378 12.8661 21.7458C12.9959 21.7597 13.1266 21.7298 13.2374 21.6609C13.3482 21.592 13.4328 21.488 13.4777 21.3654C14.3376 19.0251 16.5914 17.4527 19.0857 17.4527C21.9067 17.4527 24.367 19.4547 24.9353 22.2132C24.9636 22.351 25.0405 22.474 25.152 22.5597C25.2635 22.6454 25.4021 22.688 25.5425 22.6799C25.6029 22.6761 25.6634 22.6741 25.7238 22.674C27.4358 22.674 28.8286 24.0658 28.8286 25.7764C28.8284 27.4868 27.4356 28.8787 25.7238 28.8787ZM27.4143 14.433C27.0907 14.433 26.8284 14.6954 26.8284 15.0187V17.1936C26.8284 17.5172 27.0907 17.7796 27.4143 17.7796C27.7378 17.7796 28 17.5172 28 17.1936V15.0187C28 14.6953 27.7378 14.433 27.4143 14.433ZM26.8284 7.23427V12.0932C26.8284 12.4167 27.0907 12.6789 27.4143 12.6789C27.7378 12.6789 28 12.4166 28 12.0932V7.23427C28.8133 6.98343 29.4058 6.22487 29.4058 5.33067C29.4058 4.23222 28.5125 3.3389 27.4143 3.3389C26.3162 3.3389 25.4226 4.23222 25.4226 5.33067C25.4226 6.22487 26.0154 6.98343 26.8284 7.23427ZM27.4143 4.51054C27.8666 4.51054 28.2344 4.87839 28.2344 5.33067C28.2344 5.78267 27.8666 6.15075 27.4143 6.15075C26.962 6.15075 26.5942 5.78267 26.5942 5.33067C26.5942 4.87833 26.962 4.51054 27.4143 4.51054Z" fill="#FFBD00"/>
<path d="M18.9146 11.6213C18.7594 11.6218 18.6106 11.6835 18.5005 11.7929C18.3913 11.9031 18.3298 12.0518 18.3295 12.207C18.3295 12.361 18.3916 12.5123 18.5005 12.6212C18.6107 12.7305 18.7594 12.7921 18.9146 12.7927C19.0693 12.7927 19.2199 12.7302 19.3293 12.6212C19.4388 12.5111 19.5005 12.3622 19.501 12.207C19.501 12.0529 19.4383 11.9019 19.3293 11.7929C19.2203 11.684 19.0693 11.6213 18.9146 11.6213ZM17.0405 4.51055H18.3291V9.57187C18.3291 9.89549 18.5914 10.1578 18.915 10.1578C19.2384 10.1578 19.5008 9.89549 19.5008 9.57187V4.51055H20.7894C21.113 4.51055 21.3753 4.24828 21.3753 3.92461V0.644297C21.3753 0.320859 21.113 0.0585938 20.7894 0.0585938H17.0405C16.7169 0.0585938 16.4546 0.320918 16.4546 0.644297V3.92461C16.4546 4.24828 16.7169 4.51055 17.0405 4.51055H17.0405ZM17.6262 1.23023H20.2037V3.33891H17.6262V1.23023ZM22.4938 25.7156H15.8745C15.5509 25.7156 15.2886 25.9778 15.2886 26.3013C15.2886 26.6247 15.5509 26.887 15.8745 26.887H22.4938C22.8173 26.887 23.0796 26.6247 23.0796 26.3013C23.0796 25.9778 22.8172 25.7156 22.4938 25.7156ZM22.4938 22.9037C22.3386 22.9043 22.1897 22.9659 22.0796 23.0754C21.97 23.1855 21.9083 23.3343 21.9079 23.4896C21.9079 23.6438 21.9706 23.7948 22.0796 23.9037C22.1886 24.0127 22.3397 24.0754 22.4938 24.0754C22.6491 24.0749 22.7978 24.0132 22.9079 23.9037C23.0169 23.7947 23.0796 23.6437 23.0796 23.4897C23.0796 23.3357 23.0169 23.1844 22.9079 23.0755C22.7978 22.966 22.6491 22.9043 22.4938 22.9037ZM15.8746 24.0754H19.8578C20.1812 24.0754 20.4435 23.8131 20.4435 23.4897C20.4435 23.166 20.1812 22.9038 19.8578 22.9038H15.8746C15.5509 22.9038 15.2886 23.166 15.2886 23.4897C15.2886 23.8131 15.5509 24.0754 15.8746 24.0754Z" fill="#FFBD00"/>
</g>
<defs>
<clipPath id="clip0_2022_504">
<rect width="30" height="30" fill="white"/>
</clipPath>
</defs>
</svg>
