<svg width="30" height="30" viewBox="0 0 30 30" fill="none" xmlns="http://www.w3.org/2000/svg">
<g clip-path="url(#clip0_2018_483)">
<path d="M8.4375 16.875H6.5625C6.43818 16.875 6.31895 16.8256 6.23104 16.7377C6.14314 16.6498 6.09375 16.5306 6.09375 16.4062V15.7191C5.832 15.6366 5.57804 15.5312 5.33484 15.4041L4.84828 15.8906C4.76038 15.9785 4.64117 16.0279 4.51687 16.0279C4.39258 16.0279 4.27337 15.9785 4.18547 15.8906L2.85937 14.5645C2.7715 14.4766 2.72213 14.3574 2.72213 14.2331C2.72213 14.1088 2.7715 13.9896 2.85937 13.9017L3.34547 13.4152C3.21849 13.1719 3.11323 12.918 3.03094 12.6562H2.34375C2.21943 12.6562 2.1002 12.6069 2.01229 12.519C1.92439 12.431 1.875 12.3118 1.875 12.1875V10.3125C1.875 10.1882 1.92439 10.069 2.01229 9.98104C2.1002 9.89314 2.21943 9.84375 2.34375 9.84375H3.03094C3.11339 9.582 3.2188 9.32804 3.34594 9.08484L2.85937 8.59828C2.7715 8.51038 2.72213 8.39117 2.72213 8.26687C2.72213 8.14258 2.7715 8.02337 2.85937 7.93547L4.18547 6.60938C4.27337 6.5215 4.39258 6.47213 4.51687 6.47213C4.64117 6.47213 4.76038 6.5215 4.84828 6.60938L5.33484 7.09547C5.57806 6.96849 5.83201 6.86323 6.09375 6.78094V6.09375C6.09375 5.96943 6.14314 5.8502 6.23104 5.76229C6.31895 5.67439 6.43818 5.625 6.5625 5.625H8.4375C8.56182 5.625 8.68105 5.67439 8.76896 5.76229C8.85686 5.8502 8.90625 5.96943 8.90625 6.09375V6.78094C9.168 6.86339 9.42196 6.9688 9.66516 7.09594L10.1517 6.60938C10.2396 6.5215 10.3588 6.47213 10.4831 6.47213C10.6074 6.47213 10.7266 6.5215 10.8145 6.60938L12.1406 7.93547C12.2285 8.02337 12.2779 8.14258 12.2779 8.26687C12.2779 8.39117 12.2285 8.51038 12.1406 8.59828L11.6545 9.08484C11.7815 9.32806 11.8868 9.58201 11.9691 9.84375H12.6562C12.7806 9.84375 12.8998 9.89314 12.9877 9.98104C13.0756 10.069 13.125 10.1882 13.125 10.3125V12.1875C13.125 12.3118 13.0756 12.431 12.9877 12.519C12.8998 12.6069 12.7806 12.6562 12.6562 12.6562H11.9691C11.8866 12.918 11.7812 13.172 11.6541 13.4152L12.1406 13.9017C12.2285 13.9896 12.2779 14.1088 12.2779 14.2331C12.2779 14.3574 12.2285 14.4766 12.1406 14.5645L10.8145 15.8906C10.7266 15.9785 10.6074 16.0279 10.4831 16.0279C10.3588 16.0279 10.2396 15.9785 10.1517 15.8906L9.66516 15.4045C9.42194 15.5315 9.16798 15.6368 8.90625 15.7191V16.4062C8.90625 16.5306 8.85686 16.6498 8.76896 16.7377C8.68105 16.8256 8.56182 16.875 8.4375 16.875ZM7.03125 15.9375H7.96875V15.3609C7.96865 15.2546 8.00469 15.1514 8.07096 15.0683C8.13722 14.9852 8.22978 14.927 8.33344 14.9034C8.74438 14.81 9.13639 14.6472 9.49266 14.422C9.58262 14.3653 9.68922 14.3408 9.79494 14.3526C9.90065 14.3645 9.99919 14.4119 10.0744 14.4872L10.4831 14.8959L11.1459 14.2331L10.7372 13.8244C10.6619 13.7492 10.6145 13.6507 10.6026 13.5449C10.5908 13.4392 10.6153 13.3326 10.672 13.2427C10.8972 12.8864 11.06 12.4944 11.1534 12.0834C11.177 11.9798 11.2352 11.8872 11.3183 11.821C11.4014 11.7547 11.5046 11.7186 11.6109 11.7188H12.1875V10.7812H11.6109C11.5046 10.7814 11.4014 10.7453 11.3183 10.679C11.2352 10.6128 11.177 10.5202 11.1534 10.4166C11.06 10.0056 10.8972 9.61361 10.672 9.25734C10.6153 9.16738 10.5908 9.06078 10.6026 8.95506C10.6145 8.84935 10.6619 8.75081 10.7372 8.67562L11.1459 8.26687L10.4831 7.60406L10.0744 8.01281C9.99919 8.08807 9.90065 8.13551 9.79494 8.14735C9.68922 8.15919 9.58262 8.13473 9.49266 8.07797C9.13639 7.85284 8.74438 7.69005 8.33344 7.59656C8.22978 7.57296 8.13722 7.51482 8.07096 7.43169C8.00469 7.34856 7.96865 7.24537 7.96875 7.13906V6.5625H7.03125V7.13906C7.03135 7.24537 6.99531 7.34856 6.92904 7.43169C6.86278 7.51482 6.77022 7.57296 6.66656 7.59656C6.25562 7.69005 5.86361 7.85284 5.50734 8.07797C5.41738 8.13473 5.31078 8.15919 5.20506 8.14735C5.09935 8.13551 5.00081 8.08807 4.92563 8.01281L4.51687 7.60406L3.85406 8.26687L4.26281 8.67562C4.33807 8.75081 4.38551 8.84935 4.39735 8.95506C4.40919 9.06078 4.38473 9.16738 4.32797 9.25734C4.10284 9.61361 3.94005 10.0056 3.84656 10.4166C3.82296 10.5202 3.76482 10.6128 3.68169 10.679C3.59856 10.7453 3.49537 10.7814 3.38906 10.7812H2.8125V11.7188H3.38906C3.49537 11.7186 3.59856 11.7547 3.68169 11.821C3.76482 11.8872 3.82296 11.9798 3.84656 12.0834C3.94005 12.4944 4.10284 12.8864 4.32797 13.2427C4.38473 13.3326 4.40919 13.4392 4.39735 13.5449C4.38551 13.6507 4.33807 13.7492 4.26281 13.8244L3.85406 14.2331L4.51687 14.8959L4.92563 14.4872C5.00081 14.4119 5.09935 14.3645 5.20506 14.3526C5.31078 14.3408 5.41738 14.3653 5.50734 14.422C5.86361 14.6472 6.25562 14.81 6.66656 14.9034C6.77022 14.927 6.86278 14.9852 6.92904 15.0683C6.99531 15.1514 7.03135 15.2546 7.03125 15.3609V15.9375Z" fill="#FFBD00"/>
<path d="M7.5 13.5938C7.03645 13.5938 6.58331 13.4563 6.19788 13.1988C5.81246 12.9412 5.51205 12.5752 5.33466 12.1469C5.15727 11.7187 5.11085 11.2474 5.20129 10.7928C5.29172 10.3381 5.51494 9.9205 5.84272 9.59272C6.1705 9.26494 6.58812 9.04172 7.04276 8.95129C7.4974 8.86085 7.96865 8.90727 8.39692 9.08466C8.82518 9.26205 9.19122 9.56246 9.44876 9.94788C9.70629 10.3333 9.84375 10.7865 9.84375 11.25C9.84301 11.8714 9.59584 12.4671 9.15646 12.9065C8.71708 13.3458 8.12137 13.593 7.5 13.5938ZM7.5 9.84375C7.22187 9.84375 6.94999 9.92623 6.71873 10.0807C6.48747 10.2353 6.30723 10.4549 6.2008 10.7119C6.09436 10.9688 6.06651 11.2516 6.12077 11.5243C6.17503 11.7971 6.30896 12.0477 6.50563 12.2444C6.7023 12.441 6.95287 12.575 7.22566 12.6292C7.49844 12.6835 7.78119 12.6556 8.03815 12.5492C8.29511 12.4428 8.51473 12.2625 8.66926 12.0313C8.82378 11.8 8.90625 11.5281 8.90625 11.25C8.90625 10.877 8.75809 10.5194 8.49437 10.2556C8.23065 9.99191 7.87296 9.84375 7.5 9.84375ZM23.4375 28.125H21.5625C21.4382 28.125 21.319 28.0756 21.231 27.9877C21.1431 27.8998 21.0938 27.7806 21.0938 27.6563V26.9691C20.8319 26.8867 20.5779 26.7811 20.3348 26.6536L19.8483 27.1406C19.7604 27.2285 19.6412 27.2779 19.5169 27.2779C19.3926 27.2779 19.2734 27.2285 19.1855 27.1406L17.8594 25.8145C17.7715 25.7266 17.7221 25.6074 17.7221 25.4831C17.7221 25.3588 17.7715 25.2396 17.8594 25.1517L18.3455 24.6652C18.2184 24.422 18.1131 24.168 18.0309 23.9063H17.3438C17.2194 23.9063 17.1002 23.8569 17.0123 23.769C16.9244 23.6811 16.875 23.5618 16.875 23.4375V21.5625C16.875 21.4382 16.9244 21.319 17.0123 21.231C17.1002 21.1431 17.2194 21.0938 17.3438 21.0938H18.0309C18.1133 20.832 18.2187 20.578 18.3459 20.3348L17.8594 19.8483C17.7715 19.7604 17.7221 19.6412 17.7221 19.5169C17.7221 19.3926 17.7715 19.2734 17.8594 19.1855L19.1855 17.8594C19.2734 17.7715 19.3926 17.7221 19.5169 17.7221C19.6412 17.7221 19.7604 17.7715 19.8483 17.8594L20.3348 18.3459C20.578 18.2186 20.8319 18.1132 21.0938 18.0309V17.3438C21.0938 17.2194 21.1431 17.1002 21.231 17.0123C21.319 16.9244 21.4382 16.875 21.5625 16.875H23.4375C23.5618 16.875 23.6811 16.9244 23.769 17.0123C23.8569 17.1002 23.9063 17.2194 23.9063 17.3438V18.0309C24.1681 18.1133 24.4221 18.2189 24.6652 18.3464L25.1517 17.8594C25.2396 17.7715 25.3588 17.7221 25.4831 17.7221C25.6074 17.7221 25.7266 17.7715 25.8145 17.8594L27.1406 19.1855C27.2285 19.2734 27.2779 19.3926 27.2779 19.5169C27.2779 19.6412 27.2285 19.7604 27.1406 19.8483L26.6545 20.3348C26.7816 20.578 26.8869 20.832 26.9691 21.0938H27.6563C27.7806 21.0938 27.8998 21.1431 27.9877 21.231C28.0756 21.319 28.125 21.4382 28.125 21.5625V23.4375C28.125 23.5618 28.0756 23.6811 27.9877 23.769C27.8998 23.8569 27.7806 23.9063 27.6563 23.9063H26.9691C26.8867 24.168 26.7813 24.422 26.6541 24.6652L27.1406 25.1517C27.2285 25.2396 27.2779 25.3588 27.2779 25.4831C27.2779 25.6074 27.2285 25.7266 27.1406 25.8145L25.8145 27.1406C25.7266 27.2285 25.6074 27.2779 25.4831 27.2779C25.3588 27.2779 25.2396 27.2285 25.1517 27.1406L24.6652 26.6541C24.422 26.7814 24.1681 26.8868 23.9063 26.9691V27.6563C23.9063 27.7806 23.8569 27.8998 23.769 27.9877C23.6811 28.0756 23.5618 28.125 23.4375 28.125ZM22.0313 27.1875H22.9688V26.6109C22.9688 26.5047 23.0048 26.4016 23.0711 26.3186C23.1374 26.2356 23.2299 26.1775 23.3334 26.1539C23.7443 26.0601 24.1362 25.8973 24.4927 25.6725C24.5826 25.6157 24.6891 25.5911 24.7949 25.6029C24.9006 25.6147 24.9991 25.662 25.0744 25.7372L25.4831 26.1459L26.1459 25.4831L25.7372 25.0744C25.662 24.9992 25.6147 24.9008 25.6028 24.7952C25.591 24.6895 25.6154 24.583 25.672 24.4931C25.8972 24.1367 26.06 23.7445 26.1534 23.3334C26.177 23.2298 26.2352 23.1372 26.3183 23.071C26.4014 23.0047 26.5046 22.9686 26.6109 22.9688H27.1875V22.0313H26.6109C26.5046 22.0314 26.4014 21.9953 26.3183 21.929C26.2352 21.8628 26.177 21.7702 26.1534 21.6666C26.06 21.2555 25.8972 20.8633 25.672 20.5069C25.6154 20.417 25.591 20.3105 25.6028 20.2048C25.6147 20.0992 25.662 20.0008 25.7372 19.9256L26.1459 19.5169L25.4831 18.8541L25.0744 19.2628C24.9991 19.338 24.9006 19.3854 24.7949 19.3971C24.6891 19.4089 24.5826 19.3843 24.4927 19.3275C24.1362 19.1027 23.7443 18.9399 23.3334 18.8461C23.2299 18.8225 23.1374 18.7644 23.0711 18.6814C23.0048 18.5984 22.9688 18.4953 22.9688 18.3891V17.8125H22.0313V18.3891C22.0312 18.4953 21.9952 18.5984 21.9289 18.6814C21.8626 18.7644 21.7701 18.8225 21.6666 18.8461C21.2557 18.9399 20.8638 19.1027 20.5073 19.3275C20.4174 19.3843 20.3109 19.4089 20.2051 19.3971C20.0994 19.3854 20.0009 19.338 19.9256 19.2628L19.5169 18.8541L18.8541 19.5169L19.2628 19.9256C19.338 20.0008 19.3853 20.0992 19.3972 20.2048C19.409 20.3105 19.3846 20.417 19.328 20.5069C19.1028 20.8633 18.94 21.2555 18.8466 21.6666C18.823 21.7702 18.7648 21.8628 18.6817 21.929C18.5986 21.9953 18.4954 22.0314 18.3891 22.0313H17.8125V22.9688H18.3891C18.4954 22.9686 18.5986 23.0047 18.6817 23.071C18.7648 23.1372 18.823 23.2298 18.8466 23.3334C18.94 23.7445 19.1028 24.1367 19.328 24.4931C19.3846 24.583 19.409 24.6895 19.3972 24.7952C19.3853 24.9008 19.338 24.9992 19.2628 25.0744L18.8541 25.4831L19.5169 26.1459L19.9256 25.7372C20.0009 25.662 20.0994 25.6147 20.2051 25.6029C20.3109 25.5911 20.4174 25.6157 20.5073 25.6725C20.8636 25.8981 21.2556 26.0617 21.6666 26.1563C21.7698 26.1797 21.862 26.2375 21.9282 26.32C21.9944 26.4026 22.0307 26.5051 22.0313 26.6109V27.1875Z" fill="#FFBD00"/>
<path d="M22.5 24.8438C22.0364 24.8438 21.5833 24.7063 21.1979 24.4488C20.8125 24.1912 20.5121 23.8252 20.3347 23.3969C20.1573 22.9687 20.1108 22.4974 20.2013 22.0428C20.2917 21.5881 20.5149 21.1705 20.8427 20.8427C21.1705 20.5149 21.5881 20.2917 22.0428 20.2013C22.4974 20.1109 22.9687 20.1573 23.3969 20.3347C23.8252 20.5121 24.1912 20.8125 24.4488 21.1979C24.7063 21.5833 24.8438 22.0365 24.8438 22.5C24.843 23.1214 24.5958 23.7171 24.1565 24.1565C23.7171 24.5958 23.1214 24.843 22.5 24.8438ZM22.5 21.0938C22.2219 21.0938 21.95 21.1762 21.7187 21.3307C21.4875 21.4853 21.3072 21.7049 21.2008 21.9619C21.0944 22.2188 21.0665 22.5016 21.1208 22.7743C21.175 23.0471 21.309 23.2977 21.5056 23.4944C21.7023 23.691 21.9529 23.825 22.2257 23.8792C22.4984 23.9335 22.7812 23.9056 23.0381 23.7992C23.2951 23.6928 23.5147 23.5125 23.6693 23.2813C23.8238 23.05 23.9062 22.7781 23.9062 22.5C23.9062 22.127 23.7581 21.7694 23.4944 21.5056C23.2306 21.2419 22.873 21.0938 22.5 21.0938ZM26.7188 16.4062H15.4688C15.0958 16.4062 14.7381 16.2581 14.4744 15.9944C14.2107 15.7306 14.0625 15.373 14.0625 15V7.5C14.0625 7.12704 14.2107 6.76935 14.4744 6.50563C14.7381 6.24191 15.0958 6.09375 15.4688 6.09375H26.7188C27.0917 6.09375 27.4494 6.24191 27.7131 6.50563C27.9768 6.76935 28.125 7.12704 28.125 7.5V15C28.125 15.373 27.9768 15.7306 27.7131 15.9944C27.4494 16.2581 27.0917 16.4062 26.7188 16.4062ZM15.4688 7.03125C15.3444 7.03125 15.2252 7.08064 15.1373 7.16854C15.0494 7.25645 15 7.37568 15 7.5V15C15 15.1243 15.0494 15.2435 15.1373 15.3315C15.2252 15.4194 15.3444 15.4688 15.4688 15.4688H26.7188C26.8431 15.4688 26.9623 15.4194 27.0502 15.3315C27.1381 15.2435 27.1875 15.1243 27.1875 15V7.5C27.1875 7.37568 27.1381 7.25645 27.0502 7.16854C26.9623 7.08064 26.8431 7.03125 26.7188 7.03125H15.4688ZM14.5312 27.6562H3.28125C2.90829 27.6562 2.5506 27.5081 2.28688 27.2444C2.02316 26.9806 1.875 26.623 1.875 26.25V18.75C1.875 18.377 2.02316 18.0194 2.28688 17.7556C2.5506 17.4919 2.90829 17.3438 3.28125 17.3438H14.5312C14.9042 17.3438 15.2619 17.4919 15.5256 17.7556C15.7893 18.0194 15.9375 18.377 15.9375 18.75V26.25C15.9375 26.623 15.7893 26.9806 15.5256 27.2444C15.2619 27.5081 14.9042 27.6562 14.5312 27.6562ZM3.28125 18.2812C3.15693 18.2812 3.0377 18.3306 2.94979 18.4185C2.86189 18.5065 2.8125 18.6257 2.8125 18.75V26.25C2.8125 26.3743 2.86189 26.4935 2.94979 26.5815C3.0377 26.6694 3.15693 26.7188 3.28125 26.7188H14.5312C14.6556 26.7188 14.7748 26.6694 14.8627 26.5815C14.9506 26.4935 15 26.3743 15 26.25V18.75C15 18.6257 14.9506 18.5065 14.8627 18.4185C14.7748 18.3306 14.6556 18.2812 14.5312 18.2812H3.28125Z" fill="#FFBD00"/>
<path d="M18.4186 13.9252L16.0748 11.5814C15.987 11.4935 15.9376 11.3743 15.9376 11.25C15.9376 11.1257 15.987 11.0065 16.0748 10.9186L18.4186 8.57484L19.0814 9.23766L17.0691 11.25L19.0814 13.2623L18.4186 13.9252ZM23.7689 13.9252L23.1061 13.2623L25.1184 11.25L23.1061 9.23766L23.7689 8.57484L26.1127 10.9186C26.2005 11.0065 26.2499 11.1257 26.2499 11.25C26.2499 11.3743 26.2005 11.4935 26.1127 11.5814L23.7689 13.9252ZM19.2783 13.3664L22.0917 8.20969L22.9148 8.65875L20.1014 13.8155L19.2783 13.3664ZM3.75 19.2188H4.6875V20.1562H3.75V19.2188ZM5.625 19.2188H14.0625V20.1562H5.625V19.2188ZM3.75 21.0938H14.0625V22.0312H3.75V21.0938ZM3.75 22.9688H14.0625V23.9062H3.75V22.9688ZM3.75 24.8438H14.0625V25.7812H3.75V24.8438ZM0.9375 5.625H0V2.34375C0.000744308 1.72238 0.247913 1.12667 0.687291 0.687291C1.12667 0.247913 1.72238 0.000744308 2.34375 0L11.25 0V0.9375H2.34375C1.97079 0.9375 1.6131 1.08566 1.34938 1.34938C1.08566 1.6131 0.9375 1.97079 0.9375 2.34375V5.625Z" fill="#FFBD00"/>
<path d="M27.6562 30H2.34375C1.72238 29.9993 1.12667 29.7521 0.687291 29.3127C0.247913 28.8733 0.000744308 28.2776 0 27.6562L0 6.5625H0.9375V27.6562C0.9375 28.0292 1.08566 28.3869 1.34938 28.6506C1.6131 28.9143 1.97079 29.0625 2.34375 29.0625H27.6562C28.0292 29.0625 28.3869 28.9143 28.6506 28.6506C28.9143 28.3869 29.0625 28.0292 29.0625 27.6562V2.34375C29.0625 1.97079 28.9143 1.6131 28.6506 1.34938C28.3869 1.08566 28.0292 0.9375 27.6562 0.9375H16.4062V0H27.6562C28.2776 0.000744308 28.8733 0.247913 29.3127 0.687291C29.7521 1.12667 29.9993 1.72238 30 2.34375V27.6562C29.9993 28.2776 29.7521 28.8733 29.3127 29.3127C28.8733 29.7521 28.2776 29.9993 27.6562 30Z" fill="#FFBD00"/>
<path d="M14.5312 1.62504e-06H15.4688V0.937502H14.5312V1.62504e-06ZM14.5312 4.6875H13.125C13.0007 4.6875 12.8815 4.63812 12.7935 4.55021C12.7056 4.4623 12.6562 4.34307 12.6562 4.21875V2.34375C12.6663 2.15645 12.6367 1.96914 12.5696 1.79399C12.5025 1.61885 12.3992 1.45979 12.2666 1.32716C12.134 1.19453 11.9749 1.09129 11.7998 1.02416C11.6246 0.957027 11.4373 0.927501 11.25 0.937502V1.62504e-06C11.5609 -0.0117748 11.871 0.0407924 12.1607 0.15441C12.4503 0.268027 12.7134 0.440245 12.9335 0.660276C13.1535 0.880306 13.3257 1.14341 13.4393 1.43309C13.553 1.72278 13.6055 2.0328 13.5938 2.34375V3.75H14.5312V4.6875ZM15.4688 3.75H29.5312V4.6875H15.4688V3.75ZM1.875 1.875H9.84375V2.8125H1.875V1.875Z" fill="#FFBD00"/>
<path d="M10.7812 1.875H11.7188V2.8125H10.7812V1.875ZM27.1875 1.875H28.125V2.8125H27.1875V1.875ZM25.3125 1.875H26.25V2.8125H25.3125V1.875ZM23.4375 1.875H24.375V2.8125H23.4375V1.875ZM0.46875 3.75H13.125V4.6875H0.46875V3.75Z" fill="#FFBD00"/>
</g>
<defs>
<clipPath id="clip0_2018_483">
<rect width="30" height="30" fill="white"/>
</clipPath>
</defs>
</svg>
