<svg width="30" height="30" viewBox="0 0 30 30" fill="none" xmlns="http://www.w3.org/2000/svg">
<g clip-path="url(#clip0_2020_494)">
<path d="M19.7814 25.0974C20.6471 25.4302 21.2615 26.2696 21.2615 27.2525C21.2615 28.5272 20.2281 29.5605 18.9534 29.5605C18.041 29.5605 17.2522 29.0311 16.8776 28.2627M10.0079 19.8976C9.5866 19.4794 9.32568 18.8998 9.32568 18.2593C9.32568 16.9846 10.359 15.9513 11.6338 15.9513C12.6404 15.9513 13.4966 16.5957 13.8121 17.4946" stroke="#FFBD00" stroke-miterlimit="10" stroke-linecap="round" stroke-linejoin="round"/>
<path d="M9.93408 26.1211C10.9155 27.6311 12.6142 28.6289 14.5448 28.6289C17.5835 28.6289 20.0468 26.158 20.0468 23.1105C20.0468 20.0631 17.5835 17.5928 14.5448 17.5928C11.5067 17.5928 9.04346 20.0631 9.04346 23.1105C9.04346 23.4896 9.08154 23.86 9.1542 24.2174" stroke="#FFBD00" stroke-miterlimit="10" stroke-linecap="round" stroke-linejoin="round"/>
<path d="M14.545 26.8398C16.5983 26.8398 18.2628 25.1702 18.2628 23.1107C18.2628 21.0511 16.5983 19.3815 14.545 19.3815C12.4917 19.3815 10.8271 21.0511 10.8271 23.1107C10.8271 25.1702 12.4917 26.8398 14.545 26.8398Z" stroke="#FFBD00" stroke-miterlimit="10" stroke-linecap="round" stroke-linejoin="round"/>
<path d="M15.0895 21.7214C14.9654 21.6209 14.6826 21.4509 14.289 21.5698C13.794 21.7194 13.6409 22.3166 13.9891 22.7191C14.1697 22.9277 14.473 22.996 14.8646 23.1349C15.7413 23.4457 15.4172 24.6858 14.5254 24.6917C14.1775 24.6941 14.0147 24.6718 13.7091 24.4713M14.545 24.745V25.2586M14.545 20.9628V21.4764M14.545 17.6806V19.2087M18.4352 23.1107H19.8574M17.2961 20.3513L18.3118 19.3321M18.3231 26.9006L17.254 25.8279M14.545 26.9005V28.5112M9.20654 23.1107H10.6549M10.7465 26.9211L11.8361 25.8279M11.8843 20.4418L10.7463 19.3001M17.7383 14.1043C17.4919 15.114 16.5814 15.8634 15.4959 15.8634C14.2212 15.8634 13.1878 14.83 13.1878 13.5553C13.1878 12.7376 13.6131 12.0192 14.2545 11.6092" stroke="#FFBD00" stroke-miterlimit="10" stroke-linecap="round" stroke-linejoin="round"/>
<path d="M26.46 12.6516V17.8658C26.46 18.7055 25.7797 19.3863 24.94 19.3863H21.9418L20.7172 15.4945H18.459L17.2596 12.8209H15.0588L13.0555 9.30703L11.1969 13.5334H9.15137L7.20078 19.3863H3.88965C3.05 19.3863 2.36914 18.7055 2.36914 17.8658V6.91641M20.4271 0.439453H24.94C25.7797 0.439453 26.46 1.12031 26.46 1.95996V6.95098M2.36914 4.86563V1.95996C2.36914 1.12031 3.05 0.439453 3.88965 0.439453H18.3764" stroke="#FFBD00" stroke-miterlimit="10" stroke-linecap="round" stroke-linejoin="round"/>
<path d="M27.6312 9.38145V7.56329C27.631 7.46015 27.59 7.36128 27.517 7.28835C27.4441 7.21542 27.3452 7.17438 27.2421 7.17422H22.162C21.4056 7.17422 20.7212 7.48067 20.2255 7.97637C19.7298 8.47208 19.4233 9.15704 19.4233 9.9129C19.4233 11.4252 20.6491 12.6516 22.162 12.6516H27.2421C27.4565 12.6516 27.6312 12.477 27.6312 12.2619V11.4322" stroke="#FFBD00" stroke-miterlimit="10" stroke-linecap="round" stroke-linejoin="round"/>
<path d="M22.1495 11.12C22.8161 11.12 23.3566 10.5796 23.3566 9.9129C23.3566 9.24624 22.8161 8.70581 22.1495 8.70581C21.4828 8.70581 20.9424 9.24624 20.9424 9.9129C20.9424 10.5796 21.4828 11.12 22.1495 11.12Z" stroke="#FFBD00" stroke-miterlimit="10" stroke-linecap="round" stroke-linejoin="round"/>
<path d="M24.7195 2.69794H26.3297M21.0163 2.69794H22.6265M17.313 2.69794H18.9232M13.6097 2.69794H15.22M6.20324 2.69794H7.81352M9.90648 2.69794H11.5168M2.5 2.69794H4.11027M24.7195 17.1278H26.3297M21.2846 17.1278H22.6265M6.20324 17.1278H7.81352M2.5 17.1278H4.11027" stroke="#FFBD00" stroke-miterlimit="10" stroke-linecap="round" stroke-linejoin="round"/>
</g>
<defs>
<clipPath id="clip0_2020_494">
<rect width="30" height="30" fill="white"/>
</clipPath>
</defs>
</svg>
