<svg width="532" height="284" viewBox="0 0 532 284" fill="none" xmlns="http://www.w3.org/2000/svg">
<rect width="532" height="284" rx="10" fill="#FFE8A6"/>
<path d="M393.82 34H110.835C108.492 34 106.245 34.9308 104.588 36.5877C102.931 38.2447 102 40.4919 102 42.8351V242.742C102.002 245.085 102.934 247.331 104.59 248.987C106.247 250.644 108.493 251.575 110.835 251.577H219.424C219.424 251.577 226.328 272.94 204.908 284H306.447C306.447 284 282.264 275.703 288.516 251.577H393.82C396.158 251.569 398.397 250.634 400.046 248.978C401.696 247.322 402.623 245.08 402.623 242.742V42.8351C402.623 40.4975 401.696 38.2552 400.046 36.5993C398.397 34.9433 396.158 34.0086 393.82 34Z" fill="#455A64"/>
<path d="M256.085 230.516C259.941 236.018 253.909 242.041 248.408 238.194C248.225 238.064 248.065 237.904 247.935 237.721C244.096 232.22 250.111 226.205 255.613 230.044C255.798 230.171 255.958 230.332 256.085 230.516Z" fill="#263238"/>
<path d="M114.739 37.6596H389.875C390.913 37.6596 391.941 37.8641 392.901 38.2614C393.86 38.6587 394.731 39.2411 395.466 39.9752C396.2 40.7093 396.782 41.5809 397.179 42.5401C397.577 43.4993 397.781 44.5273 397.781 45.5656V215.031H106.809V45.5656C106.809 44.5253 107.014 43.4952 107.413 42.5344C107.812 41.5736 108.396 40.701 109.133 39.9665C109.87 39.2321 110.744 38.6502 111.706 38.2544C112.668 37.8585 113.699 37.6564 114.739 37.6596Z" fill="white"/>
<path d="M114.299 37.6596H391.66C393.285 37.6596 394.844 38.3053 395.994 39.4548C397.143 40.6042 397.789 42.1632 397.789 43.7887V52.3957H106.816V45.1173C106.816 44.1359 107.01 43.1641 107.386 42.2577C107.763 41.3513 108.314 40.5281 109.009 39.8352C109.704 39.1424 110.529 38.5936 111.437 38.2202C112.345 37.8469 113.317 37.6564 114.299 37.6596Z" fill="#EBEBEB" fill-opacity="0.5"/>
<path d="M118.171 45.3373C118.171 45.7419 118.051 46.1374 117.826 46.4739C117.601 46.8103 117.282 47.0725 116.908 47.2273C116.534 47.3822 116.123 47.4227 115.726 47.3437C115.329 47.2648 114.964 47.07 114.678 46.7839C114.392 46.4978 114.197 46.1332 114.118 45.7364C114.039 45.3395 114.08 44.9282 114.235 44.5544C114.39 44.1806 114.652 43.8611 114.988 43.6363C115.325 43.4115 115.72 43.2915 116.125 43.2915C116.667 43.2915 117.188 43.507 117.571 43.8907C117.955 44.2744 118.171 44.7947 118.171 45.3373Z" fill="#E0E0E0" fill-opacity="0.5"/>
<path d="M124.235 45.3373C124.235 45.7423 124.115 46.1381 123.89 46.4747C123.665 46.8113 123.345 47.0735 122.97 47.2281C122.596 47.3827 122.184 47.4227 121.787 47.3431C121.39 47.2635 121.026 47.0679 120.74 46.781C120.454 46.4941 120.26 46.1288 120.182 45.7314C120.104 45.334 120.146 44.9224 120.302 44.5488C120.458 44.1751 120.721 43.8561 121.059 43.6323C121.396 43.4085 121.793 43.2899 122.197 43.2915C122.466 43.2915 122.731 43.3445 122.979 43.4474C123.227 43.5503 123.452 43.7011 123.641 43.8912C123.831 44.0813 123.98 44.3069 124.082 44.555C124.184 44.8032 124.236 45.069 124.235 45.3373Z" fill="#E0E0E0" fill-opacity="0.5"/>
<path d="M130.03 45.3373C130.03 45.7419 129.91 46.1374 129.685 46.4739C129.46 46.8103 129.141 47.0725 128.767 47.2273C128.393 47.3822 127.982 47.4227 127.585 47.3437C127.188 47.2648 126.824 47.07 126.538 46.7839C126.252 46.4978 126.057 46.1332 125.978 45.7364C125.899 45.3395 125.939 44.9282 126.094 44.5544C126.249 44.1806 126.511 43.8611 126.848 43.6363C127.184 43.4115 127.58 43.2915 127.984 43.2915C128.527 43.2915 129.047 43.507 129.431 43.8907C129.814 44.2744 130.03 44.7947 130.03 45.3373Z" fill="#E0E0E0" fill-opacity="0.5"/>
<path d="M343.222 251.602C343.222 251.7 302.95 251.773 253.273 251.773C203.596 251.773 163.324 251.708 163.324 251.602C163.324 251.496 203.588 251.431 253.273 251.431C302.958 251.431 343.222 251.512 343.222 251.602Z" fill="#263238"/>
<path d="M200.572 152.85L119.434 153.087L119.597 208.787L186.854 208.6L195.975 208.567L200.735 208.559L200.572 152.85Z" fill="#F5F5F5" fill-opacity="0.5"/>
<path d="M125.677 202.805C125.579 202.805 125.473 193.358 125.441 181.703C125.408 170.048 125.441 160.594 125.555 160.594C125.669 160.594 125.759 170.04 125.791 181.703C125.824 193.367 125.775 202.805 125.677 202.805Z" fill="#263238"/>
<path d="M196.074 196.798C196.074 196.896 180.254 197.026 160.733 197.075C141.213 197.124 125.393 197.075 125.393 197.002C125.393 196.928 141.213 196.782 160.733 196.724C180.254 196.667 196.074 196.7 196.074 196.798Z" fill="#EBEBEB" fill-opacity="0.5"/>
<path d="M196.056 190.579C196.056 190.677 180.228 190.807 160.716 190.864C141.203 190.921 125.375 190.864 125.375 190.783C125.375 190.701 141.195 190.563 160.716 190.506C180.236 190.449 196.056 190.506 196.056 190.579Z" fill="#EBEBEB" fill-opacity="0.5"/>
<path d="M196.042 184.417C196.042 184.515 180.213 184.637 160.701 184.694C141.189 184.751 125.361 184.694 125.353 184.621C125.344 184.548 141.173 184.393 160.701 184.336C180.23 184.279 196.042 184.319 196.042 184.417Z" fill="#EBEBEB" fill-opacity="0.5"/>
<path d="M196.015 178.223C196.015 178.321 180.195 178.443 160.683 178.5C141.17 178.557 125.334 178.5 125.334 178.427C125.334 178.353 141.154 178.199 160.675 178.142C180.195 178.085 196.015 178.125 196.015 178.223Z" fill="#EBEBEB" fill-opacity="0.5"/>
<path d="M196 172.029C196 172.126 180.18 172.249 160.66 172.306C141.139 172.363 125.319 172.306 125.319 172.232C125.319 172.159 141.139 172.012 160.66 171.955C180.18 171.898 196 171.931 196 172.029Z" fill="#EBEBEB" fill-opacity="0.5"/>
<path d="M195.983 165.834C195.983 165.932 180.163 166.054 160.642 166.111C141.122 166.168 125.302 166.111 125.302 166.038C125.302 165.965 141.122 165.818 160.642 165.761C180.163 165.704 195.983 165.736 195.983 165.834Z" fill="#EBEBEB" fill-opacity="0.5"/>
<path d="M195.966 159.607C195.966 159.705 180.138 159.835 160.626 159.892C141.113 159.95 125.285 159.892 125.285 159.811C125.285 159.729 141.105 159.591 160.626 159.534C180.146 159.477 195.966 159.542 195.966 159.607Z" fill="#EBEBEB" fill-opacity="0.5"/>
<path d="M135.209 193.156L130.14 193.17L130.167 202.82L135.236 202.806L135.209 193.156Z" fill="#FFBD00"/>
<path d="M172.025 193.053L166.955 193.067L166.982 202.717L172.052 202.703L172.025 193.053Z" fill="#FFBD00"/>
<path d="M145.173 185.993L140.104 186.008L140.153 202.757L145.223 202.742L145.173 185.993Z" fill="#FFBD00"/>
<path d="M163.687 181.617L158.617 181.631L158.676 202.732L163.746 202.718L163.687 181.617Z" fill="#FFBD00"/>
<path d="M154.527 168.784L149.457 168.799L149.558 202.73L154.627 202.715L154.527 168.784Z" fill="#FFBD00"/>
<path d="M181.043 175.696H175.974V203.351H181.043V175.696Z" fill="#FFBD00"/>
<path d="M187.93 202.634C187.93 202.731 174.017 202.854 156.869 202.903C139.72 202.951 125.799 202.903 125.799 202.813C125.799 202.723 139.704 202.601 156.869 202.552C174.033 202.503 187.93 202.536 187.93 202.634Z" fill="#263238"/>
<path d="M118.7 65.5994V147.414H250.029H261.546H295.664V65.5994H118.7Z" fill="#F5F5F5" fill-opacity="0.5"/>
<path d="M131.147 122.115V124.699H130.879V122.351H130.275V122.115H131.147Z" fill="#263238"/>
<path d="M131.766 123.403C131.766 122.588 132.198 122.091 132.793 122.091C133.388 122.091 133.828 122.58 133.828 123.403C133.828 124.226 133.396 124.715 132.793 124.715C132.189 124.715 131.766 124.226 131.766 123.403ZM133.559 123.403C133.559 122.71 133.249 122.335 132.793 122.335C132.336 122.335 132.035 122.71 132.035 123.403C132.035 124.096 132.344 124.471 132.793 124.471C133.241 124.471 133.559 124.096 133.559 123.403Z" fill="#263238"/>
<path d="M132.198 108.398V108.634H130.397V108.447L131.472 107.395C131.766 107.11 131.823 106.931 131.823 106.759C131.823 106.458 131.611 106.27 131.212 106.27C131.08 106.263 130.949 106.286 130.828 106.337C130.706 106.388 130.598 106.465 130.511 106.564L130.323 106.401C130.438 106.275 130.58 106.176 130.738 106.111C130.896 106.046 131.066 106.017 131.236 106.026C131.758 106.026 132.092 106.295 132.092 106.727C132.088 106.886 132.047 107.042 131.974 107.183C131.9 107.324 131.796 107.447 131.668 107.542L130.788 108.406L132.198 108.398Z" fill="#263238"/>
<path d="M132.516 107.346C132.516 106.531 132.948 106.026 133.543 106.026C134.138 106.026 134.578 106.523 134.578 107.346C134.578 108.169 134.146 108.658 133.543 108.658C132.939 108.658 132.516 108.161 132.516 107.346ZM134.309 107.346C134.309 106.653 133.999 106.27 133.543 106.27C133.086 106.27 132.785 106.653 132.785 107.346C132.785 108.039 133.094 108.414 133.543 108.414C133.991 108.414 134.309 108.031 134.309 107.346Z" fill="#263238"/>
<path d="M132.142 91.8278C132.142 92.2598 131.824 92.594 131.205 92.594C130.863 92.6061 130.531 92.4864 130.275 92.2598L130.406 92.056C130.628 92.2579 130.921 92.3635 131.221 92.3494C131.645 92.3494 131.881 92.1538 131.881 91.8278C131.881 91.5018 131.669 91.3225 131.188 91.3225H131.001V91.1432L131.718 90.2466H130.398V90.0103H132.028V90.1977L131.294 91.1106C131.865 91.1432 132.142 91.4203 132.142 91.8278Z" fill="#263238"/>
<path d="M132.516 91.2816C132.516 90.4665 132.948 89.9694 133.543 89.9694C134.138 89.9694 134.578 90.4584 134.578 91.2816C134.578 92.1048 134.146 92.5938 133.543 92.5938C132.939 92.5938 132.516 92.1048 132.516 91.2816ZM134.309 91.2816C134.309 90.5888 133.999 90.2139 133.543 90.2139C133.086 90.2139 132.785 90.5888 132.785 91.2816C132.785 91.9744 133.094 92.3493 133.543 92.3493C133.991 92.3493 134.309 91.9581 134.309 91.2816Z" fill="#263238"/>
<path d="M142.548 131.896C142.548 131.081 142.98 130.575 143.575 130.575C144.17 130.575 144.61 131.072 144.61 131.896C144.61 132.719 144.178 133.208 143.575 133.208C142.972 133.208 142.548 132.711 142.548 131.896ZM144.341 131.896C144.341 131.203 144.031 130.82 143.575 130.82C143.118 130.82 142.817 131.203 142.817 131.896C142.817 132.588 143.127 132.963 143.575 132.963C144.023 132.963 144.341 132.564 144.341 131.896Z" fill="#263238"/>
<path d="M161.669 130.583V133.167H161.367V130.82H160.756V130.583H161.669Z" fill="#263238"/>
<path d="M181.819 132.931V133.167H180.009V132.98L181.077 131.928C181.37 131.643 181.427 131.464 181.427 131.292C181.427 130.991 181.216 130.803 180.824 130.803C180.692 130.797 180.559 130.82 180.437 130.87C180.314 130.921 180.204 130.998 180.115 131.097L179.928 130.934C180.044 130.809 180.185 130.71 180.343 130.646C180.5 130.581 180.67 130.551 180.841 130.559C181.37 130.559 181.696 130.828 181.696 131.26C181.692 131.419 181.652 131.575 181.578 131.716C181.505 131.857 181.4 131.98 181.273 132.075L180.4 132.939L181.819 132.931Z" fill="#263238"/>
<path d="M200.866 132.425C200.866 132.857 200.549 133.191 199.929 133.191C199.588 133.204 199.255 133.084 199 132.857L199.13 132.645C199.239 132.748 199.367 132.828 199.507 132.88C199.647 132.932 199.796 132.955 199.945 132.947C200.377 132.947 200.606 132.743 200.606 132.425C200.606 132.107 200.394 131.912 199.913 131.912H199.676V131.716L200.394 130.82H199.106V130.583H200.736V130.771L200.002 131.692C200.589 131.724 200.866 132.01 200.866 132.425Z" fill="#263238"/>
<path d="M220.45 132.49H219.937V133.167H219.668V132.49H218.217V132.295L219.586 130.583H219.88L218.559 132.254H219.676V131.651H219.937V132.254H220.45V132.49Z" fill="#263238"/>
<path d="M239.116 132.409C239.116 132.849 238.807 133.224 238.179 133.224C237.838 133.235 237.506 133.115 237.25 132.89L237.38 132.678C237.489 132.78 237.617 132.86 237.757 132.911C237.897 132.963 238.046 132.986 238.195 132.98C238.627 132.98 238.864 132.768 238.864 132.45C238.864 132.132 238.66 131.912 238 131.912H237.446L237.584 130.616H238.994V130.852H237.812L237.723 131.667H238.057C238.799 131.643 239.116 131.953 239.116 132.409Z" fill="#263238"/>
<path d="M258.408 132.393C258.408 132.505 258.385 132.617 258.34 132.72C258.295 132.824 258.229 132.917 258.146 132.993C258.064 133.07 257.966 133.129 257.859 133.165C257.753 133.202 257.64 133.217 257.527 133.208C256.835 133.208 256.468 132.727 256.468 131.912C256.468 131.097 256.949 130.575 257.65 130.575C257.863 130.565 258.075 130.616 258.261 130.722L258.155 130.934C258.002 130.845 257.826 130.802 257.65 130.812C257.095 130.812 256.737 131.17 256.737 131.871C256.733 131.942 256.733 132.012 256.737 132.083C256.811 131.934 256.928 131.811 257.074 131.731C257.22 131.651 257.386 131.617 257.552 131.635C257.765 131.624 257.975 131.697 258.135 131.839C258.295 131.98 258.393 132.179 258.408 132.393ZM258.147 132.393C258.147 132.059 257.894 131.838 257.495 131.838C257.414 131.829 257.331 131.837 257.253 131.861C257.175 131.885 257.103 131.924 257.04 131.976C256.978 132.029 256.926 132.094 256.89 132.167C256.853 132.24 256.831 132.319 256.826 132.401C256.826 132.686 257.063 132.955 257.511 132.955C257.59 132.964 257.67 132.957 257.746 132.933C257.821 132.91 257.891 132.871 257.951 132.818C258.011 132.766 258.059 132.702 258.093 132.63C258.127 132.558 258.145 132.48 258.147 132.401V132.393Z" fill="#263238"/>
<path d="M277.391 130.583V130.771L276.291 133.167H276.005L277.073 130.82H275.745V131.3H275.476V130.583H277.391Z" fill="#263238"/>
<path d="M277.529 123.525C277.529 123.664 247.633 123.778 210.76 123.778C173.887 123.778 143.991 123.664 143.991 123.525C143.991 123.386 173.879 123.272 210.76 123.272C247.641 123.272 277.529 123.386 277.529 123.525Z" fill="#263238"/>
<path d="M277.529 107.387C277.529 107.525 247.633 107.631 210.76 107.631C173.887 107.631 143.991 107.525 143.991 107.387C143.991 107.248 173.879 107.134 210.76 107.134C247.641 107.134 277.529 107.248 277.529 107.387Z" fill="#263238"/>
<path d="M277.529 91.2411C277.529 91.3796 247.633 91.4937 210.76 91.4937C173.887 91.4937 143.991 91.3796 143.991 91.2411C143.991 91.1025 173.879 90.9884 210.76 90.9884C247.641 90.9884 277.529 91.1433 277.529 91.2411Z" fill="#263238"/>
<path d="M143.991 123.289C143.992 123.46 143.943 123.628 143.848 123.772C143.754 123.915 143.619 124.027 143.461 124.093C143.303 124.16 143.128 124.178 142.96 124.145C142.792 124.112 142.637 124.029 142.516 123.908C142.394 123.786 142.312 123.632 142.279 123.463C142.246 123.295 142.264 123.121 142.33 122.962C142.396 122.804 142.508 122.669 142.652 122.575C142.795 122.481 142.963 122.431 143.135 122.433C143.249 122.427 143.363 122.445 143.469 122.486C143.576 122.527 143.672 122.59 143.753 122.671C143.834 122.751 143.896 122.848 143.937 122.954C143.978 123.061 143.996 123.175 143.991 123.289Z" fill="#FFBD00"/>
<path d="M163.185 123.289C163.185 123.458 163.135 123.623 163.041 123.764C162.947 123.905 162.813 124.015 162.657 124.079C162.501 124.144 162.328 124.161 162.162 124.128C161.996 124.095 161.844 124.014 161.724 123.894C161.605 123.774 161.523 123.622 161.49 123.456C161.457 123.29 161.474 123.118 161.539 122.961C161.604 122.805 161.713 122.671 161.854 122.577C161.995 122.483 162.16 122.433 162.329 122.433C162.443 122.427 162.557 122.445 162.664 122.486C162.77 122.527 162.867 122.59 162.948 122.671C163.028 122.751 163.091 122.848 163.132 122.954C163.173 123.061 163.191 123.175 163.185 123.289Z" fill="#FFBD00"/>
<path d="M182.388 123.289C182.388 123.458 182.338 123.623 182.244 123.764C182.15 123.905 182.016 124.015 181.86 124.079C181.704 124.144 181.532 124.161 181.366 124.128C181.2 124.095 181.047 124.014 180.927 123.894C180.808 123.774 180.726 123.622 180.693 123.456C180.66 123.29 180.677 123.118 180.742 122.961C180.807 122.805 180.916 122.671 181.057 122.577C181.198 122.483 181.363 122.433 181.533 122.433C181.646 122.427 181.76 122.445 181.867 122.486C181.973 122.527 182.07 122.59 182.151 122.671C182.231 122.751 182.294 122.848 182.335 122.954C182.376 123.061 182.394 123.175 182.388 123.289Z" fill="#FFBD00"/>
<path d="M201.59 123.289C201.592 123.46 201.542 123.628 201.448 123.772C201.354 123.915 201.219 124.027 201.061 124.093C200.902 124.16 200.728 124.178 200.56 124.145C200.391 124.112 200.237 124.029 200.115 123.908C199.994 123.786 199.912 123.632 199.879 123.463C199.845 123.295 199.863 123.121 199.93 122.962C199.996 122.804 200.108 122.669 200.251 122.575C200.395 122.481 200.563 122.431 200.734 122.433C200.848 122.427 200.962 122.445 201.069 122.486C201.175 122.527 201.272 122.59 201.353 122.671C201.433 122.751 201.496 122.848 201.537 122.954C201.578 123.061 201.596 123.175 201.59 123.289Z" fill="#FFBD00"/>
<path d="M220.786 123.289C220.778 123.448 220.724 123.601 220.63 123.73C220.535 123.858 220.405 123.956 220.256 124.012C220.106 124.067 219.944 124.078 219.789 124.042C219.633 124.006 219.492 123.925 219.382 123.81C219.272 123.694 219.198 123.549 219.17 123.392C219.142 123.235 219.16 123.074 219.223 122.927C219.286 122.781 219.39 122.656 219.523 122.568C219.656 122.48 219.812 122.433 219.971 122.433C220.082 122.433 220.191 122.455 220.293 122.498C220.395 122.542 220.486 122.606 220.562 122.686C220.639 122.766 220.698 122.86 220.736 122.964C220.775 123.068 220.792 123.178 220.786 123.289Z" fill="#FFBD00"/>
<path d="M259.173 123.289C259.175 123.46 259.125 123.628 259.032 123.771C258.938 123.914 258.803 124.026 258.646 124.093C258.488 124.159 258.314 124.177 258.146 124.145C257.978 124.113 257.823 124.031 257.701 123.911C257.58 123.79 257.497 123.636 257.463 123.468C257.429 123.3 257.445 123.126 257.51 122.968C257.575 122.81 257.686 122.674 257.828 122.579C257.971 122.484 258.138 122.433 258.309 122.433C258.422 122.432 258.534 122.453 258.639 122.496C258.744 122.538 258.839 122.601 258.92 122.681C259 122.76 259.064 122.855 259.107 122.959C259.151 123.064 259.173 123.175 259.173 123.289Z" fill="#FFBD00"/>
<path d="M239.989 123.289C239.989 123.46 239.937 123.627 239.841 123.768C239.745 123.91 239.609 124.019 239.451 124.082C239.292 124.146 239.118 124.16 238.951 124.124C238.784 124.087 238.631 124.002 238.513 123.878C238.396 123.754 238.317 123.598 238.289 123.429C238.261 123.261 238.284 123.087 238.355 122.932C238.426 122.776 238.542 122.646 238.688 122.557C238.834 122.468 239.003 122.425 239.174 122.433C239.284 122.433 239.394 122.455 239.496 122.499C239.597 122.542 239.689 122.606 239.765 122.686C239.841 122.766 239.901 122.861 239.939 122.964C239.977 123.068 239.994 123.178 239.989 123.289Z" fill="#FFBD00"/>
<path d="M278.384 123.289C278.384 123.458 278.334 123.623 278.24 123.764C278.146 123.905 278.013 124.015 277.856 124.079C277.7 124.144 277.528 124.161 277.362 124.128C277.196 124.095 277.043 124.014 276.924 123.894C276.804 123.774 276.722 123.622 276.689 123.456C276.656 123.29 276.673 123.118 276.738 122.961C276.803 122.805 276.912 122.671 277.053 122.577C277.194 122.483 277.359 122.433 277.529 122.433C277.643 122.427 277.756 122.445 277.863 122.486C277.969 122.527 278.066 122.59 278.147 122.671C278.227 122.751 278.29 122.848 278.331 122.954C278.372 123.061 278.39 123.175 278.384 123.289Z" fill="#FFBD00"/>
<path d="M152.738 123.525C152.738 123.636 152.705 123.745 152.643 123.837C152.581 123.93 152.494 124.002 152.391 124.044C152.288 124.087 152.175 124.098 152.066 124.076C151.957 124.055 151.857 124.001 151.778 123.923C151.699 123.844 151.646 123.744 151.624 123.635C151.602 123.526 151.614 123.412 151.656 123.31C151.699 123.207 151.771 123.119 151.863 123.057C151.956 122.995 152.064 122.963 152.176 122.963C152.325 122.963 152.468 123.022 152.573 123.127C152.679 123.233 152.738 123.376 152.738 123.525Z" fill="#E0E0E0" fill-opacity="0.5"/>
<path d="M172.012 123.525C172.012 123.636 171.979 123.745 171.918 123.837C171.856 123.93 171.768 124.002 171.665 124.044C171.563 124.087 171.449 124.098 171.34 124.076C171.231 124.055 171.131 124.001 171.052 123.923C170.974 123.844 170.92 123.744 170.899 123.635C170.877 123.526 170.888 123.412 170.93 123.31C170.973 123.207 171.045 123.119 171.138 123.057C171.23 122.995 171.339 122.963 171.45 122.963C171.599 122.963 171.742 123.022 171.848 123.127C171.953 123.233 172.012 123.376 172.012 123.525Z" fill="#E0E0E0" fill-opacity="0.5"/>
<path d="M191.281 123.525C191.275 123.634 191.237 123.739 191.171 123.827C191.106 123.915 191.017 123.982 190.914 124.02C190.811 124.058 190.7 124.065 190.593 124.04C190.487 124.016 190.389 123.961 190.314 123.882C190.238 123.803 190.187 123.703 190.167 123.596C190.147 123.488 190.158 123.377 190.201 123.276C190.243 123.175 190.313 123.088 190.404 123.027C190.495 122.965 190.601 122.932 190.711 122.93C190.788 122.929 190.865 122.943 190.936 122.973C191.007 123.003 191.072 123.047 191.126 123.103C191.179 123.159 191.221 123.225 191.247 123.298C191.274 123.37 191.286 123.448 191.281 123.525Z" fill="#E0E0E0" fill-opacity="0.5"/>
<path d="M210.556 123.525C210.556 123.636 210.523 123.745 210.462 123.837C210.4 123.93 210.312 124.002 210.209 124.044C210.106 124.087 209.993 124.098 209.884 124.076C209.775 124.055 209.675 124.001 209.596 123.923C209.518 123.844 209.464 123.744 209.442 123.635C209.421 123.526 209.432 123.412 209.474 123.31C209.517 123.207 209.589 123.119 209.682 123.057C209.774 122.995 209.883 122.963 209.994 122.963C210.143 122.963 210.286 123.022 210.392 123.127C210.497 123.233 210.556 123.376 210.556 123.525Z" fill="#E0E0E0" fill-opacity="0.5"/>
<path d="M229.833 123.525C229.833 123.636 229.8 123.745 229.738 123.837C229.676 123.93 229.588 124.002 229.486 124.044C229.383 124.087 229.27 124.098 229.161 124.076C229.052 124.055 228.951 124.001 228.873 123.923C228.794 123.844 228.741 123.744 228.719 123.635C228.697 123.526 228.708 123.412 228.751 123.31C228.793 123.207 228.865 123.119 228.958 123.057C229.05 122.995 229.159 122.963 229.27 122.963C229.42 122.963 229.563 123.022 229.668 123.127C229.774 123.233 229.833 123.376 229.833 123.525Z" fill="#E0E0E0" fill-opacity="0.5"/>
<path d="M249.1 123.525C249.094 123.636 249.054 123.743 248.986 123.832C248.919 123.921 248.826 123.987 248.721 124.023C248.616 124.059 248.502 124.063 248.394 124.034C248.286 124.006 248.19 123.946 248.116 123.862C248.043 123.778 247.996 123.674 247.981 123.564C247.967 123.453 247.986 123.341 248.035 123.241C248.085 123.141 248.163 123.058 248.26 123.003C248.356 122.948 248.467 122.922 248.579 122.93C248.726 122.941 248.864 123.009 248.962 123.12C249.059 123.232 249.109 123.377 249.1 123.525Z" fill="#E0E0E0" fill-opacity="0.5"/>
<path d="M268.368 123.525C268.368 123.636 268.335 123.745 268.273 123.837C268.211 123.93 268.124 124.002 268.021 124.044C267.918 124.087 267.805 124.098 267.696 124.076C267.587 124.055 267.487 124.001 267.408 123.923C267.329 123.844 267.276 123.744 267.254 123.635C267.232 123.526 267.243 123.412 267.286 123.31C267.329 123.207 267.401 123.119 267.493 123.057C267.586 122.995 267.694 122.963 267.806 122.963C267.955 122.963 268.098 123.022 268.203 123.127C268.309 123.233 268.368 123.376 268.368 123.525Z" fill="#E0E0E0" fill-opacity="0.5"/>
<path d="M164.433 116.41C164.433 116.826 164.31 117.232 164.079 117.578C163.848 117.924 163.519 118.193 163.135 118.352C162.751 118.512 162.328 118.553 161.92 118.472C161.512 118.391 161.138 118.191 160.843 117.897C160.549 117.603 160.349 117.228 160.268 116.82C160.187 116.412 160.228 115.989 160.388 115.605C160.547 115.221 160.816 114.892 161.162 114.661C161.508 114.43 161.914 114.307 162.33 114.307C162.607 114.307 162.88 114.361 163.135 114.467C163.39 114.573 163.622 114.728 163.817 114.923C164.013 115.118 164.167 115.35 164.273 115.605C164.379 115.86 164.433 116.134 164.433 116.41Z" fill="#FFBD00"/>
<path d="M181.192 106.507C181.193 106.925 181.071 107.334 180.84 107.682C180.609 108.03 180.28 108.302 179.894 108.463C179.509 108.624 179.084 108.667 178.674 108.586C178.264 108.506 177.887 108.305 177.591 108.01C177.295 107.716 177.093 107.339 177.011 106.93C176.929 106.52 176.97 106.095 177.13 105.709C177.289 105.323 177.56 104.993 177.907 104.76C178.254 104.528 178.663 104.404 179.081 104.404C179.639 104.404 180.175 104.625 180.571 105.019C180.966 105.413 181.19 105.948 181.192 106.507Z" fill="#FFBD00"/>
<path d="M201.973 107.387C201.973 107.803 201.85 108.209 201.619 108.555C201.388 108.901 201.059 109.171 200.675 109.33C200.291 109.489 199.868 109.531 199.46 109.449C199.052 109.368 198.678 109.168 198.383 108.874C198.089 108.58 197.889 108.205 197.808 107.797C197.727 107.389 197.768 106.967 197.928 106.582C198.087 106.198 198.356 105.87 198.702 105.639C199.048 105.408 199.455 105.284 199.87 105.284C200.428 105.284 200.963 105.506 201.357 105.9C201.752 106.294 201.973 106.829 201.973 107.387Z" fill="#FFBD00"/>
<path d="M222.278 89.4151C222.278 89.831 222.155 90.2375 221.924 90.5833C221.692 90.9292 221.364 91.1987 220.98 91.3578C220.596 91.517 220.173 91.5586 219.765 91.4775C219.357 91.3964 218.982 91.1961 218.688 90.902C218.394 90.6079 218.194 90.2332 218.113 89.8253C218.032 89.4174 218.073 88.9946 218.232 88.6104C218.391 88.2261 218.661 87.8977 219.007 87.6666C219.353 87.4356 219.759 87.3123 220.175 87.3123C220.732 87.3144 221.266 87.5366 221.66 87.9305C222.054 88.3244 222.276 88.858 222.278 89.4151Z" fill="#FFBD00"/>
<path d="M241.244 100.842C241.244 101.258 241.12 101.665 240.889 102.01C240.658 102.356 240.33 102.626 239.946 102.785C239.561 102.944 239.139 102.986 238.731 102.904C238.323 102.823 237.948 102.623 237.654 102.329C237.36 102.035 237.16 101.66 237.078 101.252C236.997 100.844 237.039 100.422 237.198 100.037C237.357 99.6531 237.627 99.3247 237.973 99.0936C238.318 98.8626 238.725 98.7393 239.141 98.7393C239.417 98.7393 239.69 98.7936 239.946 98.8993C240.201 99.005 240.433 99.1599 240.628 99.3552C240.823 99.5504 240.978 99.7822 241.084 100.037C241.189 100.292 241.244 100.566 241.244 100.842Z" fill="#FFBD00"/>
<path d="M260.429 103.882C260.429 104.298 260.306 104.705 260.075 105.051C259.844 105.396 259.515 105.666 259.131 105.825C258.747 105.984 258.324 106.026 257.916 105.945C257.508 105.864 257.134 105.663 256.84 105.369C256.545 105.075 256.345 104.7 256.264 104.292C256.183 103.885 256.225 103.462 256.384 103.078C256.543 102.693 256.812 102.365 257.158 102.134C257.504 101.903 257.911 101.779 258.326 101.779C258.603 101.778 258.877 101.832 259.132 101.937C259.388 102.043 259.62 102.197 259.816 102.393C260.011 102.588 260.166 102.821 260.271 103.076C260.377 103.332 260.43 103.606 260.429 103.882Z" fill="#FFBD00"/>
<path d="M278.386 116.41C278.223 116.421 278.06 116.421 277.897 116.41C277.415 116.378 276.935 116.312 276.462 116.214C274.62 115.869 272.898 115.052 271.466 113.842C270.449 112.948 269.618 111.862 269.021 110.647C268.301 109.239 267.441 107.906 266.454 106.67C265.364 105.226 263.842 104.167 262.109 103.646C261.161 103.426 260.172 103.46 259.24 103.744C258.261 104.066 257.356 104.579 256.575 105.252C254.945 106.621 253.739 108.561 252.149 110.329C251.354 111.269 250.371 112.032 249.264 112.571C248.071 113.094 246.737 113.203 245.474 112.881C244.833 112.669 244.243 112.324 243.746 111.867C243.248 111.41 242.854 110.853 242.589 110.232C242.037 109.003 241.619 107.719 241.342 106.401C241.082 105.07 240.7 103.766 240.201 102.505C239.959 101.896 239.528 101.382 238.97 101.038C238.366 100.748 237.699 100.616 237.03 100.655C235.608 100.811 234.197 101.061 232.808 101.405C232.076 101.555 231.331 101.64 230.583 101.657C229.804 101.685 229.029 101.535 228.317 101.217C227.599 100.878 226.982 100.358 226.524 99.7093C226.085 99.0719 225.716 98.3887 225.424 97.6717C224.813 96.2454 224.405 94.762 223.859 93.3275C223.59 92.6151 223.249 91.9322 222.84 91.2899C222.445 90.6776 221.878 90.1956 221.21 89.9043C221.031 89.8554 220.86 89.7902 220.68 89.7494L220.126 89.6924C219.771 89.6718 219.417 89.7449 219.099 89.9043C218.451 90.2997 217.921 90.8629 217.567 91.5344C216.792 92.9275 216.192 94.4113 215.782 95.952C215.326 97.5005 214.967 99.0817 214.567 100.679C213.956 103.328 213.402 105.969 212.725 108.553C212.396 109.843 212.001 111.116 211.544 112.367C211.124 113.647 210.444 114.826 209.547 115.831C209.048 116.341 208.369 116.633 207.656 116.646C206.965 116.632 206.292 116.429 205.708 116.059C204.616 115.344 203.688 114.405 202.986 113.304C201.652 111.203 200.559 108.958 199.725 106.613C198.804 104.396 197.761 102.203 196.05 100.696C195.216 99.9682 194.219 99.4522 193.144 99.1912C192.068 98.9302 190.946 98.9318 189.872 99.1959C188.833 99.4706 187.843 99.905 186.937 100.484C186.034 101.035 185.176 101.656 184.37 102.342C182.82 103.647 181.388 105.088 180.091 106.645C178.138 108.586 176.016 110.348 173.75 111.911C171.725 113.341 169.536 114.523 167.229 115.432C165.219 116.267 163.044 116.63 160.872 116.491C159.061 116.281 157.282 115.851 155.574 115.212C153.206 114.336 150.906 113.285 148.695 112.065C147.929 111.65 147.359 111.316 146.975 111.079C146.592 110.843 146.413 110.712 146.413 110.712L147.008 111.03L148.752 111.96C150.977 113.133 153.281 114.149 155.648 115C157.339 115.615 159.099 116.023 160.888 116.214C163.02 116.334 165.15 115.963 167.115 115.13C169.38 114.217 171.528 113.038 173.513 111.617C175.752 110.057 177.847 108.301 179.773 106.368C181.078 104.78 182.524 103.312 184.093 101.983C184.893 101.296 185.743 100.669 186.636 100.109C187.58 99.5045 188.61 99.0482 189.692 98.7557C190.837 98.4717 192.033 98.4679 193.179 98.7446C194.326 99.0213 195.389 99.5703 196.278 100.345C198.095 101.934 199.155 104.2 200.092 106.425C200.932 108.737 202.025 110.948 203.352 113.019C204.017 114.061 204.895 114.95 205.928 115.627C206.436 115.95 207.022 116.13 207.623 116.149C208.21 116.123 208.765 115.872 209.172 115.448C210.004 114.494 210.641 113.387 211.046 112.188C211.496 110.953 211.882 109.696 212.204 108.422C212.88 105.855 213.426 103.214 214.046 100.557C214.421 98.9269 214.804 97.362 215.268 95.7971C215.691 94.2168 216.307 92.6947 217.102 91.2654C217.512 90.524 218.115 89.9072 218.846 89.4805C219.238 89.2778 219.678 89.1848 220.118 89.2115L220.746 89.2767C220.949 89.3256 221.153 89.399 221.349 89.456C222.124 89.7801 222.785 90.3277 223.248 91.0291C223.681 91.6996 224.039 92.4157 224.315 93.1645C224.878 94.6316 225.277 96.115 225.872 97.4924C226.467 98.8698 227.201 100.239 228.521 100.802C229.842 101.364 231.325 101.201 232.719 100.956C234.133 100.615 235.567 100.367 237.014 100.215C237.765 100.169 238.515 100.321 239.19 100.655C239.833 101.045 240.331 101.635 240.608 102.334C241.122 103.62 241.513 104.951 241.774 106.311C242.034 107.601 242.436 108.859 242.972 110.06C243.208 110.631 243.564 111.145 244.015 111.566C244.467 111.988 245.003 112.308 245.588 112.506C246.757 112.808 247.994 112.711 249.101 112.228C250.156 111.703 251.089 110.961 251.84 110.052C253.405 108.333 254.627 106.376 256.322 104.966C257.141 104.266 258.091 103.736 259.118 103.41C260.105 103.108 261.155 103.077 262.158 103.32C263.952 103.864 265.523 104.97 266.641 106.474C267.635 107.74 268.496 109.106 269.208 110.549C269.785 111.746 270.591 112.818 271.58 113.704C272.977 114.919 274.66 115.76 276.47 116.149C276.937 116.26 277.411 116.338 277.889 116.385C278.055 116.384 278.221 116.392 278.386 116.41Z" fill="#FFBD00"/>
<path d="M164.629 80.1809C164.629 80.3194 157.179 80.4335 147.985 80.4335C138.792 80.4335 131.334 80.3194 131.334 80.1809C131.334 80.0423 138.792 79.9282 147.985 79.9282C157.179 79.9282 164.629 80.0423 164.629 80.1809Z" fill="#263238"/>
<path d="M302.722 66.1292V146.11H312.404H325.722H387.837V66.1292H302.722Z" fill="#F5F5F5" fill-opacity="0.5"/>
<path d="M344.902 75.1925C339.708 75.1925 334.63 76.7327 330.312 79.6183C325.993 82.5038 322.627 86.6052 320.64 91.4038C318.652 96.2023 318.132 101.483 319.145 106.577C320.159 111.671 322.66 116.35 326.332 120.023C330.005 123.695 334.684 126.196 339.778 127.21C344.872 128.223 350.153 127.703 354.951 125.715C359.75 123.728 363.851 120.362 366.737 116.043C369.622 111.725 371.162 106.647 371.162 101.453C371.162 94.4886 368.396 87.809 363.471 82.8841C358.546 77.9593 351.866 75.1925 344.902 75.1925ZM345.301 117.192C342.109 117.194 338.988 116.248 336.333 114.476C333.678 112.704 331.608 110.184 330.386 107.235C329.163 104.287 328.842 101.042 329.464 97.9107C330.086 94.7797 331.622 91.9034 333.879 89.6456C336.135 87.3879 339.011 85.8501 342.141 85.2267C345.272 84.6034 348.517 84.9225 351.467 86.1437C354.416 87.3649 356.937 89.4333 358.71 92.0874C360.484 94.7414 361.431 97.8619 361.431 101.054C361.434 103.175 361.019 105.276 360.21 107.237C359.401 109.197 358.214 110.979 356.716 112.481C355.218 113.983 353.439 115.175 351.48 115.989C349.522 116.802 347.422 117.222 345.301 117.225V117.192Z" fill="#263238"/>
<path d="M345.31 75.2007C345.31 77.9963 345.31 81.7618 345.31 84.9242C347.847 84.924 350.348 85.5224 352.611 86.6707C354.873 87.8189 356.833 89.4847 358.331 91.5327C359.828 93.5807 360.822 95.9532 361.23 98.4573C361.639 100.961 361.451 103.527 360.681 105.944L370.201 108.528C371.283 104.659 371.462 100.593 370.726 96.6436C369.989 92.6942 368.356 88.9664 365.952 85.7472C363.549 82.528 360.439 79.9032 356.861 78.0747C353.284 76.2463 349.335 75.2631 345.318 75.2007H345.31Z" fill="#FFBD00"/>
<path d="M329.163 101.054C329.162 97.9367 330.066 94.886 331.764 92.2718C333.462 89.6577 335.883 87.5923 338.731 86.3261L334.656 77.2546C329.91 79.2731 325.863 82.6443 323.021 86.9477C320.179 91.2511 318.666 96.2961 318.673 101.453C318.673 101.82 318.673 102.187 318.673 102.554H329.269C329.195 102.065 329.163 101.559 329.163 101.054Z" fill="#455A64"/>
<path d="M345.301 117.225C344.153 117.223 343.008 117.101 341.886 116.858C341.479 119.197 340.713 123.729 340.109 127.299C341.689 127.597 343.294 127.747 344.902 127.747C350.629 127.742 356.198 125.864 360.76 122.4C365.321 118.937 368.625 114.076 370.168 108.561L360.649 105.977C359.612 109.236 357.567 112.082 354.809 114.103C352.05 116.125 348.721 117.218 345.301 117.225Z" fill="#FFBD00"/>
<g opacity="0.3">
<path d="M345.299 117.225C344.151 117.223 343.006 117.101 341.884 116.858C341.477 119.197 340.711 123.729 340.107 127.299C341.687 127.597 343.292 127.747 344.9 127.747C350.628 127.742 356.196 125.864 360.758 122.4C365.319 118.937 368.623 114.076 370.166 108.561L360.647 105.977C359.61 109.236 357.565 112.082 354.807 114.103C352.049 116.125 348.719 117.218 345.299 117.225Z" fill="black"/>
</g>
<path d="M341.812 102.358H340.842V103.613H339.497V102.358H336.277V101.429L339.089 97.6472H340.54L337.932 101.233H339.562V100.109H340.866V101.225H341.836L341.812 102.358Z" fill="#263238"/>
<path d="M342.219 100.63C342.219 98.666 343.311 97.5413 344.778 97.5413C346.245 97.5413 347.337 98.666 347.337 100.63C347.337 102.595 346.253 103.719 344.778 103.719C343.303 103.719 342.219 102.603 342.219 100.63ZM345.944 100.63C345.944 99.2773 345.471 98.7149 344.778 98.7149C344.085 98.7149 343.621 99.2773 343.621 100.63C343.621 101.983 344.093 102.554 344.754 102.554C345.414 102.554 345.944 101.983 345.944 100.63Z" fill="#263238"/>
<path d="M347.909 99.2284C347.937 98.943 348.048 98.6719 348.227 98.448C348.406 98.2241 348.646 98.057 348.919 97.9669C349.191 97.8768 349.484 97.8675 349.761 97.9403C350.038 98.013 350.289 98.1646 350.482 98.3768C350.675 98.5889 350.802 98.8524 350.849 99.1355C350.895 99.4186 350.858 99.709 350.743 99.9716C350.628 100.234 350.439 100.458 350.199 100.615C349.959 100.773 349.679 100.857 349.392 100.859C349.184 100.86 348.979 100.817 348.788 100.733C348.598 100.65 348.427 100.527 348.288 100.374C348.148 100.22 348.042 100.038 347.976 99.8412C347.911 99.644 347.888 99.4352 347.909 99.2284ZM350.011 99.2284C350.011 98.5845 349.767 98.2748 349.392 98.2748C349.017 98.2748 348.764 98.5927 348.764 99.2284C348.764 99.8642 349.025 100.174 349.392 100.174C349.759 100.174 350.011 99.8642 350.011 99.2284ZM352.946 97.6472H353.956L349.881 103.613H348.87L352.946 97.6472ZM351.968 102.04C351.994 101.752 352.105 101.478 352.285 101.251C352.465 101.024 352.707 100.855 352.982 100.764C353.256 100.672 353.552 100.663 353.832 100.736C354.112 100.81 354.364 100.963 354.559 101.178C354.753 101.393 354.88 101.659 354.926 101.945C354.971 102.231 354.932 102.524 354.814 102.788C354.696 103.053 354.503 103.277 354.26 103.433C354.016 103.59 353.732 103.672 353.443 103.67C353.236 103.67 353.031 103.627 352.842 103.543C352.652 103.459 352.483 103.336 352.344 103.182C352.205 103.029 352.1 102.848 352.035 102.651C351.97 102.455 351.947 102.246 351.968 102.04ZM354.062 102.04C354.062 101.405 353.818 101.095 353.443 101.095C353.068 101.095 352.815 101.396 352.815 102.04C352.815 102.684 353.076 102.986 353.443 102.986C353.81 102.986 354.062 102.668 354.062 102.04Z" fill="#263238"/>
<path d="M366.63 134.341C366.63 134.479 356.907 134.585 344.901 134.585C332.895 134.585 323.172 134.479 323.172 134.341C323.172 134.202 332.904 134.088 344.901 134.088C356.899 134.088 366.63 134.202 366.63 134.341Z" fill="#263238"/>
<path d="M356.979 138.326C356.979 138.465 351.584 138.579 344.925 138.579C338.266 138.579 332.87 138.465 332.87 138.326C332.87 138.188 338.266 138.082 344.925 138.082C351.584 138.082 356.979 138.196 356.979 138.326Z" fill="#263238"/>
<path d="M378.008 151.432H207.182V207.557H378.008V151.432Z" fill="#FAFAFA" fill-opacity="0.5"/>
<path d="M363.598 164.709C363.598 164.807 334.566 164.889 298.761 164.889C262.956 164.889 233.924 164.807 233.924 164.709C233.924 164.612 262.948 164.53 298.761 164.53C334.574 164.53 363.598 164.612 363.598 164.709Z" fill="#EBEBEB" fill-opacity="0.5"/>
<path d="M363.598 171.352C363.598 171.45 334.566 171.531 298.761 171.531C262.956 171.531 233.924 171.45 233.924 171.352C233.924 171.254 262.948 171.173 298.761 171.173C334.574 171.173 363.598 171.246 363.598 171.352Z" fill="#EBEBEB" fill-opacity="0.5"/>
<path d="M363.598 177.995C363.598 178.093 334.566 178.174 298.761 178.174C262.956 178.174 233.924 178.093 233.924 177.995C233.924 177.897 262.948 177.807 298.761 177.807C334.574 177.807 363.598 177.889 363.598 177.995Z" fill="#EBEBEB" fill-opacity="0.5"/>
<path d="M363.597 184.629C363.597 184.735 334.565 184.809 298.76 184.809C262.955 184.809 233.906 184.735 233.906 184.629C233.906 184.523 262.93 184.45 298.743 184.45C334.557 184.45 363.597 184.531 363.597 184.629Z" fill="#EBEBEB" fill-opacity="0.5"/>
<path d="M363.597 191.272C363.597 191.37 334.565 191.451 298.76 191.451C262.955 191.451 233.906 191.394 233.906 191.272C233.906 191.15 262.93 191.093 298.743 191.093C334.557 191.093 363.597 191.174 363.597 191.272Z" fill="#EBEBEB" fill-opacity="0.5"/>
<path d="M352.31 183.537C352.31 183.537 352.22 183.643 352.025 183.83C351.698 184.093 351.328 184.297 350.932 184.434C350.136 184.651 349.302 184.696 348.487 184.565C347.672 184.434 346.894 184.131 346.205 183.676C345.294 183.03 344.532 182.196 343.972 181.23C343.352 180.228 342.863 179.062 342.277 177.848C341.686 176.508 340.823 175.306 339.742 174.319C339.101 173.772 338.346 173.374 337.533 173.153C336.65 172.921 335.728 172.876 334.827 173.023C332.923 173.342 331.137 174.161 329.651 175.395C328.103 176.609 326.75 178.092 325.087 179.47C323.328 180.992 321.136 181.924 318.819 182.135C317.573 182.222 316.328 181.938 315.241 181.32C314.227 180.689 313.371 179.832 312.739 178.818C311.451 176.894 310.799 174.645 309.12 172.884C308.296 171.945 307.199 171.287 305.982 171.002C305.348 170.88 304.696 170.885 304.064 171.016C303.431 171.148 302.831 171.403 302.298 171.768C301.256 172.477 300.414 173.442 299.853 174.571C299.336 175.688 298.95 176.862 298.704 178.068C298.445 179.311 298.065 180.526 297.571 181.695C297.006 182.947 296.114 184.023 294.987 184.809C293.804 185.649 292.457 186.232 291.034 186.52C289.599 186.834 288.116 186.85 286.674 186.569C285.292 186.292 283.98 185.737 282.819 184.939C281.678 184.205 280.651 183.39 279.559 182.657C278.506 181.893 277.316 181.34 276.054 181.027C274.792 180.746 273.472 180.895 272.305 181.45C271.221 181.992 270.267 182.763 269.509 183.708C268.799 184.614 268.164 185.576 267.61 186.585C267.063 187.581 266.439 188.532 265.743 189.43C265.012 190.349 264.096 191.104 263.054 191.647C261.979 192.226 260.756 192.473 259.541 192.356C258.389 192.217 257.316 191.698 256.493 190.881C255.755 190.166 255.18 189.302 254.806 188.346C254.476 187.464 254.22 186.556 254.039 185.632C253.664 183.855 253.298 182.119 252.238 180.741C251.76 180.036 251.145 179.434 250.43 178.972C249.714 178.51 248.913 178.197 248.073 178.052C247.249 177.944 246.411 178.034 245.628 178.313C244.928 178.566 244.277 178.938 243.705 179.413C241.512 181.23 240.444 183.423 238.814 184.694C237.629 185.815 236.089 186.486 234.462 186.593C234.031 186.593 233.602 186.527 233.19 186.398L232.791 186.243C233.315 186.424 233.866 186.518 234.421 186.52C236.015 186.385 237.514 185.706 238.668 184.597C240.249 183.333 241.259 181.141 243.484 179.266C244.08 178.77 244.755 178.379 245.481 178.109C246.29 177.819 247.155 177.722 248.008 177.824C248.888 177.968 249.73 178.289 250.484 178.766C251.237 179.244 251.886 179.869 252.393 180.603C252.921 181.317 253.328 182.113 253.599 182.958C253.863 183.822 254.084 184.697 254.259 185.583C254.438 186.494 254.694 187.389 255.026 188.256C255.39 189.177 255.946 190.01 256.656 190.701C257.428 191.457 258.428 191.938 259.5 192.071C260.631 192.167 261.764 191.929 262.76 191.386C263.756 190.865 264.631 190.14 265.328 189.259C266.012 188.371 266.625 187.431 267.162 186.447C267.722 185.423 268.366 184.448 269.085 183.529C269.876 182.537 270.875 181.73 272.011 181.165C273.266 180.563 274.687 180.399 276.046 180.701C277.364 181.035 278.606 181.619 279.705 182.42C280.806 183.162 281.833 183.977 282.965 184.694C284.08 185.465 285.338 186.003 286.666 186.276C288.046 186.545 289.466 186.528 290.839 186.227C292.203 185.956 293.494 185.4 294.629 184.597C295.17 184.211 295.66 183.759 296.088 183.252C296.485 182.752 296.819 182.204 297.082 181.622C297.574 180.472 297.951 179.276 298.207 178.052C298.458 176.823 298.852 175.628 299.381 174.49C299.969 173.312 300.846 172.302 301.932 171.556C302.516 171.162 303.173 170.887 303.864 170.747C304.555 170.608 305.266 170.605 305.958 170.741C307.261 171.043 308.436 171.747 309.316 172.754C311.052 174.596 311.704 176.829 312.959 178.736C313.562 179.702 314.372 180.52 315.331 181.133C316.346 181.728 317.514 182.011 318.689 181.948C320.923 181.742 323.037 180.844 324.737 179.38C326.367 178.06 327.744 176.568 329.317 175.346C330.852 174.073 332.697 173.229 334.664 172.901C335.612 172.756 336.58 172.806 337.509 173.047C338.354 173.289 339.137 173.709 339.807 174.278C340.907 175.291 341.782 176.524 342.374 177.897C342.861 179.051 343.405 180.18 344.004 181.279C344.54 182.226 345.274 183.047 346.156 183.684C346.823 184.137 347.578 184.444 348.371 184.585C349.165 184.725 349.98 184.696 350.761 184.499C351.352 184.318 351.886 183.987 352.31 183.537Z" fill="#455A64"/>
<path d="M360.509 181.989C360.509 181.989 360.362 181.989 360.061 181.989C359.875 181.979 359.69 181.957 359.507 181.923C359.263 181.866 359.023 181.792 358.789 181.703C357.327 181.029 356.014 180.07 354.926 178.883C354.567 178.516 354.192 178.125 353.817 177.71C353.449 177.255 353.048 176.828 352.619 176.43C351.533 175.547 350.201 175.021 348.805 174.922C348.019 174.857 347.228 174.942 346.474 175.175C345.71 175.437 345.006 175.85 344.404 176.389C343.188 177.595 342.048 178.875 340.989 180.22C340.352 180.938 339.613 181.559 338.796 182.062C337.883 182.595 336.865 182.925 335.813 183.032C333.566 183.165 331.317 182.801 329.227 181.964C327.076 181.19 325.022 180.122 322.707 179.437C321.54 179.067 320.328 178.856 319.105 178.81C317.858 178.783 316.62 179.016 315.469 179.494C313.155 180.456 311.345 182.217 309.161 183.643C308.039 184.404 306.808 184.989 305.51 185.379C304.152 185.782 302.744 185.993 301.328 186.007C298.433 186.055 295.572 185.368 293.015 184.01C290.539 182.685 288.387 180.829 286.715 178.573C285.027 176.381 284.098 173.887 282.876 171.613C282.286 170.459 281.537 169.395 280.651 168.451C279.727 167.5 278.617 166.751 277.39 166.25C276.138 165.728 274.756 165.601 273.429 165.883C272.189 166.191 271.059 166.84 270.169 167.758C269.328 168.612 268.659 169.619 268.197 170.725C267.773 171.783 267.432 172.873 267.178 173.985C266.909 175.085 266.664 176.185 266.322 177.245C265.981 178.313 265.507 179.335 264.912 180.285C263.705 182.182 262.076 183.775 260.152 184.939C258.266 186.111 256.146 186.857 253.941 187.123C251.861 187.352 249.757 187.141 247.763 186.504C244.006 185.33 241.349 182.804 240.363 180.212C239.849 178.916 239.588 177.677 239.222 176.568C238.929 175.527 238.427 174.556 237.746 173.716C237.212 173.108 236.552 172.623 235.811 172.295C235.071 171.967 234.269 171.804 233.459 171.817C232.882 171.85 232.321 172.026 231.829 172.33C232.298 171.969 232.868 171.764 233.459 171.743C234.289 171.715 235.115 171.87 235.879 172.196C236.642 172.523 237.324 173.014 237.877 173.634C238.583 174.48 239.108 175.462 239.417 176.52C239.8 177.636 240.069 178.875 240.591 180.138C241.577 182.673 244.185 185.135 247.869 186.268C249.807 186.876 251.85 187.073 253.868 186.846C256.015 186.577 258.078 185.846 259.916 184.703C261.791 183.554 263.378 181.989 264.553 180.13C265.651 178.206 266.401 176.104 266.77 173.92C267.023 172.785 267.366 171.673 267.797 170.594C268.276 169.453 268.968 168.413 269.835 167.53C270.802 166.504 272.06 165.798 273.439 165.507C274.818 165.216 276.254 165.353 277.553 165.899C278.843 166.418 280.011 167.198 280.985 168.19C281.899 169.164 282.673 170.261 283.283 171.45C284.522 173.765 285.435 176.218 287.089 178.37C288.73 180.578 290.837 182.398 293.259 183.7C295.749 185.017 298.529 185.686 301.345 185.648C302.724 185.628 304.094 185.425 305.42 185.045C306.677 184.661 307.871 184.095 308.965 183.366C311.109 181.964 312.935 180.187 315.347 179.193C316.551 178.688 317.848 178.443 319.153 178.476C320.413 178.527 321.66 178.746 322.862 179.128C325.217 179.829 327.288 180.913 329.382 181.679C331.416 182.502 333.606 182.867 335.797 182.747C336.802 182.65 337.775 182.339 338.649 181.834C339.445 181.351 340.163 180.749 340.777 180.049C341.855 178.705 343.012 177.426 344.241 176.218C344.874 175.657 345.614 175.23 346.417 174.963C347.208 174.722 348.038 174.636 348.862 174.71C350.304 174.821 351.677 175.376 352.791 176.299C353.221 176.707 353.624 177.143 353.997 177.604C354.364 178.027 354.73 178.419 355.081 178.777C356.139 179.965 357.421 180.932 358.854 181.622C359.371 181.868 359.937 181.993 360.509 181.989Z" fill="#FFBD00"/>
<path d="M225.024 165.036C224.471 165.22 223.884 165.284 223.304 165.223C222.727 165.285 222.143 165.221 221.593 165.036C222.145 164.86 222.728 164.799 223.304 164.856C223.884 164.8 224.469 164.861 225.024 165.036Z" fill="#E0E0E0" fill-opacity="0.5"/>
<path d="M225.024 171.352C224.469 171.527 223.884 171.588 223.304 171.531C222.728 171.589 222.145 171.528 221.593 171.352C222.144 171.171 222.728 171.11 223.304 171.173C223.884 171.111 224.47 171.172 225.024 171.352Z" fill="#E0E0E0" fill-opacity="0.5"/>
<path d="M225.024 177.661C224.469 177.836 223.884 177.897 223.304 177.84C222.728 177.897 222.145 177.836 221.593 177.661C222.145 177.485 222.728 177.424 223.304 177.481C223.884 177.425 224.469 177.486 225.024 177.661Z" fill="#E0E0E0" fill-opacity="0.5"/>
<path d="M225.024 183.969C224.471 184.154 223.884 184.218 223.304 184.156C222.727 184.218 222.143 184.154 221.593 183.969C222.145 183.793 222.728 183.732 223.304 183.79C223.884 183.733 224.469 183.794 225.024 183.969Z" fill="#E0E0E0" fill-opacity="0.5"/>
<path d="M225.024 190.286C224.469 190.461 223.884 190.522 223.304 190.465C222.728 190.522 222.145 190.461 221.593 190.286C222.143 190.101 222.727 190.037 223.304 190.098C223.884 190.037 224.471 190.101 225.024 190.286Z" fill="#E0E0E0" fill-opacity="0.5"/>
<path d="M240.778 198.395C238.5 198.635 236.202 198.635 233.924 198.395C236.202 198.156 238.5 198.156 240.778 198.395Z" fill="#E0E0E0" fill-opacity="0.5"/>
<path d="M271.017 198.395C268.738 198.635 266.441 198.635 264.162 198.395C266.441 198.156 268.738 198.156 271.017 198.395Z" fill="#E0E0E0" fill-opacity="0.5"/>
<path d="M301.255 198.395C298.974 198.634 296.674 198.634 294.393 198.395C296.674 198.156 298.974 198.156 301.255 198.395Z" fill="#E0E0E0" fill-opacity="0.5"/>
<path d="M331.494 198.395C329.212 198.634 326.912 198.634 324.631 198.395C326.912 198.156 329.212 198.156 331.494 198.395Z" fill="#E0E0E0" fill-opacity="0.5"/>
<path d="M361.725 198.395C359.446 198.635 357.149 198.635 354.87 198.395C357.149 198.156 359.446 198.156 361.725 198.395Z" fill="#E0E0E0" fill-opacity="0.5"/>
<g filter="url(#filter0_d_2302_11)">
<path d="M401.407 115.44C401.407 115.44 422.998 116.41 425.32 135.262C427.643 154.114 409.435 153.429 404.129 153.486C401.741 153.486 396.981 153.486 392.49 153.486C382.954 153.437 375.374 149.859 373.483 140.511C373.26 139.416 373.143 138.302 373.133 137.185C373.108 127.005 380.721 113.769 401.407 115.44Z" fill="#FFBD00"/>
<path d="M381.348 137.471L408.961 139.427C409.651 139.475 410.344 139.388 411 139.168C411.656 138.948 412.263 138.602 412.784 138.147C413.306 137.693 413.733 137.14 414.041 136.521C414.348 135.901 414.531 135.227 414.577 134.536C414.626 133.846 414.538 133.153 414.318 132.497C414.099 131.841 413.752 131.235 413.298 130.713C412.843 130.192 412.29 129.765 411.671 129.457C411.051 129.15 410.377 128.967 409.687 128.921L382.089 127.005C381.4 126.957 380.707 127.045 380.052 127.264C379.396 127.484 378.79 127.831 378.269 128.285C377.748 128.74 377.322 129.293 377.015 129.912C376.709 130.532 376.527 131.206 376.482 131.896C376.392 133.279 376.854 134.642 377.765 135.686C378.677 136.731 379.965 137.372 381.348 137.471Z" fill="#263238"/>
<path d="M402.882 134.52C402.928 134.85 403.072 135.159 403.294 135.408C403.515 135.657 403.806 135.834 404.129 135.918C404.451 136.001 404.792 135.988 405.107 135.878C405.421 135.769 405.697 135.568 405.898 135.302C406.099 135.037 406.217 134.717 406.237 134.384C406.256 134.052 406.177 133.72 406.009 133.433C405.84 133.145 405.59 132.914 405.291 132.768C404.991 132.622 404.655 132.568 404.324 132.613C404.104 132.643 403.892 132.716 403.7 132.828C403.509 132.941 403.341 133.09 403.207 133.267C403.073 133.444 402.975 133.646 402.919 133.861C402.863 134.076 402.851 134.3 402.882 134.52Z" fill="white"/>
<path d="M383.589 133.143C383.634 133.473 383.776 133.783 383.997 134.033C384.218 134.283 384.508 134.462 384.831 134.547C385.154 134.632 385.495 134.619 385.81 134.51C386.126 134.401 386.402 134.202 386.604 133.936C386.806 133.67 386.924 133.35 386.944 133.017C386.965 132.684 386.886 132.352 386.717 132.064C386.549 131.776 386.299 131.544 385.999 131.398C385.699 131.252 385.362 131.198 385.031 131.244C384.588 131.304 384.187 131.539 383.917 131.895C383.646 132.251 383.528 132.7 383.589 133.143Z" fill="white"/>
<path d="M394.593 126.516C394.849 125.857 395.061 125.182 395.228 124.495C395.689 122.866 396.366 121.306 397.242 119.857C398.086 118.399 399.301 117.19 400.763 116.353C401.394 116.04 402.045 115.767 402.711 115.538C402.518 115.528 402.325 115.55 402.14 115.603C401.628 115.718 401.13 115.89 400.657 116.116C399.109 116.919 397.825 118.15 396.956 119.662C396.061 121.131 395.401 122.732 395 124.405C394.845 125.041 394.739 125.563 394.666 125.921C394.617 126.116 394.592 126.316 394.593 126.516Z" fill="white"/>
<path d="M397.665 153.495C397.665 153.454 397.013 152.957 396.125 151.954C394.972 150.632 394.128 149.07 393.655 147.382C393.206 145.687 392.976 143.943 392.97 142.19C393.015 141.46 393.015 140.727 392.97 139.997C392.909 140.187 392.876 140.385 392.873 140.584C392.832 140.959 392.783 141.505 392.742 142.214C392.672 143.997 392.872 145.781 393.337 147.504C393.839 149.228 394.751 150.805 395.994 152.101C396.371 152.49 396.777 152.85 397.209 153.177C397.47 153.405 397.649 153.519 397.665 153.495Z" fill="white"/>
<g opacity="0.3">
<path d="M378.404 149.215C380.654 147.659 382.365 147.716 385.218 147.178C388.081 146.694 390.979 146.446 393.882 146.436C400.574 146.289 407.485 146.558 413.248 148.881C414.781 149.396 416.131 150.344 417.135 151.612C417.135 151.612 414.364 153.119 408.667 153.348C403.223 153.56 391.82 153.437 391.82 153.437C388.575 153.404 385.364 152.783 382.341 151.603C378.73 150.071 378.404 149.215 378.404 149.215Z" fill="black"/>
</g>
<path d="M374.778 131.553C374.703 131.882 374.668 132.219 374.672 132.556C374.66 133.527 374.884 134.486 375.324 135.352C376.035 136.731 377.214 137.812 378.65 138.4C380.55 139.097 382.552 139.477 384.575 139.525L400.216 140.731L404.731 141.081C406.272 141.179 407.845 141.367 409.467 141.35C411.153 141.41 412.808 140.886 414.153 139.867C415.482 138.737 416.336 137.148 416.543 135.416C416.75 133.684 416.295 131.938 415.27 130.526C414.263 129.166 412.828 128.184 411.195 127.739C410.411 127.551 409.612 127.436 408.807 127.397L406.476 127.185L401.96 126.769L393.655 126.003C391.03 125.815 388.618 125.424 386.376 125.286C385.313 125.216 384.245 125.216 383.181 125.286C382.228 125.343 381.285 125.509 380.37 125.783C378.89 126.206 377.544 127 376.457 128.089C375.795 128.785 375.296 129.621 374.998 130.535C374.923 130.772 374.865 131.014 374.827 131.26C374.82 131.344 374.82 131.429 374.827 131.513C374.827 131.513 374.884 131.17 375.096 130.551C375.408 129.649 375.918 128.827 376.588 128.147C377.668 127.094 378.997 126.332 380.451 125.93C381.356 125.666 382.289 125.513 383.23 125.473C384.286 125.4 385.345 125.4 386.401 125.473C388.618 125.62 391.039 126.027 393.655 126.231L402.001 127.046L406.516 127.478L408.847 127.698C409.633 127.735 410.414 127.847 411.178 128.032C412.733 128.463 414.097 129.405 415.05 130.706C416.028 132.045 416.459 133.706 416.256 135.352C416.057 136.995 415.248 138.505 413.99 139.582C412.705 140.558 411.121 141.059 409.508 141C407.926 141 406.345 140.829 404.805 140.731L400.281 140.405L384.64 139.264C382.64 139.231 380.658 138.873 378.772 138.204C377.375 137.638 376.222 136.6 375.512 135.27C375.071 134.423 374.831 133.486 374.811 132.531C374.784 132.206 374.773 131.88 374.778 131.553Z" fill="white"/>
<path d="M425.442 138.416C425.099 138.107 424.711 137.852 424.292 137.658C423.318 137.13 422.297 136.691 421.244 136.346C420.183 135.993 419.092 135.742 417.984 135.596C417.531 135.502 417.067 135.475 416.606 135.514C416.606 135.62 418.677 135.857 421.106 136.664C423.534 137.471 425.442 138.506 425.442 138.416Z" fill="white"/>
<path d="M400.395 118.268C400.354 118.246 400.308 118.234 400.262 118.235C400.215 118.236 400.17 118.249 400.129 118.273C400.089 118.297 400.056 118.331 400.033 118.371C400.01 118.412 399.998 118.458 399.998 118.504C399.998 118.551 400.01 118.597 400.033 118.637C400.056 118.678 400.089 118.712 400.129 118.735C400.17 118.759 400.215 118.772 400.262 118.773C400.308 118.774 400.354 118.763 400.395 118.741C400.432 118.715 400.463 118.681 400.483 118.641C400.504 118.602 400.515 118.557 400.515 118.512C400.515 118.468 400.504 118.423 400.483 118.384C400.463 118.344 400.432 118.31 400.395 118.284" fill="white"/>
<path d="M397.729 123.607C397.688 123.591 397.643 123.585 397.599 123.591C397.556 123.596 397.513 123.611 397.477 123.636C397.44 123.661 397.41 123.694 397.388 123.733C397.367 123.772 397.356 123.815 397.354 123.859C397.356 123.906 397.37 123.952 397.395 123.992C397.42 124.032 397.455 124.065 397.496 124.087C397.537 124.109 397.584 124.12 397.631 124.119C397.678 124.117 397.724 124.104 397.764 124.079C397.804 124.055 397.837 124.02 397.859 123.979C397.882 123.938 397.893 123.891 397.892 123.844C397.891 123.797 397.878 123.751 397.854 123.711C397.829 123.671 397.795 123.638 397.754 123.615" fill="white"/>
<path d="M419.803 134.431C419.761 134.415 419.715 134.409 419.671 134.415C419.626 134.42 419.583 134.437 419.547 134.462C419.51 134.488 419.48 134.522 419.459 134.562C419.438 134.602 419.427 134.646 419.428 134.691C419.429 134.738 419.443 134.784 419.468 134.824C419.493 134.864 419.528 134.897 419.569 134.919C419.611 134.941 419.657 134.952 419.704 134.951C419.751 134.95 419.797 134.936 419.837 134.911C419.877 134.887 419.91 134.852 419.933 134.811C419.955 134.77 419.966 134.723 419.965 134.676C419.964 134.629 419.951 134.583 419.927 134.543C419.903 134.503 419.868 134.47 419.827 134.447" fill="white"/>
<path d="M424.284 136.085C424.243 136.068 424.197 136.061 424.152 136.065C424.107 136.07 424.064 136.085 424.026 136.11C423.988 136.135 423.957 136.169 423.935 136.208C423.914 136.248 423.902 136.292 423.901 136.338C423.903 136.385 423.917 136.43 423.942 136.47C423.967 136.51 424.001 136.543 424.043 136.565C424.084 136.587 424.131 136.599 424.178 136.597C424.225 136.596 424.271 136.582 424.311 136.558C424.351 136.533 424.384 136.499 424.406 136.457C424.429 136.416 424.44 136.37 424.439 136.323C424.438 136.276 424.425 136.23 424.401 136.189C424.376 136.149 424.342 136.116 424.301 136.093" fill="white"/>
<g opacity="0.3">
<path d="M395.766 116.54C395.766 116.785 397.714 117.062 400.835 117.6C404.866 118.197 408.781 119.412 412.441 121.202C414.389 122.24 416.172 123.561 417.731 125.123C418.999 126.401 420.075 127.856 420.926 129.442C422.369 132.181 422.556 134.186 422.809 134.153C422.907 134.153 422.996 133.64 422.939 132.719C422.832 131.416 422.516 130.139 422.002 128.937C421.237 127.139 420.171 125.485 418.848 124.047C417.234 122.291 415.332 120.824 413.224 119.711C411.134 118.618 408.912 117.796 406.614 117.266C404.764 116.838 402.884 116.552 400.99 116.41C397.771 116.182 395.782 116.32 395.766 116.54Z" fill="white"/>
</g>
<g opacity="0.3">
<path d="M420.292 143.942C420.618 144.26 421.767 143.592 422.484 142.214C423.201 140.837 423.087 139.524 422.639 139.443C422.191 139.361 421.596 140.299 421.009 141.44C420.422 142.581 419.958 143.616 420.292 143.942Z" fill="white"/>
</g>
<path d="M391.007 133.526C390.91 134.009 390.985 134.51 391.219 134.944C391.453 135.493 391.834 135.968 392.32 136.316C392.806 136.664 393.378 136.871 393.974 136.916C394.569 136.975 395.17 136.868 395.709 136.608C396.248 136.347 396.705 135.944 397.03 135.441C397.332 135.055 397.493 134.578 397.486 134.088C397.311 134.515 397.095 134.924 396.842 135.311C396.54 135.698 396.16 136.017 395.726 136.248C395.195 136.517 394.599 136.632 394.006 136.582C393.415 136.529 392.85 136.312 392.376 135.954C391.99 135.653 391.673 135.272 391.447 134.838C391.256 134.417 391.108 133.977 391.007 133.526Z" fill="white"/>
<path d="M374.436 160.194C373.181 160.651 374.616 179.217 375.586 188.68C376.107 193.75 376.873 199.015 379.783 203.204C383.043 207.866 388.749 209.937 394.454 210.54C402.319 211.355 408.481 207.654 412.051 201.403C415.526 195.378 417.796 188.734 418.734 181.842C419.729 174.034 420.364 168.948 420.185 162.118C420.152 162.15 397.274 151.881 374.436 160.194Z" fill="#FFBD00"/>
<path d="M405.921 197.695C405.881 197.676 405.837 197.668 405.793 197.67C405.748 197.672 405.705 197.685 405.667 197.707C405.628 197.73 405.596 197.761 405.572 197.798C405.548 197.836 405.534 197.879 405.53 197.923C405.533 197.968 405.547 198.011 405.57 198.05C405.593 198.088 405.625 198.121 405.664 198.145C405.702 198.169 405.745 198.183 405.79 198.187C405.835 198.191 405.88 198.184 405.921 198.167C405.958 198.141 405.989 198.106 406.009 198.066C406.03 198.025 406.041 197.981 406.041 197.935C406.041 197.89 406.03 197.845 406.009 197.804C405.989 197.764 405.958 197.729 405.921 197.703" fill="white"/>
<path d="M397.665 197.972C397.624 197.953 397.58 197.945 397.536 197.947C397.491 197.949 397.448 197.962 397.41 197.984C397.372 198.007 397.339 198.038 397.315 198.076C397.292 198.113 397.277 198.156 397.273 198.2C397.277 198.245 397.29 198.288 397.314 198.327C397.337 198.365 397.369 198.398 397.407 198.422C397.445 198.446 397.488 198.46 397.533 198.464C397.578 198.468 397.623 198.461 397.665 198.444C397.702 198.418 397.732 198.383 397.753 198.343C397.773 198.302 397.784 198.258 397.784 198.212C397.784 198.167 397.773 198.122 397.753 198.082C397.732 198.041 397.702 198.006 397.665 197.98" fill="white"/>
<path d="M388.055 190.131C388.014 190.109 387.968 190.098 387.921 190.098C387.874 190.099 387.829 190.112 387.789 190.136C387.749 190.16 387.715 190.194 387.692 190.234C387.669 190.275 387.657 190.321 387.657 190.367C387.657 190.414 387.669 190.46 387.692 190.5C387.715 190.541 387.749 190.575 387.789 190.599C387.829 190.622 387.874 190.635 387.921 190.636C387.968 190.637 388.014 190.626 388.055 190.604C388.092 190.577 388.122 190.542 388.143 190.502C388.163 190.462 388.174 190.417 388.174 190.371C388.174 190.326 388.163 190.281 388.143 190.241C388.122 190.2 388.092 190.166 388.055 190.139" fill="white"/>
<path d="M390.655 168.842C390.614 168.82 390.568 168.808 390.522 168.809C390.475 168.81 390.429 168.823 390.389 168.847C390.349 168.871 390.316 168.905 390.293 168.945C390.27 168.986 390.258 169.032 390.258 169.078C390.258 169.125 390.27 169.171 390.293 169.211C390.316 169.252 390.349 169.285 390.389 169.309C390.429 169.333 390.475 169.346 390.522 169.347C390.568 169.348 390.614 169.337 390.655 169.315C390.692 169.288 390.722 169.253 390.743 169.213C390.764 169.172 390.775 169.128 390.775 169.082C390.775 169.037 390.764 168.992 390.743 168.952C390.722 168.911 390.692 168.876 390.655 168.85" fill="white"/>
<path d="M382.472 172.893C382.431 172.876 382.387 172.869 382.342 172.872C382.298 172.876 382.255 172.89 382.217 172.913C382.179 172.936 382.147 172.967 382.124 173.005C382.1 173.042 382.085 173.085 382.081 173.129C382.084 173.174 382.097 173.217 382.12 173.256C382.144 173.295 382.176 173.327 382.214 173.35C382.253 173.373 382.297 173.387 382.341 173.39C382.386 173.392 382.431 173.384 382.472 173.365C382.509 173.34 382.54 173.306 382.56 173.266C382.581 173.226 382.592 173.182 382.592 173.137C382.592 173.092 382.581 173.048 382.56 173.008C382.54 172.968 382.509 172.934 382.472 172.909" fill="white"/>
<path d="M415.075 194.581C415.034 194.563 414.99 194.555 414.945 194.557C414.9 194.559 414.857 194.572 414.818 194.594C414.779 194.616 414.746 194.647 414.721 194.685C414.696 194.722 414.681 194.765 414.676 194.809C414.68 194.854 414.695 194.898 414.719 194.936C414.743 194.975 414.776 195.007 414.815 195.031C414.853 195.055 414.897 195.069 414.942 195.073C414.987 195.077 415.033 195.07 415.075 195.054C415.112 195.027 415.142 194.993 415.163 194.952C415.184 194.912 415.195 194.867 415.195 194.821C415.195 194.776 415.184 194.731 415.163 194.691C415.142 194.65 415.112 194.616 415.075 194.589" fill="white"/>
<path d="M415.922 187.498C415.882 187.48 415.838 187.471 415.794 187.474C415.749 187.476 415.706 187.489 415.668 187.511C415.629 187.533 415.597 187.565 415.573 187.602C415.549 187.64 415.535 187.682 415.531 187.727C415.534 187.771 415.548 187.815 415.571 187.853C415.594 187.892 415.626 187.925 415.665 187.948C415.703 187.972 415.746 187.987 415.791 187.991C415.836 187.995 415.881 187.988 415.922 187.971C415.959 187.945 415.99 187.91 416.01 187.869C416.031 187.829 416.042 187.784 416.042 187.739C416.042 187.693 416.031 187.649 416.01 187.608C415.99 187.568 415.959 187.533 415.922 187.506" fill="white"/>
<path d="M416.06 181.125C416.018 181.106 415.973 181.098 415.927 181.101C415.882 181.104 415.838 181.117 415.799 181.14C415.76 181.163 415.727 181.195 415.703 181.234C415.679 181.272 415.664 181.316 415.66 181.361C415.659 181.408 415.671 181.454 415.693 181.495C415.715 181.536 415.748 181.571 415.788 181.595C415.828 181.62 415.874 181.634 415.92 181.635C415.967 181.637 416.014 181.626 416.055 181.604C416.096 181.582 416.131 181.55 416.156 181.51C416.181 181.471 416.196 181.425 416.198 181.378C416.2 181.332 416.19 181.285 416.168 181.243C416.147 181.202 416.115 181.166 416.076 181.141" fill="white"/>
<path d="M416.166 174.36C416.125 174.341 416.079 174.333 416.034 174.336C415.989 174.339 415.945 174.352 415.906 174.375C415.866 174.398 415.834 174.43 415.809 174.469C415.785 174.507 415.771 174.551 415.767 174.596C415.766 174.643 415.777 174.689 415.799 174.73C415.822 174.771 415.855 174.806 415.895 174.83C415.934 174.855 415.98 174.869 416.027 174.87C416.074 174.872 416.12 174.861 416.161 174.839C416.203 174.817 416.238 174.785 416.263 174.745C416.288 174.706 416.302 174.66 416.304 174.614C416.306 174.567 416.296 174.52 416.275 174.479C416.253 174.437 416.222 174.402 416.182 174.376" fill="white"/>
<path d="M377.354 171.621C377.314 171.603 377.27 171.594 377.225 171.597C377.181 171.599 377.138 171.612 377.099 171.634C377.061 171.656 377.029 171.688 377.005 171.725C376.981 171.763 376.967 171.805 376.963 171.849C376.962 171.896 376.973 171.943 376.996 171.984C377.018 172.025 377.051 172.059 377.091 172.084C377.131 172.108 377.176 172.122 377.223 172.124C377.27 172.125 377.316 172.114 377.358 172.093C377.399 172.071 377.434 172.038 377.459 171.999C377.484 171.959 377.498 171.914 377.501 171.867C377.503 171.82 377.492 171.774 377.471 171.732C377.45 171.69 377.418 171.655 377.379 171.629" fill="white"/>
<path d="M387.257 198.094C387.216 198.072 387.17 198.061 387.123 198.061C387.076 198.062 387.031 198.075 386.991 198.099C386.951 198.123 386.918 198.157 386.895 198.197C386.872 198.238 386.859 198.284 386.859 198.33C386.859 198.377 386.872 198.423 386.895 198.463C386.918 198.504 386.951 198.538 386.991 198.562C387.031 198.585 387.076 198.598 387.123 198.599C387.17 198.6 387.216 198.589 387.257 198.567C387.295 198.541 387.327 198.505 387.349 198.464C387.371 198.423 387.382 198.377 387.382 198.33C387.382 198.284 387.371 198.238 387.349 198.197C387.327 198.155 387.295 198.12 387.257 198.094Z" fill="white"/>
<path d="M386.842 204.794C386.801 204.771 386.755 204.76 386.708 204.761C386.661 204.762 386.616 204.775 386.576 204.799C386.536 204.823 386.503 204.856 386.48 204.897C386.456 204.938 386.444 204.983 386.444 205.03C386.444 205.077 386.456 205.122 386.48 205.163C386.503 205.203 386.536 205.237 386.576 205.261C386.616 205.285 386.661 205.298 386.708 205.299C386.755 205.3 386.801 205.289 386.842 205.266C386.879 205.24 386.909 205.205 386.93 205.165C386.95 205.124 386.961 205.079 386.961 205.034C386.961 204.989 386.95 204.944 386.93 204.903C386.909 204.863 386.879 204.828 386.842 204.802" fill="white"/>
<path d="M407.299 205.959C407.419 205.869 407.531 205.768 407.633 205.658C407.837 205.454 408.138 205.144 408.497 204.72C409.547 203.536 410.376 202.172 410.942 200.694C411.292 199.667 411.565 198.616 411.757 197.548C412.01 196.407 412.246 195.184 412.499 193.897C412.988 191.321 413.436 188.468 413.811 185.469C414.444 180.331 414.779 175.16 414.814 169.983C414.814 168.002 414.814 166.397 414.748 165.288C414.748 164.759 414.748 164.335 414.691 164.009C414.691 163.861 414.675 163.713 414.642 163.569C414.632 163.715 414.632 163.862 414.642 164.009V165.313C414.642 166.421 414.642 168.027 414.642 170.008C414.534 175.166 414.167 180.315 413.542 185.436C413.167 188.428 412.727 191.272 412.254 193.848C412.018 195.135 411.79 196.358 411.545 197.499C411.358 198.56 411.086 199.604 410.73 200.621C410.198 202.085 409.418 203.447 408.424 204.647C408.081 205.079 407.796 205.397 407.609 205.617C407.493 205.72 407.389 205.834 407.299 205.959Z" fill="white"/>
<path d="M390.875 186.618C390.786 186.618 390.468 191.769 390.166 198.135C389.864 204.5 389.701 209.668 389.791 209.668C389.881 209.668 390.199 204.517 390.5 198.151C390.802 191.786 390.965 186.618 390.875 186.618Z" fill="white"/>
<path d="M398.422 157.162C398.259 157.305 398.116 157.47 397.998 157.651C397.745 157.985 397.379 158.466 396.938 159.069C396.058 160.276 394.852 161.955 393.548 163.813L393.059 164.506L393.002 164.595C392.968 164.621 392.944 164.659 392.937 164.701C392.933 164.75 392.933 164.799 392.937 164.848V164.954C392.929 165.092 392.929 165.231 392.937 165.37C392.937 165.916 392.937 166.437 392.937 166.926C392.937 167.921 393.002 168.809 393.043 169.551C393.083 170.293 393.124 170.904 393.157 171.32C393.16 171.537 393.19 171.753 393.246 171.963C393.302 171.149 393.302 170.332 393.246 169.518C393.246 168.744 393.246 167.888 393.206 166.902C393.206 166.405 393.206 165.891 393.206 165.362C393.206 165.231 393.206 165.093 393.206 164.97V164.872C393.209 164.856 393.209 164.84 393.206 164.824C393.206 164.824 393.287 164.734 393.312 164.677L393.792 163.984C395.105 162.118 396.238 160.422 397.11 159.183C397.525 158.564 397.859 158.059 398.08 157.708C398.22 157.544 398.336 157.36 398.422 157.162Z" fill="white"/>
<path d="M391.007 196.342C391.275 196.399 391.548 196.435 391.822 196.448C392.344 196.497 393.11 196.545 394.055 196.594C395.938 196.692 398.554 196.749 401.439 196.684C404.325 196.619 406.933 196.448 408.816 196.268C409.753 196.179 410.519 196.089 411.041 196.016C411.316 195.997 411.589 195.95 411.856 195.877C411.585 195.849 411.312 195.849 411.041 195.877L408.816 196.024C406.933 196.138 404.325 196.277 401.48 196.342C398.636 196.407 395.995 196.382 394.145 196.342H391.903C391.606 196.305 391.305 196.305 391.007 196.342Z" fill="white"/>
<path d="M374.322 172.648C374.322 172.648 374.477 172.77 374.779 172.933C375.216 173.161 375.665 173.365 376.123 173.545C377.63 174.151 379.188 174.623 380.777 174.955C382.365 175.302 383.974 175.539 385.594 175.664C386.262 175.744 386.937 175.758 387.608 175.704C386.951 175.572 386.287 175.48 385.619 175.427C384.388 175.273 382.693 175.028 380.851 174.612C379.277 174.275 377.725 173.839 376.205 173.308C375.048 172.917 374.347 172.599 374.322 172.648Z" fill="white"/>
<path d="M384.967 179.706C385.077 181.191 385.625 182.61 386.541 183.783C387.457 184.957 388.701 185.833 390.114 186.3C391.528 186.767 393.049 186.805 394.484 186.408C395.919 186.011 397.204 185.198 398.177 184.071C399.15 182.945 399.767 181.555 399.951 180.077C400.134 178.6 399.876 177.101 399.208 175.77C398.54 174.44 397.493 173.337 396.198 172.601C394.904 171.866 393.421 171.53 391.936 171.637C390.948 171.709 389.984 171.974 389.099 172.418C388.214 172.863 387.425 173.477 386.778 174.227C386.13 174.976 385.637 175.846 385.327 176.786C385.016 177.726 384.894 178.719 384.967 179.706Z" fill="#263238"/>
<g opacity="0.2">
<path d="M420.153 162.15C420.153 162.15 397.25 151.734 374.437 160.194C374.437 160.194 385.106 168.931 420.153 162.15Z" fill="black"/>
</g>
<path d="M374.436 160.194C374.436 160.194 360.67 149.118 358.249 149.949C355.828 150.78 354.899 152.052 356.016 155.043C357.133 158.034 374.436 174.604 374.436 174.604V160.194Z" fill="#FFBD00"/>
<path d="M374.974 181.361C374.887 181.097 374.838 180.823 374.827 180.546C374.762 180.016 374.689 179.242 374.615 178.28C374.46 176.365 374.322 173.716 374.24 170.79C374.159 167.864 374.159 165.207 374.183 163.291C374.183 162.33 374.183 161.555 374.24 161.017C374.231 160.743 374.261 160.468 374.33 160.202C374.388 160.47 374.416 160.744 374.411 161.017C374.411 161.645 374.452 162.403 374.485 163.283C374.534 165.313 374.599 167.905 374.672 170.774C374.746 173.643 374.852 176.243 374.917 178.264C374.917 179.144 374.974 179.894 374.998 180.53C375.026 180.807 375.017 181.086 374.974 181.361Z" fill="#263238"/>
<g opacity="0.2">
<path d="M411.896 165.932C412.58 173.113 414.985 181.002 417.601 187.735C418.065 185.673 418.416 183.659 418.717 181.874C418.424 179.821 417.087 177.041 416.272 175.142C414.903 172.078 413.545 169.01 412.197 165.94" fill="black"/>
</g>
<path d="M420.152 162.15C420.152 162.15 432.777 187.865 427.886 190.628C420.991 194.548 411.455 163.805 411.455 163.805L415.922 162.916L420.152 162.15Z" fill="#FFBD00"/>
<path d="M421.366 186.618C421.14 186.369 420.944 186.096 420.78 185.803C420.429 185.289 419.965 184.523 419.386 183.553C417.951 181.02 416.677 178.398 415.571 175.704C414.267 172.55 413.265 169.632 412.613 167.497C412.279 166.429 412.034 165.557 411.887 164.954C411.787 164.644 411.719 164.324 411.684 164C411.839 164.287 411.959 164.59 412.042 164.905C412.27 165.582 412.556 166.413 412.898 167.407C413.615 169.51 414.667 172.404 415.963 175.558C417.259 178.712 418.595 181.467 419.647 183.431C420.168 184.409 420.608 185.2 420.918 185.738C421.1 186.013 421.251 186.309 421.366 186.618Z" fill="#263238"/>
</g>
<defs>
<filter id="filter0_d_2302_11" x="351.547" y="115.296" width="81.4658" height="103.355" filterUnits="userSpaceOnUse" color-interpolation-filters="sRGB">
<feFlood flood-opacity="0" result="BackgroundImageFix"/>
<feColorMatrix in="SourceAlpha" type="matrix" values="0 0 0 0 0 0 0 0 0 0 0 0 0 0 0 0 0 0 127 0" result="hardAlpha"/>
<feOffset dy="4"/>
<feGaussianBlur stdDeviation="2"/>
<feComposite in2="hardAlpha" operator="out"/>
<feColorMatrix type="matrix" values="0 0 0 0 0 0 0 0 0 0 0 0 0 0 0 0 0 0 0.25 0"/>
<feBlend mode="normal" in2="BackgroundImageFix" result="effect1_dropShadow_2302_11"/>
<feBlend mode="normal" in="SourceGraphic" in2="effect1_dropShadow_2302_11" result="shape"/>
</filter>
</defs>
</svg>
