<svg width="362" height="180" viewBox="0 0 362 180" fill="none" xmlns="http://www.w3.org/2000/svg">
<path d="M195.4 131.7C188.8 131.7 182.733 130.167 177.2 127.1C171.667 123.967 167.267 119.667 164 114.2C160.8 108.667 159.2 102.433 159.2 95.5C159.2 88.5667 160.8 82.3667 164 76.9C167.267 71.3667 171.667 67.0667 177.2 64C182.733 60.9333 188.8 59.4 195.4 59.4C202.067 59.4 208.133 60.9333 213.6 64C219.133 67.0667 223.5 71.3667 226.7 76.9C229.9 82.3667 231.5 88.5667 231.5 95.5C231.5 102.433 229.9 108.667 226.7 114.2C223.5 119.667 219.133 123.967 213.6 127.1C208.067 130.167 202 131.7 195.4 131.7ZM195.4 113.5C200.4 113.5 204.333 111.867 207.2 108.6C210.133 105.333 211.6 100.967 211.6 95.5C211.6 89.9 210.133 85.5 207.2 82.3C204.333 79.0333 200.4 77.4 195.4 77.4C190.333 77.4 186.367 79.0333 183.5 82.3C180.633 85.5 179.2 89.9 179.2 95.5C179.2 101.033 180.633 105.433 183.5 108.7C186.367 111.9 190.333 113.5 195.4 113.5ZM293.411 60.5V76.1H274.611V131H255.011V76.1H236.411V60.5H293.411ZM356.363 84C356.363 88.2667 355.363 92.1667 353.363 95.7C351.429 99.1667 348.463 101.967 344.463 104.1C340.529 106.167 335.696 107.2 329.963 107.2H320.263V131H300.663V60.5H329.963C335.629 60.5 340.429 61.5 344.363 63.5C348.363 65.5 351.363 68.2667 353.363 71.8C355.363 75.3333 356.363 79.4 356.363 84ZM328.063 91.6C333.596 91.6 336.363 89.0667 336.363 84C336.363 78.8667 333.596 76.3 328.063 76.3H320.263V91.6H328.063Z" fill="#455A64"/>
<ellipse cx="71.5" cy="69.5" rx="71.5" ry="69.5" fill="#FFBD00"/>
<ellipse cx="96" cy="96" rx="88" ry="84" fill="#FFBD00"/>
<path d="M153.4 95.6C153.4 98.6667 153.2 101.733 152.8 104.8H78.6C79 110.933 80.6667 115.533 83.6 118.6C86.6667 121.533 90.5333 123 95.2 123C101.733 123 106.4 120.067 109.2 114.2H151C149.267 121.933 145.867 128.867 140.8 135C135.867 141 129.6 145.733 122 149.2C114.4 152.667 106 154.4 96.8 154.4C85.7333 154.4 75.8667 152.067 67.2 147.4C58.6667 142.733 51.9333 136.067 47 127.4C42.2 118.733 39.8 108.533 39.8 96.8C39.8 85.0667 42.2 74.9333 47 66.4C51.8 57.7333 58.4667 51.0667 67 46.4C75.6667 41.7333 85.6 39.4 96.8 39.4C107.867 39.4 117.667 41.6667 126.2 46.2C134.733 50.7333 141.4 57.2667 146.2 65.8C151 74.2 153.4 84.1333 153.4 95.6ZM113.4 85.8C113.4 81 111.8 77.2667 108.6 74.6C105.4 71.8 101.4 70.4 96.6 70.4C91.8 70.4 87.8667 71.7333 84.8 74.4C81.7333 76.9333 79.7333 80.7333 78.8 85.8H113.4Z" fill="white"/>
</svg>
