<svg width="401" height="270" viewBox="0 0 401 270" fill="none" xmlns="http://www.w3.org/2000/svg">
<path d="M119.736 0L88.808 17.848L88.704 67.88L81.728 71.88L81.8 41.872L66.824 30.544L35.904 48.392L36.04 98.248L8.74399 114.008L1.6 156.456L16.576 167.776L35.496 156.856L35.352 169.832L6.6 186.424L0 225.664L14.976 236.984L35.216 225.296L35.104 258.224L50.096 269.544L81.016 251.696L80.936 198.896L88.136 194.736L88.024 227.664L103 238.984L133.92 221.128L133.848 168.328L164.04 150.888L170.64 111.648L155.696 100.368L134.096 112.832L134.24 99.856L165.64 81.72L172.784 39.272L157.792 27.952L134.472 41.416L134.704 11.312L119.736 0ZM88.4 126.28L88.256 139.264L81.168 143.352L81.32 130.368L88.4 126.28Z" fill="#FFBD00"/>
<path d="M133.904 132.888L134.224 99.856L165.624 81.72L172.768 39.272L134.368 61.448L134.72 11.312L103.784 29.168L103.696 79.16L81.688 91.88L81.8 41.888L50.896 59.712L51.024 109.568L23.696 125.328L16.56 167.776L50.616 148.112L50.304 181.144L21.56 197.744L14.96 236.984L50.224 216.624L50.064 269.544L80.984 251.688L80.904 198.888L103.136 186.088L102.968 239.008L133.888 221.152L133.816 168.352L164.008 150.912L170.608 111.672L133.904 132.888ZM103.224 150.6L81 163.4L81.32 130.368L103.544 117.568L103.224 150.6Z" fill="#FFBD00"/>
<path opacity="0.25" d="M133.904 132.888L134.224 99.856L165.624 81.72L172.768 39.272L134.368 61.448L134.72 11.312L103.784 29.168L103.696 79.16L81.688 91.88L81.8 41.888L50.896 59.712L51.024 109.568L23.696 125.328L16.56 167.776L50.616 148.112L50.304 181.144L21.56 197.744L14.96 236.984L50.224 216.624L50.064 269.544L80.984 251.688L80.904 198.888L103.136 186.088L102.968 239.008L133.888 221.152L133.816 168.352L164.008 150.912L170.608 111.672L133.904 132.888ZM103.224 150.6L81 163.4L81.32 130.368L103.544 117.568L103.224 150.6Z" fill="white"/>
<path opacity="0.2" d="M14.976 236.984L21.568 197.744L6.6 186.424L0 225.664L14.976 236.984Z" fill="black"/>
<path opacity="0.2" d="M50.3197 181.144L35.3438 169.832L35.4958 156.856L50.6317 148.112L50.3197 181.144Z" fill="black"/>
<path opacity="0.2" d="M23.696 125.328L8.72798 114.008L1.58398 156.456L16.56 167.776L23.696 125.328Z" fill="black"/>
<path opacity="0.2" d="M50.8959 59.712L35.9199 48.392L36.0559 98.248L51.0239 109.568L50.8959 59.712Z" fill="black"/>
<path opacity="0.2" d="M103.224 150.6L88.2559 139.288L88.3999 126.304L103.544 117.568L103.224 150.6Z" fill="black"/>
<path opacity="0.2" d="M88.7041 67.8399L103.672 79.1599L103.784 29.1679L88.8081 17.8479L88.7041 67.8399Z" fill="black"/>
<path opacity="0.2" d="M102.984 239L103.152 186.08L88.1198 194.752L88.0078 227.68L102.984 239Z" fill="black"/>
<path opacity="0.2" d="M50.0795 269.544L50.2395 216.624L35.2155 225.296L35.1035 258.224L50.0795 269.544Z" fill="black"/>
<path d="M144.44 192.14C144.44 188.66 145.06 185.62 146.3 183.02C147.58 180.42 149.3 178.42 151.46 177.02C153.66 175.62 156.1 174.92 158.78 174.92C161.1 174.92 163.1 175.38 164.78 176.3C166.46 177.22 167.76 178.46 168.68 180.02V175.34H180.44V209H168.68V204.32C167.76 205.88 166.44 207.12 164.72 208.04C163.04 208.96 161.06 209.42 158.78 209.42C156.1 209.42 153.66 208.72 151.46 207.32C149.3 205.92 147.58 203.92 146.3 201.32C145.06 198.68 144.44 195.62 144.44 192.14ZM168.68 192.14C168.68 189.98 168.08 188.28 166.88 187.04C165.72 185.8 164.28 185.18 162.56 185.18C160.8 185.18 159.34 185.8 158.18 187.04C157.02 188.24 156.44 189.94 156.44 192.14C156.44 194.3 157.02 196.02 158.18 197.3C159.34 198.54 160.8 199.16 162.56 199.16C164.28 199.16 165.72 198.54 166.88 197.3C168.08 196.06 168.68 194.34 168.68 192.14ZM201.481 209.42C198.441 209.42 195.721 208.92 193.321 207.92C190.961 206.88 189.081 205.48 187.681 203.72C186.321 201.92 185.561 199.9 185.401 197.66H196.801C196.961 198.74 197.461 199.58 198.301 200.18C199.141 200.78 200.181 201.08 201.421 201.08C202.381 201.08 203.141 200.88 203.701 200.48C204.261 200.08 204.541 199.56 204.541 198.92C204.541 198.08 204.081 197.46 203.161 197.06C202.241 196.66 200.721 196.22 198.601 195.74C196.201 195.26 194.201 194.72 192.601 194.12C191.001 193.52 189.601 192.54 188.401 191.18C187.241 189.82 186.661 187.98 186.661 185.66C186.661 183.66 187.201 181.86 188.281 180.26C189.361 178.62 190.941 177.32 193.021 176.36C195.141 175.4 197.681 174.92 200.641 174.92C205.041 174.92 208.501 176 211.021 178.16C213.541 180.32 215.001 183.16 215.401 186.68H204.781C204.581 185.6 204.101 184.78 203.341 184.22C202.621 183.62 201.641 183.32 200.401 183.32C199.441 183.32 198.701 183.5 198.181 183.86C197.701 184.22 197.461 184.72 197.461 185.36C197.461 186.16 197.921 186.78 198.841 187.22C199.761 187.62 201.241 188.04 203.281 188.48C205.721 189 207.741 189.58 209.341 190.22C210.981 190.86 212.401 191.9 213.601 193.34C214.841 194.74 215.461 196.66 215.461 199.1C215.461 201.06 214.881 202.82 213.721 204.38C212.601 205.94 210.981 207.18 208.861 208.1C206.781 208.98 204.321 209.42 201.481 209.42ZM243.383 175.04C247.223 175.04 250.263 176.34 252.503 178.94C254.783 181.5 255.923 184.98 255.923 189.38V209H244.163V190.94C244.163 189.02 243.663 187.52 242.663 186.44C241.663 185.32 240.323 184.76 238.643 184.76C236.883 184.76 235.503 185.32 234.503 186.44C233.503 187.52 233.003 189.02 233.003 190.94V209H221.243V164.6H233.003V180.14C234.043 178.62 235.443 177.4 237.203 176.48C239.003 175.52 241.063 175.04 243.383 175.04ZM274.136 200H287.276V209H262.376V166.7H274.136V200ZM297.788 172.22C295.708 172.22 294.028 171.66 292.748 170.54C291.508 169.38 290.888 167.94 290.888 166.22C290.888 164.46 291.508 163 292.748 161.84C294.028 160.68 295.708 160.1 297.788 160.1C299.828 160.1 301.468 160.68 302.708 161.84C303.988 163 304.628 164.46 304.628 166.22C304.628 167.94 303.988 169.38 302.708 170.54C301.468 171.66 299.828 172.22 297.788 172.22ZM303.608 175.34V209H291.848V175.34H303.608ZM322.065 180.02C322.985 178.42 324.285 177.18 325.965 176.3C327.645 175.38 329.625 174.92 331.905 174.92C334.585 174.92 337.005 175.62 339.165 177.02C341.365 178.42 343.085 180.42 344.325 183.02C345.605 185.62 346.245 188.66 346.245 192.14C346.245 195.62 345.605 198.68 344.325 201.32C343.085 203.92 341.365 205.92 339.165 207.32C337.005 208.72 334.585 209.42 331.905 209.42C329.625 209.42 327.645 208.98 325.965 208.1C324.285 207.18 322.985 205.92 322.065 204.32V209H310.305V164.6H322.065V180.02ZM334.305 192.14C334.305 189.94 333.705 188.24 332.505 187.04C331.345 185.8 329.905 185.18 328.185 185.18C326.465 185.18 325.005 185.8 323.805 187.04C322.645 188.28 322.065 189.98 322.065 192.14C322.065 194.34 322.645 196.06 323.805 197.3C325.005 198.54 326.465 199.16 328.185 199.16C329.905 199.16 331.345 198.54 332.505 197.3C333.705 196.02 334.305 194.3 334.305 192.14Z" fill="white"/>
</svg>
