<svg width="35" height="35" viewBox="0 0 35 35" fill="none" xmlns="http://www.w3.org/2000/svg">
<g clip-path="url(#clip0_2029_1939)">
<path d="M34.6555 17.2704L29.0788 3.92265L23.6978 6.17091C23.7653 5.53626 23.7653 4.63831 23.421 3.99016C22.6513 2.55208 20.8554 2.00521 19.4173 2.77488C17.9792 3.54456 17.4324 5.34047 18.202 6.77855C18.4721 7.28491 18.8772 7.69676 19.3768 7.97357L13.6245 10.3704C13.4962 9.96528 13.3004 9.58044 13.0506 9.23611C13.1249 9.1956 13.1856 9.14834 13.2464 9.08758C13.3882 8.94579 13.4759 8.75675 13.4759 8.5542L13.4489 6.3262H13.908C14.0161 6.3262 14.1173 6.27893 14.1916 6.20467C14.2726 6.1304 14.3131 6.02238 14.3131 5.91435L14.2321 0L13.4219 0.0135031L13.4962 5.51601L2.67348 5.59703L2.59921 0L1.78903 0.0135031L1.8633 6.01562C1.87005 6.23843 2.04559 6.40721 2.26839 6.41397H2.741C2.741 6.43422 2.768 8.64197 2.768 8.64197C2.77475 8.88503 2.89628 9.10783 3.09208 9.24961L2.79501 9.72222C2.68023 9.90451 2.52495 10.3569 2.52495 10.3569H2.5182L1.33668 14.7656L1.64725 15.7243L1.2084 15.9201C0.803303 16.1024 0.479229 16.4333 0.323944 16.8519C0.168658 17.2704 0.182161 17.7296 0.364453 18.1346L6.36657 31.5432L11.9906 29.0249C12.1932 28.9371 12.3349 28.7481 12.3552 28.5253C12.3754 28.3025 12.2742 28.0864 12.0919 27.9649C11.3695 27.4585 10.8699 26.9116 10.7213 26.466C10.3432 25.3453 10.9441 24.1233 12.0716 23.7452C13.1924 23.3671 14.4144 23.968 14.7925 25.0955C14.9748 25.6289 14.9343 26.2162 14.6845 26.7226C14.5765 26.9387 14.617 27.1952 14.7857 27.364C14.9478 27.5395 15.2043 27.5936 15.4204 27.4923L20.0925 25.3993C20.3153 25.3048 20.5043 25.1427 20.6393 24.9402L21.3482 24.6499C21.4293 25.3183 21.6791 25.9529 22.0774 26.4998C22.0031 26.5403 21.9424 26.5943 21.8816 26.6551C21.7331 26.7969 21.6521 26.9927 21.6521 27.1952L21.6858 29.4165H21.2267C21.1187 29.4165 21.0174 29.4637 20.9432 29.538C20.8621 29.6123 20.8216 29.7203 20.8284 29.8283L20.9026 34.9257H21.7128L21.6386 30.2334L32.4613 30.1456L32.5356 34.9325H33.3457L33.2715 29.7405C33.2647 29.5177 33.0892 29.3422 32.8664 29.3355H32.3938C32.3938 29.3219 32.4005 29.3017 32.4005 29.2882L32.3668 27.1142C32.3668 26.8711 32.2452 26.6416 32.0427 26.5066C32.198 26.2568 32.3195 26.0677 32.3398 26.0272C32.4545 25.8517 32.5423 25.6559 32.5963 25.4466L32.6098 25.3993H32.6166L33.7981 20.9838L33.366 19.62L33.7576 19.4579C34.6083 19.1069 35.0134 18.1414 34.6623 17.2907C34.6623 17.2839 34.6555 17.2772 34.6555 17.2704ZM6.37333 13.6111L6.30581 13.7259C5.84671 14.5361 5.01627 14.8939 5.00951 14.8939L4.71245 15.0154C4.71245 15.0154 5.1783 17.8308 5.30658 18.6478C5.38085 19.1339 5.29308 19.6335 5.05002 20.0588C4.87448 20.3086 4.59092 20.4572 4.2871 20.4572C4.0778 20.4504 3.99003 20.3424 3.95627 20.2816L2.63972 16.1699L2.38992 15.3935L2.18062 14.7454L3.32163 10.4986C3.35539 10.3771 3.4094 10.2623 3.47691 10.1543C3.47691 10.1543 3.68621 9.81674 3.92252 9.45216L12.1324 9.38464C12.4835 9.75598 12.74 10.2083 12.8818 10.7012L6.37333 13.6111ZM12.5172 8.58121H12.5037V8.56771L3.74698 8.63522C3.68621 8.64197 3.6322 8.62172 3.58494 8.58796V8.50694L3.55793 6.46798C3.60519 6.44097 3.65921 6.42072 3.71322 6.42072L12.4835 6.3532C12.5442 6.34645 12.5983 6.3667 12.6455 6.40046L12.6793 8.53395C12.632 8.56096 12.5712 8.58121 12.5172 8.58121ZM19.7616 24.6566L15.6229 26.5133C16.0213 24.9267 15.0626 23.3198 13.4759 22.9215C11.8893 22.5231 10.2825 23.4819 9.88413 25.0685C9.74235 25.6154 9.76935 26.196 9.94489 26.7294C10.1744 27.3978 10.7888 27.9919 11.3492 28.424L6.76492 30.4765L1.09362 17.8038C0.999098 17.5945 0.992347 17.3582 1.08012 17.1422C1.16114 16.9261 1.32317 16.7573 1.53247 16.6628L1.8903 16.5008L3.2136 20.626C3.41615 21.0108 3.80774 21.2606 4.24659 21.2674C4.24659 21.2674 5.29983 21.2876 5.73193 20.4842V20.4707C6.06951 19.8765 6.19779 19.1879 6.08976 18.5127C5.98849 17.8646 5.71168 16.1699 5.5969 15.488C6.13702 15.191 6.59613 14.7589 6.9337 14.2458L13.7865 11.1738C13.7865 11.1738 13.9756 11.0658 14.1241 11.0995C14.2119 11.1333 14.2929 11.2346 14.3334 11.3223L16.4534 16.1699C16.5412 16.3927 16.764 16.5278 17.0003 16.5143C17.2366 16.5008 17.4391 16.3387 17.5134 16.1159C17.6957 15.5015 18.1413 15.0087 18.7354 14.7656C19.7886 14.293 21.0309 14.7589 21.5035 15.8121C21.9424 16.7843 21.5846 17.9253 20.6663 18.4722C20.079 18.803 19.0527 18.722 18.6409 18.6748C18.4248 18.6478 18.2088 18.7423 18.0738 18.9178C18.0738 18.9246 17.878 19.1474 18.0062 19.5322L20.0114 24.0017C20.0857 24.1705 20.0587 24.3731 19.9439 24.5149C19.9034 24.5756 19.8359 24.6296 19.7616 24.6566ZM31.5566 27.229L31.5903 29.2679C31.5431 29.3017 31.4891 29.322 31.4283 29.3152L22.658 29.3827C22.5973 29.3895 22.5433 29.3692 22.496 29.3355L22.4623 27.2357L31.5566 27.229ZM31.8131 25.2373C31.7794 25.3588 31.7254 25.4736 31.6579 25.5816V25.5951C31.6579 25.5951 31.4553 25.9259 31.219 26.2905L31.138 26.4188H23.0699L23.0024 26.3513C22.4825 25.7976 22.1719 25.0752 22.1314 24.3123L27.9783 21.875C27.85 22.1045 27.7285 22.3476 27.6137 22.5907L28.3496 22.935C28.4981 22.6177 28.6602 22.3071 28.829 22.01C28.9977 21.713 29.2273 21.4564 29.4906 21.2404C29.6864 21.0783 29.8957 20.95 30.1253 20.842L30.4223 20.7205L30.3751 20.4032C30.3683 20.3964 30.3481 20.2479 30.3075 20.0251C30.186 19.2959 29.9295 17.716 29.8282 17.0949C29.7539 16.6088 29.8417 16.1092 30.0847 15.6838C30.2603 15.434 30.5439 15.2787 30.8477 15.2787C31.057 15.2855 31.1447 15.3935 31.1785 15.461L32.3668 19.1609L32.6166 19.9373L32.9542 20.9973L31.8131 25.2373ZM33.9129 18.2427C33.8251 18.452 33.6563 18.6208 33.447 18.7085L33.1162 18.8503L31.9144 15.11C31.7119 14.7251 31.3203 14.4821 30.8882 14.4686C29.8484 14.4956 29.3961 15.2585 29.3961 15.2585C29.0585 15.8526 28.9302 16.5413 29.0383 17.2164C29.1395 17.8713 29.4163 19.5592 29.5311 20.2411C29.3758 20.3289 29.2273 20.4302 29.0855 20.5382L20.8486 23.9815C20.8284 23.8735 18.9515 19.647 18.9515 19.647C19.6199 19.6943 20.3895 19.6605 20.9634 19.3567L21.22 19.2014C21.5305 18.9921 21.8006 18.7288 22.0099 18.4182L22.0977 18.2832C22.253 18.0266 22.3677 17.7498 22.442 17.4595C22.4488 17.446 22.4487 17.4325 22.4487 17.419H22.4555C22.5298 17.1557 22.5635 16.8856 22.5635 16.6088C22.5635 16.3117 22.5163 16.0079 22.4285 15.7243C21.9424 14.1647 20.2815 13.3005 18.7219 13.7866C18.3495 13.9044 18.004 14.0944 17.7051 14.3458C17.4062 14.5972 17.1598 14.905 16.98 15.2517L16.5006 14.1782C16.3454 13.7934 15.3124 11.5249 15.0828 10.9983C15.0288 10.897 14.968 10.7957 14.8938 10.7079L20.2342 8.50694C20.457 8.41242 20.5921 8.18962 20.5786 7.95332C20.5718 7.71701 20.4098 7.51447 20.187 7.44695C19.0527 7.10262 18.4113 5.9076 18.7557 4.76659C18.7894 4.65856 18.8299 4.55729 18.8772 4.45602C19.1405 3.90239 19.6266 3.4838 20.2207 3.32176C21.193 3.04495 22.226 3.47704 22.7053 4.36825C23.0226 4.96238 22.9146 5.98187 22.8538 6.39371C22.8268 6.61651 22.9146 6.83256 23.0901 6.96759C23.2657 7.10262 23.4952 7.13638 23.6978 7.04861L28.6399 4.98264L33.9061 17.581C34.0006 17.7903 34.0006 18.0334 33.9129 18.2427Z" fill="#FFBD00"/>
<path d="M8.56191 32.0974L9.28183 31.7259L10.2169 33.5377L9.49693 33.9092L8.56191 32.0974ZM2.71777 33.5703L3.65286 31.7585L4.37285 32.13L3.43776 33.9418L2.71777 33.5703ZM6.02151 34.9573L6.07133 32.9189L6.88125 32.9387L6.83142 34.977L6.02151 34.9573ZM25.6911 1.51506L26.411 1.14352L27.3461 2.95536L26.6261 3.3269L25.6911 1.51506ZM31.5374 2.98257L32.4725 1.17073L33.1924 1.54233L32.2573 3.35411L31.5374 2.98257ZM28.9818 2.126L29.0316 0.0876465L29.8416 0.107429L29.7918 2.14572L28.9818 2.126Z" fill="#FFBD00"/>
</g>
<defs>
<clipPath id="clip0_2029_1939">
<rect width="35" height="35" fill="white"/>
</clipPath>
</defs>
</svg>
