<svg width="35" height="35" viewBox="0 0 35 35" fill="none" xmlns="http://www.w3.org/2000/svg">
<g clip-path="url(#clip0_2029_1949)">
<path d="M1.09375 34.4531H10.9375C11.0825 34.4531 11.2216 34.3955 11.3242 34.293C11.4268 34.1904 11.4844 34.0513 11.4844 33.9063V31.1719C11.4841 30.6711 11.312 30.1855 10.9967 29.7963C10.6815 29.4071 10.2423 29.1379 9.75242 29.0336C10.0414 28.7752 10.2451 28.4351 10.3366 28.0584C10.4281 27.6817 10.403 27.2861 10.2647 26.9239C10.1264 26.5618 9.88135 26.2501 9.56206 26.0303C9.24276 25.8104 8.86423 25.6927 8.47656 25.6927C8.0889 25.6927 7.71037 25.8104 7.39107 26.0303C7.07177 26.2501 6.82676 26.5618 6.68845 26.9239C6.55015 27.2861 6.52507 27.6817 6.61654 28.0584C6.70801 28.4351 6.91172 28.7752 7.2007 29.0336C6.73955 29.1345 6.32365 29.3825 6.01562 29.7402C5.7076 29.3825 5.2917 29.1345 4.83055 29.0336C5.11953 28.7752 5.32324 28.4351 5.41471 28.0584C5.50618 27.6817 5.4811 27.2861 5.3428 26.9239C5.20449 26.5618 4.95948 26.2501 4.64018 26.0303C4.32088 25.8104 3.94235 25.6927 3.55469 25.6927C3.16702 25.6927 2.78849 25.8104 2.4692 26.0303C2.1499 26.2501 1.90488 26.5618 1.76658 26.9239C1.62827 27.2861 1.6032 27.6817 1.69467 28.0584C1.78614 28.4351 1.98985 28.7752 2.27883 29.0336C1.78898 29.1379 1.34975 29.4071 1.03453 29.7963C0.719299 30.1855 0.547163 30.6711 0.546875 31.1719V33.9063C0.546875 34.0513 0.604492 34.1904 0.707051 34.293C0.80961 34.3955 0.94871 34.4531 1.09375 34.4531ZM8.47656 26.7969C8.63881 26.7969 8.7974 26.845 8.9323 26.9351C9.0672 27.0253 9.17234 27.1534 9.23443 27.3033C9.29652 27.4532 9.31277 27.6181 9.28111 27.7772C9.24946 27.9364 9.17133 28.0825 9.05661 28.1972C8.94189 28.312 8.79572 28.3901 8.6366 28.4217C8.47747 28.4534 8.31253 28.4372 8.16264 28.3751C8.01275 28.313 7.88463 28.2078 7.7945 28.0729C7.70436 27.938 7.65625 27.7794 7.65625 27.6172C7.65625 27.3996 7.74268 27.191 7.89651 27.0371C8.05035 26.8833 8.259 26.7969 8.47656 26.7969ZM6.5625 31.1719C6.5625 30.8818 6.67773 30.6036 6.88285 30.3985C7.08797 30.1934 7.36617 30.0781 7.65625 30.0781H9.29688C9.58696 30.0781 9.86516 30.1934 10.0703 30.3985C10.2754 30.6036 10.3906 30.8818 10.3906 31.1719V33.3594H6.5625V31.1719ZM3.55469 26.7969C3.71693 26.7969 3.87553 26.845 4.01043 26.9351C4.14533 27.0253 4.25047 27.1534 4.31256 27.3033C4.37464 27.4532 4.39089 27.6181 4.35924 27.7772C4.32759 27.9364 4.24946 28.0825 4.13474 28.1972C4.02001 28.312 3.87385 28.3901 3.71472 28.4217C3.5556 28.4534 3.39066 28.4372 3.24077 28.3751C3.09087 28.313 2.96276 28.2078 2.87262 28.0729C2.78249 27.938 2.73438 27.7794 2.73438 27.6172C2.73438 27.3996 2.8208 27.191 2.97464 27.0371C3.12848 26.8833 3.33713 26.7969 3.55469 26.7969ZM1.64062 31.1719C1.64062 30.8818 1.75586 30.6036 1.96098 30.3985C2.16609 30.1934 2.44429 30.0781 2.73438 30.0781H4.375C4.66508 30.0781 4.94328 30.1934 5.1484 30.3985C5.35352 30.6036 5.46875 30.8818 5.46875 31.1719V33.3594H1.64062V31.1719Z" fill="#FFBD00"/>
<path d="M4.10156 23.7891C4.10156 24.1676 4.21382 24.5377 4.42414 24.8525C4.63446 25.1672 4.9334 25.4126 5.28315 25.5574C5.63289 25.7023 6.01775 25.7402 6.38904 25.6663C6.76033 25.5925 7.10139 25.4102 7.36907 25.1425C7.63676 24.8748 7.81906 24.5338 7.89291 24.1625C7.96676 23.7912 7.92886 23.4063 7.78399 23.0566C7.63912 22.7068 7.39379 22.4079 7.07902 22.1976C6.76426 21.9873 6.39419 21.875 6.01562 21.875C5.50798 21.875 5.02113 22.0767 4.66218 22.4356C4.30322 22.7946 4.10156 23.2814 4.10156 23.7891ZM6.83594 23.7891C6.83594 23.9513 6.78783 24.1099 6.69769 24.2448C6.60755 24.3797 6.47944 24.4848 6.32955 24.5469C6.17965 24.609 6.01471 24.6253 5.85559 24.5936C5.69646 24.562 5.5503 24.4838 5.43558 24.3691C5.32085 24.2544 5.24273 24.1082 5.21107 23.9491C5.17942 23.79 5.19567 23.625 5.25776 23.4751C5.31984 23.3253 5.42498 23.1971 5.55988 23.107C5.69478 23.0169 5.85338 22.9688 6.01562 22.9688C6.23319 22.9688 6.44184 23.0552 6.59567 23.209C6.74951 23.3629 6.83594 23.5715 6.83594 23.7891ZM13.6719 27.3438H21.3281C21.4363 27.3437 21.542 27.3116 21.6319 27.2515C21.7218 27.1915 21.7919 27.1061 21.8333 27.0061C21.8746 26.9062 21.8855 26.7963 21.8644 26.6902C21.8433 26.5842 21.7912 26.4867 21.7148 26.4102L19.5273 24.2227L18.754 24.996L20.008 26.25H13.6719V27.3438ZM21.875 28.9844H14.2188C14.1106 28.9844 14.0049 29.0165 13.915 29.0766C13.8251 29.1367 13.755 29.2221 13.7136 29.322C13.6722 29.4219 13.6614 29.5318 13.6825 29.6379C13.7036 29.744 13.7557 29.8414 13.8321 29.9179L16.0196 32.1054L16.7929 31.3321L15.5389 30.0781H21.875V28.9844ZM29.5312 22.4219C26.7252 22.4219 24.6094 23.5971 24.6094 25.1562V31.7188C24.6094 33.2779 26.7252 34.4531 29.5312 34.4531C32.3373 34.4531 34.4531 33.2779 34.4531 31.7188V25.1562C34.4531 23.5971 32.3373 22.4219 29.5312 22.4219ZM33.3594 31.7188C33.3594 32.4931 31.722 33.3594 29.5312 33.3594C27.3405 33.3594 25.7031 32.4931 25.7031 31.7188V30.1957C26.8581 30.884 28.1877 31.2231 29.5312 31.1719C30.8748 31.2231 32.2044 30.884 33.3594 30.1957V31.7188ZM33.3594 28.4375C33.3594 29.2119 31.722 30.0781 29.5312 30.0781C27.3405 30.0781 25.7031 29.2119 25.7031 28.4375V26.9145C26.8581 27.6028 28.1877 27.9418 29.5312 27.8906C30.8748 27.9418 32.2044 27.6028 33.3594 26.9145V28.4375ZM29.5312 26.7969C27.3405 26.7969 25.7031 25.9306 25.7031 25.1562C25.7031 24.3819 27.3405 23.5156 29.5312 23.5156C31.722 23.5156 33.3594 24.3819 33.3594 25.1562C33.3594 25.9306 31.722 26.7969 29.5312 26.7969ZM16.9531 21.875H18.0469V22.9688H16.9531V21.875ZM16.9531 19.6875H18.0469V20.7812H16.9531V19.6875ZM16.9531 17.5H18.0469V18.5938H16.9531V17.5ZM16.9531 15.3125H18.0469V16.4062H16.9531V15.3125ZM16.9531 7.42984L15.4727 8.91023L16.246 9.68352L17.8866 8.04289C17.9892 7.94036 18.0468 7.80128 18.0469 7.65625V3.28125H16.9531V7.42984Z" fill="#FFBD00"/>
<path d="M17.5003 0.546875C16.4475 0.546666 15.4102 0.799749 14.4757 1.28476C13.5413 1.76977 12.7373 2.47247 12.1316 3.33355C11.5258 4.19462 11.1362 5.18879 10.9954 6.23214C10.8547 7.27548 10.967 8.33737 11.323 9.32816C11.6789 10.3189 12.268 11.2096 13.0406 11.9248C13.8131 12.6401 14.7463 13.159 15.7616 13.4377C16.7768 13.7164 17.8442 13.7468 18.8736 13.5263C19.903 13.3058 20.8643 12.8408 21.6763 12.1707L20.9806 11.3269C20.022 12.1178 18.8225 12.5586 17.5798 12.5767C16.3371 12.5947 15.1253 12.189 14.144 11.4262C13.1628 10.6634 12.4706 9.58918 12.1815 8.38043C11.8925 7.17167 12.0238 5.9005 12.5538 4.77634C13.0838 3.65218 13.9809 2.74209 15.0973 2.19598C16.2138 1.64987 17.4829 1.50033 18.6957 1.772C19.9085 2.04366 20.9926 2.72033 21.7694 3.69051C22.5461 4.6607 22.9693 5.86654 22.9691 7.10938C22.9688 7.43707 22.9395 7.7641 22.8816 8.08664L22.3128 7.32812L21.4378 7.98438L23.0785 10.1719C23.1294 10.2398 23.1954 10.2949 23.2714 10.3329C23.3473 10.3709 23.4311 10.3906 23.516 10.3906C23.6009 10.3906 23.6846 10.3709 23.7605 10.3329C23.8365 10.2949 23.9025 10.2398 23.9535 10.1719L25.5941 7.98438L24.7191 7.32812L23.9431 8.36227C24.1271 7.41209 24.0988 6.43298 23.8602 5.49501C23.6216 4.55705 23.1787 3.68341 22.5631 2.93662C21.9474 2.18982 21.1743 1.58834 20.2991 1.17521C19.4239 0.762082 18.4682 0.547518 17.5003 0.546875Z" fill="#FFBD00"/>
</g>
<defs>
<clipPath id="clip0_2029_1949">
<rect width="35" height="35" fill="white"/>
</clipPath>
</defs>
</svg>
