<svg width="29" height="35" viewBox="0 0 29 35" fill="none" xmlns="http://www.w3.org/2000/svg">
<path d="M22.8386 13.3731H27.4139M25.117 13.635V21.5762M1 13.635V21.5762" stroke="#FFBD00" stroke-width="2" stroke-miterlimit="10" stroke-linecap="round" stroke-linejoin="round"/>
<path d="M13.0586 21.5762C15.3238 21.5762 17.1602 19.7399 17.1602 17.4746C17.1602 15.2094 15.3238 13.3731 13.0586 13.3731C10.7934 13.3731 8.95703 15.2094 8.95703 17.4746C8.95703 19.7399 10.7934 21.5762 13.0586 21.5762Z" stroke="#FFBD00" stroke-width="2" stroke-miterlimit="10" stroke-linecap="round" stroke-linejoin="round"/>
<path d="M7.25788 11.6058C10.4614 8.40227 15.6554 8.40227 18.8589 11.6058M18.8588 23.3435C15.6553 26.547 10.4613 26.547 7.25781 23.3435" stroke="#FFBD00" stroke-width="2" stroke-miterlimit="10" stroke-linecap="round" stroke-linejoin="round"/>
<path d="M4.35742 8.70556C9.16268 3.90031 16.9536 3.90031 21.7588 8.70556M21.7589 26.2437C16.9537 31.049 9.16274 31.049 4.35749 26.2437" stroke="#FFBD00" stroke-width="2" stroke-miterlimit="10" stroke-linecap="round" stroke-linejoin="round"/>
<path d="M1.45801 5.80529C7.86506 -0.601763 18.2529 -0.601763 24.6599 5.80529M24.6599 29.144C18.2529 35.5511 7.86506 35.5511 1.45801 29.144" stroke="#FFBD00" stroke-width="2" stroke-miterlimit="10" stroke-linecap="round" stroke-linejoin="round"/>
</svg>
