<svg width="31" height="31" viewBox="0 0 31 31" fill="none" xmlns="http://www.w3.org/2000/svg">
<path d="M3.05333 12.1649L1.07241 11.6341M15.5 2.61426V0.563477M2.61426 15.5H0.563477M28.3857 15.5H30.4365M15.5 28.3857V30.4365M12.1649 3.05333L11.6341 1.07241M3.05333 18.835L1.07241 19.3659M27.9467 12.1649L29.9276 11.6341M18.835 27.9467L19.3659 29.9276M9.05713 4.34061L8.03174 2.56456M4.34061 21.9429L2.56456 22.9683M26.6594 9.05713L28.4354 8.03174M21.9429 26.6594L22.9683 28.4354M6.38838 6.38838L4.93827 4.93827M6.38838 24.6116L4.93827 26.0617M24.6116 6.38838L26.0617 4.93827M24.6116 24.6116L26.0617 26.0617M4.34061 9.05713L2.56463 8.03174M9.05713 26.6594L8.03174 28.4354M21.9429 4.34061L22.9683 2.56463M26.6594 21.9429L28.4354 22.9683M12.1649 27.9467L11.6341 29.9276M18.835 3.05333L19.3659 1.07241M27.9467 18.835L29.9276 19.3659M19.6015 6.20306V5.17767M21.6523 7.22852V6.20312M13.1929 14.4746H18.3146C18.8824 14.4657 19.3451 14.0229 19.3451 13.4492C19.3451 12.8873 18.8817 12.4238 18.3198 12.4238H13.1929V14.4746ZM16.269 8.32227H18.3198V10.373C20.0137 10.373 21.396 11.7553 21.396 13.4492C21.396 14.2354 21.098 14.9549 20.6092 15.5001C21.098 16.045 21.396 16.7643 21.396 17.5508C21.396 19.2447 20.0137 20.627 18.3198 20.627V22.6777H16.269V20.627H14.2183V22.6777H12.1675V20.627H9.604V18.5762H11.1421V12.4238H9.604V10.373H12.1675V8.3222H14.2183V10.373H16.269V8.32227ZM13.1929 16.5254V18.5762H18.3198C18.8817 18.5762 19.3451 18.1127 19.3451 17.5508C19.3451 16.9889 18.8817 16.5253 18.3198 16.5253H13.1929V16.5254Z" stroke="#FFBD00" stroke-miterlimit="22.9256"/>
</svg>
