<svg width="35" height="35" viewBox="0 0 35 35" fill="none" xmlns="http://www.w3.org/2000/svg">
<path d="M14.7656 6.01562H15.8594V7.10938H14.7656V6.01562ZM28.9844 19.1406H30.0781V20.2344H28.9844V19.1406ZM19.1406 27.8906H20.2344V28.9844H19.1406V27.8906ZM14.7656 29.5312H15.8594V30.625H14.7656V29.5312ZM6.01562 16.9531H7.10938V18.0469H6.01562V16.9531ZM19.1406 6.01562H20.2344V7.10938H19.1406V6.01562ZM27.8906 14.7656H28.9844V15.8594H27.8906V14.7656ZM25.1562 9.29688H26.25V10.3906H25.1562V9.29688ZM8.75 9.29688H9.84375V10.3906H8.75V9.29688ZM25.1562 24.6094H26.25V25.7031H25.1562V24.6094ZM8.75 24.6094H9.84375V25.7031H8.75V24.6094ZM17.4355 16.9531C17.053 16.9655 16.6869 17.1114 16.4008 17.3655C16.1148 17.6197 15.9267 17.966 15.8694 18.3444C15.8121 18.7227 15.8891 19.1092 16.0871 19.4367C16.2851 19.7642 16.5915 20.012 16.9531 20.137V21.3281H18.0469V20.1332C18.4174 20.0034 18.7289 19.7448 18.9247 19.4045C19.1204 19.0642 19.1873 18.6649 19.1132 18.2794C19.0391 17.8939 18.8289 17.5478 18.5209 17.3044C18.2129 17.0609 17.8277 16.9362 17.4355 16.9531ZM18.0469 18.5724C18.0497 18.6442 18.0384 18.7159 18.0136 18.7833C17.9887 18.8507 17.9509 18.9125 17.9021 18.9653C17.8533 19.0181 17.7947 19.0607 17.7294 19.0908C17.6642 19.1209 17.5937 19.1378 17.5219 19.1406C17.45 19.1434 17.3783 19.132 17.3108 19.1071C17.2433 19.0821 17.1814 19.0441 17.1287 18.9952C17.0492 18.9218 16.9932 18.8265 16.9679 18.7213C16.9426 18.6161 16.9491 18.5057 16.9865 18.4042C17.0239 18.3027 17.0906 18.2146 17.1781 18.151C17.2656 18.0874 17.37 18.0511 17.4781 18.0469H17.5C17.6413 18.0468 17.7772 18.1014 17.8792 18.1992C17.9811 18.2971 18.0412 18.4312 18.0469 18.5724Z" fill="#FFBD00"/>
<path d="M20.2344 15.4131V14.7656C20.2344 14.0404 19.9463 13.3449 19.4335 12.8321C18.9207 12.3193 18.2252 12.0312 17.5 12.0312C16.7748 12.0312 16.0793 12.3193 15.5665 12.8321C15.0537 13.3449 14.7656 14.0404 14.7656 14.7656V15.4131C14.4468 15.5258 14.1707 15.7343 13.9749 16.0099C13.7791 16.2856 13.6733 16.615 13.6719 16.9531V21.3281C13.6719 21.7632 13.8447 22.1805 14.1524 22.4882C14.4601 22.7959 14.8774 22.9688 15.3125 22.9688H19.6875C20.1226 22.9688 20.5399 22.7959 20.8476 22.4882C21.1553 22.1805 21.3281 21.7632 21.3281 21.3281V16.9531C21.3267 16.615 21.2209 16.2856 21.0251 16.0099C20.8293 15.7343 20.5532 15.5258 20.2344 15.4131ZM15.8594 14.7656C15.8594 14.3305 16.0322 13.9132 16.3399 13.6055C16.6476 13.2979 17.0649 13.125 17.5 13.125C17.9351 13.125 18.3524 13.2979 18.6601 13.6055C18.9678 13.9132 19.1406 14.3305 19.1406 14.7656V15.3125H15.8594V14.7656ZM20.2344 21.3281C20.2344 21.4732 20.1768 21.6123 20.0742 21.7148C19.9716 21.8174 19.8325 21.875 19.6875 21.875H15.3125C15.1675 21.875 15.0284 21.8174 14.9258 21.7148C14.8232 21.6123 14.7656 21.4732 14.7656 21.3281V16.9531C14.7656 16.8081 14.8232 16.669 14.9258 16.5664C15.0284 16.4639 15.1675 16.4062 15.3125 16.4062H19.6875C19.8325 16.4062 19.9716 16.4639 20.0742 16.5664C20.1768 16.669 20.2344 16.8081 20.2344 16.9531V21.3281Z" fill="#FFBD00"/>
<path d="M32.2656 22.4219C32.022 22.4228 31.7817 22.4789 31.5629 22.5859L30.3051 21.3281H25.1562V20.2344H27.8906V19.1406H25.1562V18.0469H28.0197L31.1298 16.4916C31.4023 16.7526 31.7567 16.9115 32.133 16.9413C32.5093 16.9712 32.8843 16.8701 33.1946 16.6552C33.5049 16.4403 33.7314 16.1248 33.8358 15.7621C33.9402 15.3994 33.9161 15.0117 33.7675 14.6647C33.619 14.3177 33.3551 14.0327 33.0206 13.8579C32.6861 13.6831 32.3015 13.6293 31.9318 13.7055C31.5621 13.7817 31.2301 13.9833 30.992 14.2761C30.7539 14.5689 30.6242 14.9351 30.625 15.3125C30.6276 15.379 30.6343 15.4453 30.6452 15.511L27.7616 16.9531H25.1562V15.8594H26.7969V14.7656H25.1562V13.6719H27.5702L29.3748 11.8672C29.5939 11.9743 29.8343 12.0304 30.0781 12.0313C30.4026 12.0313 30.7198 11.935 30.9896 11.7548C31.2594 11.5745 31.4697 11.3183 31.5939 11.0185C31.718 10.7187 31.7505 10.3888 31.6872 10.0706C31.6239 9.75231 31.4677 9.45997 31.2382 9.23053C31.0088 9.00108 30.7164 8.84483 30.3982 8.78152C30.0799 8.71822 29.7501 8.75071 29.4503 8.87489C29.1505 8.99906 28.8943 9.20934 28.714 9.47914C28.5337 9.74894 28.4375 10.0661 28.4375 10.3906C28.4384 10.6343 28.4945 10.8745 28.6016 11.0934L27.1173 12.5781H25.1562C25.1554 11.8532 24.867 11.1582 24.3544 10.6456C23.8418 10.133 23.1468 9.84462 22.4219 9.84375V8.42953L25.5473 5.30469C25.7661 5.41172 26.0064 5.46781 26.25 5.46875C26.5745 5.46875 26.8917 5.37253 27.1615 5.19226C27.4313 5.01198 27.6416 4.75575 27.7657 4.45597C27.8899 4.15618 27.9224 3.82631 27.8591 3.50806C27.7958 3.18981 27.6395 2.89747 27.4101 2.66803C27.1807 2.43858 26.8883 2.28233 26.5701 2.21903C26.2518 2.15572 25.9219 2.18821 25.6222 2.31239C25.3224 2.43656 25.0661 2.64684 24.8859 2.91664C24.7056 3.18644 24.6094 3.50364 24.6094 3.82813C24.6103 4.07175 24.6664 4.312 24.7734 4.53086L21.3281 7.97617V9.84375H20.2344V8.20313H19.1406V9.84375H18.0469V5.915C18.4118 5.786 18.7193 5.53215 18.9151 5.19833C19.1109 4.86451 19.1824 4.47221 19.117 4.09077C19.0516 3.70933 18.8534 3.3633 18.5575 3.11385C18.2616 2.8644 17.887 2.72758 17.5 2.72758C17.113 2.72758 16.7384 2.8644 16.4425 3.11385C16.1466 3.3633 15.9484 3.70933 15.883 4.09077C15.8176 4.47221 15.8891 4.86451 16.0849 5.19833C16.2807 5.53215 16.5882 5.786 16.9531 5.915V9.84375H15.8594V8.20313H14.7656V9.84375H13.6719V5.78922L11.3203 3.43766C11.4274 3.21863 11.4835 2.97819 11.4844 2.73438C11.4844 2.40989 11.3882 2.09269 11.2079 1.82289C11.0276 1.55309 10.7714 1.34281 10.4716 1.21864C10.1718 1.09446 9.84193 1.06197 9.52368 1.12527C9.20543 1.18858 8.9131 1.34483 8.68365 1.57428C8.45421 1.80372 8.29795 2.09606 8.23465 2.41431C8.17135 2.73256 8.20384 3.06243 8.32801 3.36222C8.45219 3.662 8.66247 3.91823 8.93227 4.09851C9.20207 4.27878 9.51927 4.375 9.84375 4.375C10.0874 4.37406 10.3276 4.31797 10.5465 4.21094L12.5781 6.24203V9.84375C11.8532 9.84462 11.1582 10.133 10.6456 10.6456C10.133 11.1582 9.84462 11.8532 9.84375 12.5781H7.88266L6.39844 11.0934C6.50547 10.8745 6.56156 10.6343 6.5625 10.3906C6.5625 10.0661 6.46628 9.74894 6.28601 9.47914C6.10573 9.20934 5.8495 8.99906 5.54972 8.87489C5.24993 8.75071 4.92006 8.71822 4.60181 8.78152C4.28356 8.84483 3.99122 9.00108 3.76178 9.23053C3.53233 9.45997 3.37608 9.75231 3.31278 10.0706C3.24947 10.3888 3.28196 10.7187 3.40614 11.0185C3.53031 11.3183 3.74059 11.5745 4.01039 11.7548C4.28019 11.935 4.59739 12.0313 4.92188 12.0313C5.1655 12.0303 5.40575 11.9742 5.62461 11.8672L7.4293 13.6719H9.84375V14.7656H6.36453L3.5 17.1522C3.26524 17.0234 3.00214 16.955 2.73438 16.9531C2.40989 16.9531 2.09269 17.0493 1.82289 17.2296C1.55309 17.4099 1.34281 17.6661 1.21864 17.9659C1.09446 18.2657 1.06197 18.5956 1.12527 18.9138C1.18858 19.2321 1.34483 19.5244 1.57428 19.7538C1.80372 19.9833 2.09606 20.1395 2.41431 20.2029C2.73256 20.2662 3.06243 20.2337 3.36222 20.1095C3.662 19.9853 3.91823 19.775 4.09851 19.5052C4.27878 19.2354 4.375 18.9182 4.375 18.5938C4.37537 18.3743 4.33128 18.157 4.24539 17.955L6.76047 15.8594H9.84375V16.9531H8.20313V18.0469H9.84375V19.1406H4.92188V20.2344H9.84375V21.3281H6.8168L4.61289 24.6334C4.53429 24.6196 4.45478 24.6115 4.375 24.6094C3.99454 24.6059 3.62448 24.7335 3.32706 24.9708C3.02965 25.2081 2.82301 25.5406 2.74192 25.9123C2.66082 26.284 2.71021 26.6723 2.88178 27.0119C3.05334 27.3515 3.33662 27.6217 3.68396 27.777C4.03131 27.9323 4.42154 27.9632 4.78901 27.8646C5.15648 27.766 5.47879 27.5438 5.70172 27.2355C5.92465 26.9272 6.0346 26.5515 6.01309 26.1716C5.99158 25.7917 5.83991 25.4309 5.58359 25.1497L7.40195 22.4219H9.84375C9.84462 23.1468 10.133 23.8418 10.6456 24.3544C11.1582 24.867 11.8532 25.1554 12.5781 25.1562V28.758L10.5465 30.7891C10.3276 30.682 10.0874 30.6259 9.84375 30.625C9.51927 30.625 9.20207 30.7212 8.93227 30.9015C8.66247 31.0818 8.45219 31.338 8.32801 31.6378C8.20384 31.9376 8.17135 32.2674 8.23465 32.5857C8.29795 32.9039 8.45421 33.1963 8.68365 33.4257C8.9131 33.6552 9.20543 33.8114 9.52368 33.8747C9.84193 33.938 10.1718 33.9055 10.4716 33.7814C10.7714 33.6572 11.0276 33.4469 11.2079 33.1771C11.3882 32.9073 11.4844 32.5901 11.4844 32.2656C11.4834 32.022 11.4273 31.7817 11.3203 31.5629L13.6719 29.2113V25.1562H14.7656V28.4375H15.8594V25.1562H16.9531V29.8342L20.2748 31.9123C20.1856 32.2955 20.2349 32.6979 20.414 33.0481C20.5932 33.3984 20.8906 33.6739 21.2535 33.8257C21.6164 33.9776 22.0214 33.996 22.3966 33.8778C22.7718 33.7595 23.093 33.5121 23.3032 33.1796C23.5134 32.8471 23.5991 32.4508 23.545 32.0612C23.4909 31.6715 23.3005 31.3136 23.0077 31.0509C22.7148 30.7882 22.3384 30.6377 21.9451 30.6261C21.5519 30.6145 21.1673 30.7426 20.8595 30.9876L18.0469 29.2283V25.1562H19.1406V26.7969H20.2344V25.1562H21.3281V29.5312H25.2569C25.3859 29.8961 25.6397 30.2037 25.9735 30.3995C26.3074 30.5953 26.6997 30.6668 27.0811 30.6014C27.4625 30.5359 27.8086 30.3377 28.058 30.0418C28.3075 29.7459 28.4443 29.3714 28.4443 28.9844C28.4443 28.5974 28.3075 28.2228 28.058 27.9269C27.8086 27.631 27.4625 27.4328 27.0811 27.3674C26.6997 27.3019 26.3074 27.3734 25.9735 27.5693C25.6397 27.7651 25.3859 28.0726 25.2569 28.4375H22.4219V25.1562C23.1468 25.1554 23.8418 24.867 24.3544 24.3544C24.867 23.8418 25.1554 23.1468 25.1562 22.4219H29.8517L30.7891 23.3598C30.682 23.5786 30.6259 23.8189 30.625 24.0625C30.625 24.387 30.7212 24.7042 30.9015 24.974C31.0818 25.2438 31.338 25.4541 31.6378 25.5782C31.9376 25.7024 32.2674 25.7349 32.5857 25.6716C32.9039 25.6083 33.1963 25.452 33.4257 25.2226C33.6552 24.9932 33.8114 24.7008 33.8747 24.3826C33.938 24.0643 33.9055 23.7344 33.7814 23.4347C33.6572 23.1349 33.4469 22.8786 33.1771 22.6984C32.9073 22.5181 32.5901 22.4219 32.2656 22.4219ZM32.2656 14.7656C32.3738 14.7656 32.4795 14.7977 32.5695 14.8578C32.6594 14.9179 32.7295 15.0033 32.7709 15.1032C32.8123 15.2031 32.8231 15.3131 32.802 15.4192C32.7809 15.5253 32.7288 15.6227 32.6523 15.6992C32.5758 15.7757 32.4784 15.8278 32.3723 15.8489C32.2662 15.87 32.1563 15.8591 32.0563 15.8177C31.9564 15.7764 31.871 15.7063 31.8109 15.6163C31.7508 15.5264 31.7188 15.4207 31.7188 15.3125C31.7188 15.1675 31.7764 15.0284 31.8789 14.9258C31.9815 14.8232 32.1206 14.7656 32.2656 14.7656ZM30.0781 9.84375C30.1863 9.84375 30.292 9.87582 30.382 9.93592C30.4719 9.99601 30.542 10.0814 30.5834 10.1813C30.6248 10.2813 30.6356 10.3912 30.6145 10.4973C30.5934 10.6034 30.5413 10.7008 30.4648 10.7773C30.3883 10.8538 30.2909 10.9059 30.1848 10.927C30.0787 10.9481 29.9688 10.9373 29.8688 10.8959C29.7689 10.8545 29.6835 10.7844 29.6234 10.6945C29.5633 10.6045 29.5312 10.4988 29.5312 10.3906C29.5312 10.2456 29.5889 10.1065 29.6914 10.0039C29.794 9.90137 29.9331 9.84375 30.0781 9.84375ZM26.25 3.28125C26.3582 3.28125 26.4639 3.31332 26.5538 3.37342C26.6438 3.43351 26.7139 3.51892 26.7552 3.61885C26.7966 3.71877 26.8075 3.82873 26.7864 3.93482C26.7653 4.0409 26.7132 4.13834 26.6367 4.21482C26.5602 4.29131 26.4628 4.34339 26.3567 4.36449C26.2506 4.38559 26.1406 4.37476 26.0407 4.33337C25.9408 4.29198 25.8554 4.22189 25.7953 4.13195C25.7352 4.04202 25.7031 3.93629 25.7031 3.82813C25.7031 3.68309 25.7607 3.54399 25.8633 3.44143C25.9659 3.33887 26.105 3.28125 26.25 3.28125ZM17.5 3.82813C17.6082 3.82813 17.7139 3.8602 17.8038 3.92029C17.8938 3.98038 17.9639 4.06579 18.0052 4.16572C18.0466 4.26565 18.0575 4.37561 18.0364 4.48169C18.0153 4.58777 17.9632 4.68522 17.8867 4.7617C17.8102 4.83818 17.7128 4.89027 17.6067 4.91137C17.5006 4.93247 17.3906 4.92164 17.2907 4.88025C17.1908 4.83886 17.1054 4.76876 17.0453 4.67883C16.9852 4.5889 16.9531 4.48316 16.9531 4.375C16.9531 4.22996 17.0107 4.09086 17.1133 3.9883C17.2159 3.88574 17.355 3.82813 17.5 3.82813ZM9.29688 2.73438C9.29688 2.62621 9.32895 2.52048 9.38904 2.43055C9.44913 2.34062 9.53454 2.27052 9.63447 2.22913C9.7344 2.18774 9.84436 2.17691 9.95044 2.19801C10.0565 2.21911 10.154 2.2712 10.2305 2.34768C10.3069 2.42416 10.359 2.5216 10.3801 2.62769C10.4012 2.73377 10.3904 2.84373 10.349 2.94366C10.3076 3.04358 10.2375 3.12899 10.1476 3.18909C10.0576 3.24918 9.95191 3.28125 9.84375 3.28125C9.69871 3.28125 9.55961 3.22363 9.45705 3.12107C9.35449 3.01852 9.29688 2.87942 9.29688 2.73438ZM4.375 10.3906C4.375 10.2825 4.40707 10.1767 4.46717 10.0868C4.52726 9.99687 4.61267 9.92677 4.7126 9.88538C4.81252 9.84399 4.92248 9.83316 5.02857 9.85426C5.13465 9.87536 5.23209 9.92744 5.30857 10.0039C5.38506 10.0804 5.43714 10.1779 5.45824 10.2839C5.47934 10.39 5.46851 10.5 5.42712 10.5999C5.38573 10.6998 5.31564 10.7852 5.2257 10.8453C5.13577 10.9054 5.03004 10.9375 4.92188 10.9375C4.77684 10.9375 4.63774 10.8799 4.53518 10.7773C4.43262 10.6748 4.375 10.5357 4.375 10.3906ZM2.73438 19.1406C2.62621 19.1406 2.52048 19.1086 2.43055 19.0485C2.34062 18.9884 2.27052 18.903 2.22913 18.803C2.18774 18.7031 2.17691 18.5931 2.19801 18.4871C2.21911 18.381 2.2712 18.2835 2.34768 18.2071C2.42416 18.1306 2.5216 18.0785 2.62769 18.0574C2.73377 18.0363 2.84373 18.0471 2.94366 18.0885C3.04358 18.1299 3.12899 18.2 3.18909 18.2899C3.24918 18.3799 3.28125 18.4856 3.28125 18.5938C3.28125 18.7388 3.22363 18.8779 3.12107 18.9804C3.01852 19.083 2.87942 19.1406 2.73438 19.1406ZM4.375 26.7969C4.26684 26.7969 4.16111 26.7648 4.07117 26.7047C3.98124 26.6446 3.91115 26.5592 3.86975 26.4593C3.82836 26.3594 3.81753 26.2494 3.83863 26.1433C3.85974 26.0372 3.91182 25.9398 3.9883 25.8633C4.06478 25.7868 4.16223 25.7347 4.26831 25.7136C4.37439 25.6925 4.48435 25.7034 4.58428 25.7448C4.68421 25.7861 4.76962 25.8562 4.82971 25.9462C4.8898 26.0361 4.92188 26.1418 4.92188 26.25C4.92188 26.395 4.86426 26.5341 4.7617 26.6367C4.65914 26.7393 4.52004 26.7969 4.375 26.7969ZM9.84375 32.8125C9.73559 32.8125 9.62986 32.7804 9.53992 32.7203C9.44999 32.6602 9.3799 32.5748 9.3385 32.4749C9.29711 32.375 9.28628 32.265 9.30738 32.1589C9.32848 32.0529 9.38057 31.9554 9.45705 31.8789C9.53353 31.8024 9.63098 31.7504 9.73706 31.7293C9.84314 31.7082 9.9531 31.719 10.053 31.7604C10.153 31.8018 10.2384 31.8719 10.2985 31.9618C10.3586 32.0517 10.3906 32.1575 10.3906 32.2656C10.3906 32.4107 10.333 32.5498 10.2305 32.6523C10.1279 32.7549 9.98879 32.8125 9.84375 32.8125ZM21.875 31.7188C21.9832 31.7188 22.0889 31.7508 22.1788 31.8109C22.2688 31.871 22.3389 31.9564 22.3802 32.0563C22.4216 32.1563 22.4325 32.2662 22.4114 32.3723C22.3903 32.4784 22.3382 32.5758 22.2617 32.6523C22.1852 32.7288 22.0878 32.7809 21.9817 32.802C21.8756 32.8231 21.7656 32.8123 21.6657 32.7709C21.5658 32.7295 21.4804 32.6594 21.4203 32.5695C21.3602 32.4795 21.3281 32.3738 21.3281 32.2656C21.3281 32.1206 21.3857 31.9815 21.4883 31.8789C21.5909 31.7764 21.73 31.7188 21.875 31.7188ZM26.7969 28.4375C26.905 28.4375 27.0108 28.4696 27.1007 28.5297C27.1906 28.5898 27.2607 28.6752 27.3021 28.7751C27.3435 28.875 27.3543 28.985 27.3332 29.0911C27.3121 29.1971 27.2601 29.2946 27.1836 29.3711C27.1071 29.4476 27.0096 29.4996 26.9036 29.5207C26.7975 29.5418 26.6875 29.531 26.5876 29.4896C26.4877 29.4482 26.4023 29.3781 26.3422 29.2882C26.2821 29.1983 26.25 29.0925 26.25 28.9844C26.25 28.8393 26.3076 28.7002 26.4102 28.5977C26.5127 28.4951 26.6518 28.4375 26.7969 28.4375ZM24.0625 22.4219C24.0625 22.857 23.8896 23.2743 23.582 23.582C23.2743 23.8896 22.857 24.0625 22.4219 24.0625H12.5781C12.143 24.0625 11.7257 23.8896 11.418 23.582C11.1104 23.2743 10.9375 22.857 10.9375 22.4219V12.5781C10.9375 12.143 11.1104 11.7257 11.418 11.418C11.7257 11.1104 12.143 10.9375 12.5781 10.9375H22.4219C22.857 10.9375 23.2743 11.1104 23.582 11.418C23.8896 11.7257 24.0625 12.143 24.0625 12.5781V22.4219ZM32.2656 24.6094C32.1575 24.6094 32.0517 24.5773 31.9618 24.5172C31.8719 24.4571 31.8018 24.3717 31.7604 24.2718C31.719 24.1719 31.7082 24.0619 31.7293 23.9558C31.7504 23.8497 31.8024 23.7523 31.8789 23.6758C31.9554 23.5993 32.0529 23.5472 32.1589 23.5261C32.265 23.505 32.375 23.5159 32.4749 23.5573C32.5748 23.5986 32.6602 23.6687 32.7203 23.7587C32.7804 23.8486 32.8125 23.9543 32.8125 24.0625C32.8125 24.2075 32.7549 24.3466 32.6523 24.4492C32.5498 24.5518 32.4107 24.6094 32.2656 24.6094Z" fill="#FFBD00"/>
</svg>
