<svg width="35" height="35" viewBox="0 0 35 35" fill="none" xmlns="http://www.w3.org/2000/svg">
<g clip-path="url(#clip0_2037_20)">
<path d="M34.5017 9.19069H34.5016L34.5004 9.18952L32.2413 8.86721C32.1275 8.85101 32.0212 8.80144 31.9356 8.72477C31.85 8.64811 31.7891 8.54779 31.7606 8.43651C31.7321 8.32522 31.7372 8.20798 31.7753 8.0996C31.8134 7.99122 31.8828 7.89658 31.9747 7.82765L33.8006 6.45823C33.9238 6.36581 34.0053 6.22823 34.0271 6.07576C34.0488 5.92328 34.0092 5.76839 33.9167 5.64517L31.826 2.85754C31.7336 2.73432 31.596 2.65286 31.4436 2.63107C31.2911 2.60929 31.1362 2.64897 31.013 2.74139L29.1876 4.11081C29.0958 4.1805 28.9853 4.22128 28.8702 4.22795C28.7551 4.23462 28.6406 4.20689 28.5414 4.14828C28.4421 4.08967 28.3625 4.00284 28.3127 3.89885C28.263 3.79485 28.2453 3.6784 28.2619 3.56432L28.5848 1.30518C28.5957 1.22968 28.5915 1.1528 28.5726 1.0789C28.5537 1.00501 28.5205 0.935564 28.4748 0.874524C28.429 0.813484 28.3717 0.762048 28.3061 0.723152C28.2405 0.684257 28.1679 0.658664 28.0924 0.647835L28.0918 0.647762L24.6444 0.155281C24.5689 0.144439 24.492 0.148574 24.4181 0.16745C24.3442 0.186325 24.2748 0.219571 24.2137 0.265289C24.1527 0.311007 24.1012 0.368301 24.0623 0.433901C24.0234 0.499502 23.9978 0.572122 23.987 0.647617V0.647762L23.6641 2.9069C23.6479 3.02064 23.5983 3.12701 23.5216 3.21257C23.445 3.29813 23.3447 3.35903 23.2334 3.38757C23.1221 3.4161 23.0048 3.41099 22.8965 3.37288C22.7881 3.33477 22.6935 3.26538 22.6245 3.17347L21.2557 1.34757C21.1633 1.22435 21.0257 1.14289 20.8732 1.12111C20.7207 1.09933 20.5658 1.13901 20.4426 1.23142L18.6974 2.54103C17.9079 2.45711 17.1117 2.45711 16.3222 2.54103C11.1515 3.13202 7.09677 7.25553 6.59275 12.4354C6.57707 12.5997 6.57126 12.7629 6.56313 12.9261H6.3889C6.25522 12.9264 6.12571 12.9727 6.02224 13.0573C5.91876 13.142 5.84766 13.2597 5.82092 13.3907L5.41962 15.2991L3.81209 14.1904C3.70027 14.1133 3.56495 14.0778 3.42966 14.0901C3.29437 14.1024 3.16768 14.1617 3.07162 14.2578L1.32935 16.0001C1.23344 16.0961 1.17419 16.2227 1.16188 16.3578C1.14957 16.493 1.18499 16.6282 1.26198 16.7399L2.36542 18.3446L0.456476 18.7459C0.326897 18.7743 0.210941 18.8461 0.127894 18.9496C0.0448472 19.053 -0.000285937 19.1818 1.36319e-06 19.3144V21.6375C-5.83516e-05 21.7707 0.0457369 21.9 0.129701 22.0035C0.213664 22.1071 0.330685 22.1786 0.461122 22.206L2.37007 22.6073L1.26663 24.2119C1.18964 24.3237 1.15422 24.4589 1.16653 24.5941C1.17883 24.7292 1.23809 24.8558 1.334 24.9518L3.07627 26.6941C3.17232 26.7902 3.29902 26.8495 3.43431 26.8618C3.56959 26.8741 3.70492 26.8386 3.81673 26.7615L5.42136 25.6551L5.82266 27.5641C5.8494 27.6951 5.92051 27.8128 6.02398 27.8974C6.12745 27.9821 6.25696 28.0284 6.39064 28.0287H8.71367C8.84696 28.0287 8.97622 27.9829 9.07975 27.899C9.18328 27.815 9.25477 27.698 9.28223 27.5676L9.68353 25.6586L11.2882 26.762C11.3999 26.839 11.5351 26.8745 11.6703 26.8622C11.8054 26.8498 11.932 26.7906 12.028 26.6947L12.93 25.7899V27.445C12.9312 27.851 13.0392 28.2494 13.2431 28.6005C13.447 28.9515 13.7395 29.2428 14.0915 29.4451V32.6718C14.0915 33.9548 15.1315 34.9948 16.4145 34.9948H18.7375C20.0205 34.9948 21.0605 33.9548 21.0605 32.6718V29.4451C21.4125 29.2428 21.7051 28.9515 21.9089 28.6005C22.1128 28.2494 22.2208 27.851 22.2221 27.445V25.1464C22.2298 24.6704 22.3568 24.204 22.5915 23.7898C22.8262 23.3757 23.161 23.027 23.5653 22.7757C24.0473 22.463 24.5044 22.1135 24.9324 21.7304L24.1577 20.865C23.7748 21.2083 23.3657 21.5211 22.9341 21.8006C22.3666 22.1568 21.8976 22.6498 21.5703 23.2344C21.2429 23.819 21.0677 24.4764 21.0605 25.1464V27.445C21.0605 28.0865 20.5406 28.6065 19.899 28.6065H15.253C14.6115 28.6065 14.0915 28.0865 14.0915 27.445V25.0982C14.0849 24.441 13.9126 23.7961 13.5906 23.2231C13.2686 22.6502 12.8073 22.1677 12.2493 21.8204C7.64631 18.9281 6.25946 12.852 9.15178 8.24899C10.0347 6.84384 11.2585 5.68472 12.7096 4.87939C14.1606 4.07406 15.7916 3.64865 17.4511 3.64272C17.4425 3.66341 17.4349 3.68454 17.4285 3.70602C17.407 3.8585 17.4469 4.0133 17.5394 4.13636L18.9083 5.96168C18.9788 6.05293 19.0198 6.16344 19.0261 6.27858C19.0323 6.39371 19.0033 6.50801 18.9431 6.60632C18.8851 6.70535 18.7988 6.78482 18.6953 6.83458C18.5919 6.88434 18.476 6.90212 18.3624 6.88566L16.1032 6.56276C16.0277 6.55193 15.9508 6.55608 15.8769 6.57496C15.803 6.59385 15.7336 6.6271 15.6726 6.67283C15.6115 6.71855 15.5601 6.77585 15.5212 6.84145C15.4823 6.90706 15.4567 6.97968 15.4459 7.05517L15.4458 7.05583L14.9527 10.5049C14.9309 10.6574 14.9705 10.8123 15.0628 10.9356C15.1552 11.0588 15.2927 11.1404 15.4451 11.1623L15.4458 11.1624L17.7049 11.4853C17.8187 11.5015 17.925 11.551 18.0106 11.6277C18.0962 11.7044 18.1571 11.8047 18.1856 11.916C18.2141 12.0272 18.209 12.1445 18.1709 12.2529C18.1328 12.3612 18.0634 12.4559 17.9715 12.5248L16.1462 13.8937C16.023 13.9861 15.9415 14.1236 15.9197 14.2761C15.8979 14.4286 15.9376 14.5835 16.03 14.7067L18.1208 17.4943C18.2132 17.6176 18.3508 17.699 18.5032 17.7208C18.6557 17.7426 18.8106 17.7029 18.9338 17.6105L20.7597 16.2416C20.8516 16.1729 20.9618 16.133 21.0763 16.1268C21.1909 16.1207 21.3047 16.1486 21.4034 16.207C21.5022 16.2655 21.5813 16.3519 21.631 16.4553C21.6807 16.5587 21.6986 16.6745 21.6825 16.7881L21.3602 19.0473C21.3494 19.1228 21.3535 19.1997 21.3724 19.2736C21.3913 19.3475 21.4245 19.4169 21.4702 19.478C21.5159 19.539 21.5732 19.5905 21.6388 19.6294C21.7044 19.6683 21.7771 19.6939 21.8526 19.7047H21.8527L25.3024 20.1978C25.3295 20.2012 25.3569 20.203 25.3843 20.203C25.5241 20.2031 25.6593 20.1528 25.7651 20.0613C25.8708 19.9698 25.9399 19.8431 25.9598 19.7047L26.2821 17.4456C26.2983 17.3318 26.3479 17.2254 26.4246 17.1399C26.5012 17.0543 26.6015 16.9934 26.7128 16.9649C26.8241 16.9364 26.9414 16.9415 27.0497 16.9796C27.1581 17.0177 27.2527 17.0871 27.3217 17.179L28.6911 19.0043C28.7835 19.1275 28.9211 19.209 29.0736 19.2308C29.2261 19.2526 29.3809 19.2129 29.5042 19.1205L32.2918 17.0297C32.415 16.9373 32.4965 16.7997 32.5183 16.6473C32.54 16.4948 32.5004 16.3399 32.4079 16.2167L31.0391 14.3914C30.9689 14.3 30.928 14.1895 30.9218 14.0744C30.9156 13.9594 30.9443 13.8451 31.0043 13.7467C31.061 13.6465 31.1471 13.5661 31.2509 13.5162C31.3547 13.4664 31.4713 13.4496 31.585 13.468L33.8442 13.7903C33.9196 13.8011 33.9965 13.797 34.0704 13.7781C34.1443 13.7592 34.2138 13.726 34.2748 13.6803C34.3359 13.6346 34.3873 13.5773 34.4262 13.5117C34.4651 13.4461 34.4907 13.3734 34.5016 13.2979V13.2978L34.994 9.8481C35.0049 9.77261 35.0008 9.69572 34.9819 9.62182C34.963 9.54793 34.9298 9.47847 34.884 9.41743C34.8383 9.35638 34.781 9.30493 34.7154 9.26603C34.6498 9.22713 34.5772 9.20152 34.5017 9.19069ZM15.253 29.768H19.899V30.9296H15.253V29.768ZM15.253 32.0911H19.899V32.6718C19.899 33.3133 19.379 33.8333 18.7375 33.8333H16.4145C15.773 33.8333 15.253 33.3133 15.253 32.6718V32.0911ZM10.6296 22.0759C10.9467 22.3353 11.278 22.5767 11.6221 22.799C12.1708 23.1458 12.5839 23.6704 12.7923 24.2851L11.5466 25.5285L10.3404 24.6969C9.81217 24.3329 9.08891 24.466 8.72485 24.9942C8.63758 25.1209 8.57634 25.2636 8.54467 25.4141L8.24035 26.8643H6.85989L6.55558 25.4164C6.42346 24.7887 5.80749 24.3869 5.17977 24.519C5.02926 24.5507 4.88653 24.6119 4.75988 24.6992L3.55307 25.5285L2.49493 24.4727L3.32599 23.2671C3.69034 22.7391 3.55764 22.0157 3.02966 21.6514C2.90292 21.5639 2.76004 21.5025 2.60934 21.4708L1.16151 21.1659V19.786L2.60934 19.4811C3.23685 19.348 3.63771 18.7315 3.50465 18.1039C3.47309 17.9551 3.41259 17.8138 3.32657 17.6883L2.49493 16.4792L3.55307 15.4234L4.76046 16.255C5.28888 16.6186 6.01214 16.4851 6.37576 15.9566C6.46288 15.8301 6.524 15.6875 6.55558 15.5372L6.65721 15.054C6.75025 15.7231 6.90441 16.3823 7.11775 17.0233C5.20684 17.2511 3.84243 18.985 4.07023 20.8959C4.29803 22.8068 6.03188 24.1712 7.94279 23.9434C8.50928 23.8759 9.05053 23.6702 9.51899 23.3446C9.98746 23.019 10.3688 22.5834 10.6296 22.0759ZM9.72767 21.2576C9.29399 22.4631 7.96529 23.0887 6.75986 22.6551C5.55443 22.2214 4.92881 20.8927 5.36241 19.6873C5.52432 19.2372 5.82141 18.8482 6.21298 18.5735C6.60455 18.2988 7.07146 18.1519 7.54976 18.1529H7.57183C8.1059 19.3045 8.83528 20.3549 9.72767 21.2576ZM33.4307 12.5567L31.7465 12.3163C30.7939 12.1803 29.9114 12.8423 29.7754 13.7948C29.71 14.2522 29.8291 14.7169 30.1064 15.0865L31.1268 16.4472L29.2684 17.8411L28.2474 16.4809C27.6701 15.7111 26.5781 15.5549 25.8083 16.1322C25.4386 16.4094 25.1942 16.8221 25.1287 17.2795L24.8935 18.966L22.5943 18.6373L22.8348 16.9531C22.9712 16.0006 22.3095 15.1178 21.357 14.9815C21.1304 14.949 20.8996 14.9615 20.6778 15.0183C20.4561 15.0751 20.2477 15.1751 20.0646 15.3124L18.7038 16.3328L17.31 14.4744L18.6702 13.4534C19.44 12.8762 19.5962 11.7841 19.0189 11.0143C18.7417 10.6447 18.329 10.4002 17.8716 10.3348L16.1874 10.0943L16.5161 7.79513L18.2003 8.03556C19.1528 8.17197 20.0356 7.51034 20.1719 6.55783C20.2044 6.33121 20.1919 6.10043 20.1351 5.87865C20.0783 5.65688 19.9783 5.44848 19.841 5.26536L18.8171 3.90348L20.6755 2.50967L21.6965 3.87038C22.2737 4.64024 23.3658 4.79639 24.1356 4.21912C24.5052 3.94192 24.7497 3.52924 24.8151 3.07184L25.0556 1.38765L27.3548 1.71577L27.1143 3.39997C26.9783 4.35255 27.6402 5.23501 28.5928 5.37105C29.0502 5.43639 29.5149 5.31733 29.8846 5.04002L31.2453 4.01963L32.6391 5.87805L31.2784 6.89902C30.5085 7.47629 30.3524 8.56833 30.9296 9.33813C31.2068 9.70779 31.6195 9.95223 32.0769 10.0177L33.7611 10.2581L33.4307 12.5567Z" fill="#FFBD00"/>
<path d="M24.9723 5.52959C22.4063 5.52959 20.3262 7.60971 20.3262 10.1756C20.3262 12.7416 22.4063 14.8217 24.9723 14.8217C27.5382 14.8217 29.6183 12.7416 29.6183 10.1756C29.6154 7.61087 27.537 5.53242 24.9723 5.52959ZM24.9723 13.6602C23.0478 13.6602 21.4877 12.1001 21.4877 10.1756C21.4877 8.25116 23.0478 6.6911 24.9723 6.6911C26.8967 6.6911 28.4568 8.25116 28.4568 10.1756C28.4546 12.0992 26.8958 13.6579 24.9723 13.6602ZM16.995 25.7027H18.1565V27.445H16.995V25.7027ZM15.0355 19.9991C11.4504 18.5986 9.6795 14.557 11.0801 10.9719C11.6228 9.58278 12.5968 8.40436 13.8589 7.60986L13.2381 6.62722C9.43878 9.02073 8.29912 14.041 10.6926 17.8403C11.6196 19.3118 12.994 20.4472 14.6139 21.0799C16.0478 21.6293 16.9946 23.0057 16.995 24.5412H18.1565C18.1583 22.5266 16.9168 20.7198 15.0355 19.9991ZM28.6101 21.6374H32.6754V22.799H28.6101V21.6374ZM27.6578 25.5678L28.4012 24.6754L31.886 27.5787L31.1425 28.4711L27.6578 25.5678ZM25.1256 26.2835H26.2871V30.3488H25.1256V26.2835ZM0.592773 10.0391L5.23853 8.87786L5.52005 10.004L0.874295 11.1654L0.592773 10.0391ZM1.55748 4.10681L2.23225 3.16213L6.29718 6.06562L5.62249 7.0103L1.55748 4.10681ZM6.53347 0.292544L7.65869 0.00485229L8.84655 4.65054L7.72134 4.93823L6.53347 0.292544Z" fill="#FFBD00"/>
</g>
<defs>
<clipPath id="clip0_2037_20">
<rect width="35" height="35" fill="white"/>
</clipPath>
</defs>
</svg>
