<svg width="35" height="35" viewBox="0 0 35 35" fill="none" xmlns="http://www.w3.org/2000/svg">
<g clip-path="url(#clip0_2010_7650)">
<path d="M34.0932 25.656C33.8576 25.1973 33.4652 24.8385 32.9873 24.6448C32.5094 24.4511 31.9779 24.4355 31.4894 24.6007L24.3569 26.9712C24.3887 26.8227 24.4046 26.6689 24.4046 26.5098C24.4046 25.4863 23.572 24.6537 22.5485 24.6537H17.7122C17.1982 24.6546 16.6971 24.4932 16.2803 24.1924L11.2743 20.5863C10.7229 20.1893 10.0605 19.976 9.38109 19.9765H7.55155V19.6742C7.55155 19.1622 7.34818 18.6713 6.98617 18.3093C6.62417 17.9473 6.13319 17.7439 5.62124 17.7439H2.59852C2.08657 17.7439 1.59559 17.9473 1.23359 18.3093C0.871584 18.6713 0.668213 19.1622 0.668213 19.6742V28.3606C0.668213 28.578 0.848516 28.7583 1.06594 28.7583C1.28336 28.7583 1.46367 28.578 1.46367 28.3606V19.6742C1.46367 19.0484 1.97276 18.5393 2.59852 18.5393H5.61594C6.2417 18.5393 6.75079 19.0484 6.75079 19.6742V30.8795C6.75079 31.5053 6.2417 32.0143 5.61594 32.0143H2.59852C1.97276 32.0143 1.46367 31.5053 1.46367 30.8795V30.084C1.46367 29.8666 1.28336 29.6863 1.06594 29.6863C0.848516 29.6863 0.668213 29.8666 0.668213 30.084V30.8795C0.668213 31.133 0.718142 31.384 0.815148 31.6182C0.912155 31.8524 1.05434 32.0652 1.23359 32.2444C1.41283 32.4237 1.62563 32.5659 1.85982 32.6629C2.09402 32.7599 2.34503 32.8098 2.59852 32.8098H5.61594C5.86943 32.8098 6.12044 32.7599 6.35464 32.6629C6.58883 32.5659 6.80163 32.4237 6.98087 32.2444C7.16012 32.0652 7.3023 31.8524 7.39931 31.6182C7.49632 31.384 7.54624 31.133 7.54624 30.8795V30.153H8.56973C8.94094 30.153 9.30685 30.2537 9.63033 30.4393L15.6015 33.9075C16.0523 34.1674 16.5561 34.2999 17.0599 34.2999C17.3993 34.2999 17.7334 34.2416 18.0622 34.1196L30.4765 29.5749C30.527 29.5583 30.5737 29.5317 30.6137 29.4967C30.6537 29.4616 30.6864 29.419 30.7096 29.3711C30.7329 29.3233 30.7463 29.2713 30.7491 29.2182C30.7519 29.1651 30.744 29.112 30.7259 29.062C30.7078 29.012 30.6799 28.9661 30.6438 28.9271C30.6076 28.8881 30.5641 28.8567 30.5156 28.8348C30.4671 28.8129 30.4148 28.801 30.3616 28.7997C30.3085 28.7984 30.2556 28.8077 30.2061 28.8272L17.7917 33.3719C17.2031 33.5893 16.5508 33.531 16.0046 33.2128L10.0334 29.7499C9.58791 29.4901 9.08412 29.3575 8.57503 29.3575H7.55155V20.7666H9.38109C9.89549 20.7666 10.394 20.9257 10.8129 21.228L15.819 24.834C16.3758 25.2318 17.0281 25.4439 17.7122 25.4439H22.5485C23.1319 25.4439 23.6091 25.9212 23.6091 26.5045C23.6091 26.7909 23.5243 27.0984 23.3281 27.3106L22.5962 27.5545L16.2856 27.5651C16.1802 27.5651 16.079 27.607 16.0044 27.6816C15.9298 27.7562 15.8879 27.8573 15.8879 27.9628C15.8879 28.0683 15.9298 28.1695 16.0044 28.2441C16.079 28.3187 16.1802 28.3606 16.2856 28.3606L22.6069 28.3499H22.7288C23.1212 28.3499 23.4659 28.228 23.7364 28.0106L31.7387 25.3537C32.3803 25.1416 33.075 25.4227 33.3826 26.0219C33.5629 26.3719 33.5841 26.7803 33.4462 27.1462C33.3031 27.5121 33.0114 27.7984 32.6455 27.9363L31.6485 28.3022C31.5494 28.3381 31.4686 28.4119 31.4238 28.5074C31.3791 28.6028 31.3741 28.7122 31.4099 28.8113C31.4682 28.9704 31.622 29.0712 31.7811 29.0712C31.8288 29.0712 31.8712 29.0659 31.919 29.0446L32.9159 28.6787C33.4993 28.4666 33.9606 28.0106 34.1834 27.4325C34.4061 26.8545 34.3796 26.2075 34.0932 25.656ZM21.2122 2.55601C21.4296 2.55601 21.6099 2.37571 21.6099 2.15828V1.09768C21.6099 0.880254 21.4296 0.699951 21.2122 0.699951C20.9947 0.699951 20.8144 0.880254 20.8144 1.09768V2.15828C20.8144 2.37571 20.9894 2.55601 21.2122 2.55601ZM18.1152 2.77344C18.1735 2.93253 18.3273 3.03328 18.4917 3.03328C18.5341 3.03328 18.5819 3.02798 18.6296 3.00677C18.7287 2.97087 18.8095 2.89708 18.8543 2.80162C18.899 2.70616 18.904 2.59684 18.8682 2.49768L18.5076 1.50071C18.4909 1.45021 18.4643 1.40357 18.4293 1.36354C18.3943 1.32351 18.3516 1.2909 18.3038 1.26766C18.256 1.24441 18.204 1.23098 18.1509 1.22818C18.0978 1.22538 18.0446 1.23326 17.9946 1.25134C17.9446 1.26943 17.8988 1.29736 17.8597 1.33349C17.8207 1.36961 17.7893 1.41319 17.7674 1.46166C17.7456 1.51012 17.7336 1.56248 17.7323 1.61565C17.731 1.66881 17.7404 1.72169 17.7599 1.77116L18.1152 2.77344ZM15.7925 4.27419C15.8255 4.31445 15.8663 4.34768 15.9124 4.37194C15.9584 4.3962 16.0089 4.41098 16.0608 4.41543C16.1127 4.41988 16.165 4.4139 16.2145 4.39784C16.264 4.38178 16.3099 4.35596 16.3493 4.32192C16.519 4.17874 16.5402 3.9295 16.397 3.7598L15.7129 2.94844C15.5697 2.77874 15.3205 2.75753 15.1508 2.90071C14.9811 3.04389 14.9599 3.29313 15.1031 3.46283L15.7925 4.27419ZM13.2046 5.94995L14.122 6.48025C14.1856 6.51738 14.2546 6.53328 14.3182 6.53328C14.4561 6.53328 14.5887 6.46434 14.6629 6.33177C14.7743 6.14086 14.7053 5.89692 14.5197 5.79086L13.6023 5.26056C13.5574 5.23444 13.5078 5.21742 13.4563 5.21048C13.4048 5.20354 13.3524 5.20681 13.3022 5.2201C13.252 5.2334 13.2048 5.25646 13.1635 5.28797C13.1222 5.31948 13.0875 5.35882 13.0614 5.40374C12.95 5.59465 13.0137 5.83859 13.2046 5.94995ZM28.297 13.7454C28.2063 13.6927 28.0983 13.6781 27.9969 13.705C27.8955 13.7318 27.8088 13.7979 27.7561 13.8886C27.7034 13.9793 27.6888 14.0873 27.7157 14.1887C27.7425 14.2901 27.8086 14.3768 27.8993 14.4295L28.8167 14.9598C28.8803 14.9969 28.9493 15.0128 29.0129 15.0128C29.1508 15.0128 29.2834 14.9439 29.3576 14.8113C29.469 14.6204 29.4 14.3765 29.2144 14.2704L28.297 13.7454ZM12.2659 8.94086L13.3106 9.12647C13.3319 9.13177 13.3584 9.13177 13.3796 9.13177C13.4798 9.13287 13.5768 9.09607 13.6511 9.02874C13.7253 8.9614 13.7714 8.86851 13.7802 8.76864C13.7889 8.66876 13.7595 8.56929 13.6981 8.49011C13.6366 8.41093 13.5474 8.3579 13.4485 8.34162L12.4038 8.15601C12.1864 8.11889 11.9796 8.26207 11.9425 8.4795C11.9053 8.69692 12.0485 8.89844 12.2659 8.94086ZM30.0894 12.075C30.1897 12.076 30.2866 12.0392 30.3609 11.9719C30.4352 11.9046 30.4813 11.8117 30.49 11.7118C30.4987 11.6119 30.4694 11.5125 30.4079 11.4333C30.3464 11.3541 30.2573 11.3011 30.1584 11.2848L29.1137 11.0992C28.8962 11.0621 28.6894 11.2053 28.6523 11.4227C28.6152 11.6401 28.7584 11.8469 28.9758 11.884L30.0205 12.0696C30.0417 12.075 30.0682 12.075 30.0894 12.075ZM12.3349 12.075C12.3561 12.075 12.3826 12.075 12.4038 12.0696L13.4485 11.884C13.6659 11.8469 13.8091 11.6401 13.772 11.4227C13.7349 11.2053 13.5281 11.0621 13.3106 11.0992L12.2659 11.2848C12.2144 11.2938 12.1651 11.3128 12.1209 11.3409C12.0767 11.3689 12.0385 11.4055 12.0084 11.4483C11.9784 11.4912 11.9571 11.5396 11.9457 11.5907C11.9344 11.6418 11.9333 11.6946 11.9425 11.7462C11.9743 11.9424 12.144 12.075 12.3349 12.075ZM28.6523 8.79768C28.6841 8.98859 28.8538 9.12647 29.0447 9.12647C29.0659 9.12647 29.0925 9.12647 29.1137 9.12116L30.1584 8.93556C30.3758 8.89844 30.519 8.69162 30.4819 8.47419C30.4447 8.25677 30.2379 8.11359 30.0205 8.15071L28.9758 8.33631C28.8723 8.35571 28.7805 8.41485 28.72 8.50107C28.6596 8.5873 28.6353 8.69376 28.6523 8.79768ZM14.122 13.7454L13.2046 14.2757C13.0137 14.3871 12.95 14.631 13.0614 14.8166C13.1356 14.9439 13.2682 15.0181 13.4061 15.0181C13.475 15.0181 13.544 15.0022 13.6023 14.9651L14.5197 14.4348C14.7106 14.3234 14.7743 14.0795 14.6629 13.8939C14.5515 13.7083 14.3129 13.634 14.122 13.7454ZM28.1008 6.53328C28.1697 6.53328 28.2387 6.51738 28.297 6.48025L29.2144 5.94995C29.4053 5.83859 29.469 5.59465 29.3576 5.40904C29.3318 5.3638 29.2973 5.32415 29.256 5.29241C29.2147 5.26066 29.1675 5.23744 29.1172 5.22411C29.0668 5.21079 29.0143 5.20761 28.9627 5.21478C28.9111 5.22195 28.8615 5.23931 28.8167 5.26586L27.8993 5.79616C27.7084 5.90753 27.6447 6.15147 27.7561 6.33707C27.8303 6.45904 27.9629 6.53328 28.1008 6.53328ZM26.3243 4.41738C26.4356 4.41738 26.5523 4.36965 26.6265 4.27419L27.3106 3.46283C27.4538 3.29313 27.4326 3.04389 27.2629 2.90071C27.0932 2.75753 26.844 2.77874 26.7008 2.94844L26.0167 3.7651C25.8735 3.9348 25.8947 4.18404 26.0644 4.32722C26.144 4.38556 26.2341 4.41738 26.3243 4.41738ZM23.7947 3.01207C23.8372 3.02798 23.8849 3.03859 23.9326 3.03859C24.097 3.03859 24.2455 2.93783 24.3091 2.77874L24.6697 1.78177C24.6892 1.73229 24.6986 1.67941 24.6973 1.62625C24.696 1.57309 24.6841 1.52073 24.6622 1.47226C24.6403 1.4238 24.6089 1.38022 24.5699 1.34409C24.5309 1.30797 24.485 1.28004 24.435 1.26195C24.385 1.24386 24.3318 1.23599 24.2787 1.23879C24.2256 1.24159 24.1736 1.25501 24.1258 1.27826C24.078 1.30151 24.0353 1.33411 24.0003 1.37414C23.9653 1.41417 23.9387 1.46082 23.922 1.51131L23.5614 2.50828C23.4819 2.7098 23.5879 2.93783 23.7947 3.01207Z" fill="#FFBD00"/>
<path d="M14.4507 9.99086C14.4189 11.8893 15.1507 13.6606 16.5189 14.9757C17.5583 15.978 18.1575 17.3727 18.1628 18.7939C17.553 18.9689 17.1022 19.5257 17.1022 20.1886C17.1022 20.9946 17.7545 21.6469 18.5606 21.6469H18.8575C18.7568 21.8484 18.6931 22.0712 18.6931 22.3098C18.6931 23.1159 19.3454 23.7681 20.1515 23.7681H22.2727C23.0787 23.7681 23.731 23.1159 23.731 22.3098C23.731 22.0712 23.6674 21.8484 23.5666 21.6469H23.8636C24.6696 21.6469 25.3219 20.9946 25.3219 20.1886C25.3219 19.5257 24.8712 18.9689 24.2613 18.7939C24.2666 17.4893 24.7916 16.2007 25.7409 15.1507C25.8893 14.9863 25.8734 14.7371 25.7143 14.5886C25.636 14.5182 25.5331 14.4815 25.4278 14.4864C25.3226 14.4914 25.2236 14.5376 25.1522 14.6151C24.0863 15.7924 23.4924 17.2507 23.4712 18.7302H21.6098V13.6659C23.3916 13.5386 25.0462 12.5681 26.303 10.8818C26.409 10.7386 26.409 10.5477 26.303 10.4045C24.9507 8.59086 23.1424 7.59389 21.2121 7.59389C19.2818 7.59389 17.4734 8.59086 16.1212 10.4045C16.0151 10.5477 16.0151 10.7386 16.1212 10.8818C17.378 12.5681 19.0325 13.5386 20.8143 13.6659V18.7302H18.953C18.9318 17.1128 18.253 15.5378 17.0704 14.403C15.8666 13.2416 15.2143 11.6772 15.2462 10.0068C15.2992 6.90449 17.8659 4.27949 20.9628 4.15752C22.6068 4.08858 24.1606 4.67722 25.3431 5.81737C26.5257 6.95222 27.178 8.47949 27.178 10.1181C27.178 11.2954 26.8333 12.4356 26.1863 13.4113C26.0643 13.5916 26.1121 13.8409 26.2977 13.9628C26.4833 14.0848 26.7272 14.0371 26.8492 13.8515C27.5863 12.7431 27.9734 11.4545 27.9734 10.1181C27.9734 8.26207 27.2363 6.52798 25.8946 5.23934C24.553 3.9507 22.7977 3.28783 20.931 3.36207C17.4204 3.49995 14.5143 6.47495 14.4507 9.99086ZM16.9431 10.6431C18.1151 9.18479 19.6212 8.38934 21.2121 8.38934C22.803 8.38934 24.309 9.18479 25.481 10.6431C24.309 12.0962 22.803 12.8969 21.2121 12.8969C19.6212 12.8969 18.1151 12.0962 16.9431 10.6431ZM22.9356 22.3098C22.9356 22.6757 22.6386 22.9727 22.2727 22.9727H20.1515C19.9757 22.9727 19.807 22.9028 19.6827 22.7785C19.5584 22.6542 19.4886 22.4856 19.4886 22.3098C19.4886 22.134 19.5584 21.9654 19.6827 21.8411C19.807 21.7168 19.9757 21.6469 20.1515 21.6469H22.2727C22.6386 21.6469 22.9356 21.9439 22.9356 22.3098ZM24.5265 20.1886C24.5265 20.5545 24.2295 20.8515 23.8636 20.8515H18.5606C18.3847 20.8515 18.2161 20.7816 18.0918 20.6573C17.9675 20.533 17.8977 20.3644 17.8977 20.1886C17.8977 20.0128 17.9675 19.8442 18.0918 19.7199C18.2161 19.5955 18.3847 19.5257 18.5606 19.5257H23.8636C24.2295 19.5257 24.5265 19.8227 24.5265 20.1886Z" fill="#FFBD00"/>
<path d="M22.8032 10.6432C22.8032 10.4947 22.7766 10.3568 22.7395 10.2242C22.6212 10.3109 22.4811 10.3631 22.3349 10.3749C22.1886 10.3868 22.042 10.3579 21.9112 10.2914C21.7804 10.2249 21.6706 10.1235 21.5941 9.99832C21.5175 9.87318 21.4771 9.72926 21.4774 9.58255C21.4774 9.40755 21.5357 9.24846 21.6312 9.11588C21.4951 9.07583 21.3541 9.05443 21.2122 9.05225C20.3319 9.05225 19.6213 9.76285 19.6213 10.6432C19.6213 11.5235 20.3319 12.2341 21.2122 12.2341C22.0926 12.2341 22.8032 11.5235 22.8032 10.6432Z" fill="#FFBD00"/>
</g>
<defs>
<clipPath id="clip0_2010_7650">
<rect width="35" height="35" fill="white"/>
</clipPath>
</defs>
</svg>
