<svg width="35" height="35" viewBox="0 0 35 35" fill="none" xmlns="http://www.w3.org/2000/svg">
<g clip-path="url(#clip0_2010_7643)">
<path d="M25.6774 12.6805H28.8766L26.3203 18.4959M19.6832 16.7796H16.0314C16.0314 16.7796 17.9648 13.2749 18.2839 12.8834C18.6066 12.4876 18.9121 12.7345 18.9412 13.0836C18.9703 13.4328 18.9267 18.4959 18.9267 18.4959M15.0858 18.5394C15.0858 18.5394 12.2564 18.575 12.1223 18.5303C11.9883 18.4856 12.3372 18.2496 14.1922 15.5991C14.5387 15.1041 14.7294 14.6865 14.8105 14.3367L14.8392 14.1117C14.8392 13.2899 14.173 12.6237 13.3512 12.6237C12.628 12.6237 12.0254 13.1395 11.8911 13.8233M23.6867 12.6805L21.3512 18.5528" stroke="#FFBD00" stroke-miterlimit="10" stroke-linecap="round" stroke-linejoin="round"/>
<path d="M1.66504 19.0668C0.872071 17.283 0.377969 15.4043 0.545176 13.6372C0.586807 13.1976 0.790313 12.7891 1.10251 12.477L3.67836 9.90111C4.41541 9.16406 5.63494 9.25279 6.25749 10.0888L9.167 13.9565C9.31727 14.1563 9.38938 14.4041 9.3698 14.6533C9.35021 14.9025 9.24027 15.1359 9.06064 15.3098L7.17597 17.1337C7.06368 17.2423 6.99201 17.3862 6.9729 17.5413C6.95378 17.6963 6.98837 17.8533 7.0709 17.986V17.986C9.5793 22.0189 12.9814 25.4209 17.0142 27.9293C17.1469 28.0118 17.3038 28.0464 17.4589 28.0273C17.614 28.0082 17.7578 27.9365 17.8665 27.8243L19.6903 25.9396C19.8642 25.76 20.0976 25.65 20.3469 25.6304C20.5961 25.6109 20.8438 25.683 21.0436 25.8332L24.9113 28.7427C25.7474 29.3653 25.8361 30.5848 25.099 31.3219L22.5232 33.8977C22.1996 34.2208 21.7725 34.4196 21.317 34.4593C15.1093 35.006 7.55181 27.4485 7.55181 27.4485C7.55181 27.4485 4.80287 24.6995 2.74067 21.1557" stroke="#FFBD00" stroke-miterlimit="10" stroke-linecap="round" stroke-linejoin="round"/>
<path d="M10.8888 6.06356C15.9071 1.56511 23.6262 1.72746 28.4495 6.55069C33.4408 11.542 33.4408 19.6345 28.4495 24.6258C27.0581 26.0171 25.4259 27.0206 23.687 27.6362M7.34863 11.3565C7.81175 10.033 8.49096 8.79543 9.35867 7.694" stroke="#FFBD00" stroke-miterlimit="10" stroke-linecap="round" stroke-linejoin="round"/>
<path d="M30.7569 5.65992C35.9493 11.5816 35.7208 20.5989 30.0716 26.2481C28.7337 27.586 27.2069 28.6198 25.5771 29.3497M5.66016 9.40041C6.38941 7.77899 7.41993 6.25998 8.75171 4.9282C14.3363 -0.65642 23.2125 -0.943598 29.1356 4.0668" stroke="#FFBD00" stroke-miterlimit="10" stroke-linecap="round" stroke-linejoin="round"/>
</g>
<defs>
<clipPath id="clip0_2010_7643">
<rect width="35" height="35" fill="white"/>
</clipPath>
</defs>
</svg>
