<svg width="35" height="35" viewBox="0 0 35 35" fill="none" xmlns="http://www.w3.org/2000/svg">
<path d="M2.76412 33.9062C2.62949 33.9063 2.49959 33.8566 2.39929 33.7668C2.29899 33.677 2.23534 33.5533 2.22053 33.4195C2.13617 32.655 2.21384 31.8813 2.44848 31.1488C2.68311 30.4163 3.06943 29.7415 3.58229 29.1683C4.09514 28.595 4.72301 28.1363 5.42499 27.8219C6.12697 27.5076 6.88731 27.3446 7.65646 27.3438C8.43412 27.3438 9.19318 27.5067 9.89318 27.8228C10.0402 26.9263 10.5007 26.1111 11.1928 25.5225C11.885 24.934 12.7636 24.6104 13.6721 24.6094C13.8171 24.6094 13.9562 24.667 14.0588 24.7696C14.1613 24.8721 14.219 25.0112 14.219 25.1562C14.219 25.3013 14.1613 25.4404 14.0588 25.5429C13.9562 25.6455 13.8171 25.7031 13.6721 25.7031C12.9472 25.704 12.2522 25.9924 11.7396 26.505C11.2269 27.0176 10.9386 27.7126 10.9377 28.4375C10.9377 28.4802 10.9443 28.5206 10.9508 28.56L10.9662 28.6902C10.9765 28.7937 10.957 28.898 10.9101 28.9909C10.8631 29.0837 10.7906 29.1612 10.701 29.2142C10.6115 29.2671 10.5087 29.2934 10.4047 29.2899C10.3007 29.2864 10.1999 29.2533 10.1141 29.1944C9.38987 28.7002 8.53323 28.4364 7.65646 28.4375C7.041 28.4381 6.43256 28.5683 5.87082 28.8199C5.30909 29.0714 4.80668 29.4385 4.39635 29.8972C3.98602 30.3559 3.67699 30.896 3.48942 31.4822C3.30184 32.0684 3.23993 32.6875 3.30771 33.2992C3.316 33.3756 3.30812 33.4529 3.28459 33.5261C3.26107 33.5992 3.22242 33.6666 3.17115 33.7238C3.11989 33.7811 3.05716 33.8269 2.98704 33.8583C2.91691 33.8898 2.84096 33.9061 2.76412 33.9062ZM32.233 33.9062C32.1555 33.9064 32.0789 33.89 32.0081 33.8582C31.9374 33.8265 31.8743 33.78 31.8229 33.722C31.7715 33.664 31.733 33.5957 31.71 33.5217C31.687 33.4477 31.68 33.3696 31.6894 33.2927C31.7569 32.7538 31.709 32.2067 31.549 31.6877C31.3889 31.1687 31.1204 30.6896 30.7613 30.2823C30.4021 29.8749 29.9604 29.5485 29.4656 29.3248C28.9707 29.101 28.4339 28.985 27.8908 28.9844C27.2401 28.9844 26.6035 29.1594 26.0008 29.505C25.8835 29.5721 25.7455 29.5933 25.6134 29.5647C25.4813 29.536 25.3645 29.4594 25.2855 29.3497C25.0851 29.067 24.8198 28.8367 24.5118 28.6779C24.2039 28.5192 23.8623 28.4367 23.5158 28.4375C23.3708 28.4375 23.2317 28.3799 23.1291 28.2773C23.0266 28.1748 22.969 28.0357 22.969 27.8906C22.967 27.2697 22.7898 26.6619 22.4578 26.1371C22.1258 25.6124 21.6524 25.192 21.0921 24.9244C21.0272 24.8936 20.9691 24.8503 20.921 24.797C20.8728 24.7437 20.8357 24.6815 20.8116 24.6138C20.7875 24.5462 20.777 24.4745 20.7807 24.4028C20.7843 24.3311 20.8021 24.2608 20.8329 24.1959C20.8637 24.1311 20.907 24.0729 20.9602 24.0248C21.0135 23.9767 21.0758 23.9395 21.1434 23.9155C21.211 23.8914 21.2828 23.8809 21.3545 23.8845C21.4262 23.8882 21.4965 23.9059 21.5613 23.9367C22.2308 24.2568 22.8085 24.7408 23.2409 25.3439C23.6732 25.947 23.9461 26.6496 24.0343 27.3864C24.7316 27.5019 25.3737 27.8377 25.8663 28.3445C26.5002 28.0468 27.1916 27.8919 27.8919 27.8906C28.5898 27.8915 29.2796 28.0406 29.9155 28.3281C30.5515 28.6155 31.1191 29.0348 31.5808 29.5582C32.0425 30.0815 32.3878 30.697 32.5937 31.3638C32.7997 32.0306 32.8617 32.7335 32.7755 33.4261C32.7592 33.5585 32.6951 33.6805 32.5952 33.7689C32.4953 33.8573 32.3665 33.9062 32.233 33.9062ZM19.1408 26.25C18.9958 26.25 18.8567 26.1924 18.7541 26.0898C18.6516 25.9873 18.594 25.8482 18.594 25.7031V22.4219C18.594 22.2768 18.6516 22.1377 18.7541 22.0352C18.8567 21.9326 18.9958 21.875 19.1408 21.875C19.2859 21.875 19.425 21.9326 19.5275 22.0352C19.6301 22.1377 19.6877 22.2768 19.6877 22.4219V25.7031C19.6877 25.8482 19.6301 25.9873 19.5275 26.0898C19.425 26.1924 19.2859 26.25 19.1408 26.25ZM15.8596 29.5312C15.7145 29.5312 15.5754 29.4736 15.4729 29.3711C15.3703 29.2685 15.3127 29.1294 15.3127 28.9844V22.4219C15.3127 22.2768 15.3703 22.1377 15.4729 22.0352C15.5754 21.9326 15.7145 21.875 15.8596 21.875C16.0046 21.875 16.1437 21.9326 16.2463 22.0352C16.3488 22.1377 16.4065 22.2768 16.4065 22.4219V28.9844C16.4065 29.1294 16.3488 29.2685 16.2463 29.3711C16.1437 29.4736 16.0046 29.5312 15.8596 29.5312ZM22.969 33.9052C22.8239 33.9052 22.6848 33.8475 22.5823 33.745C22.4797 33.6424 22.4221 33.5033 22.4221 33.3583C22.4221 31.8511 21.1949 30.6239 19.6877 30.6239C18.6301 30.6239 17.6577 31.2495 17.2104 32.2186C17.1731 32.2986 17.117 32.3685 17.0468 32.4222C16.9767 32.4759 16.8947 32.5118 16.8077 32.527C16.7207 32.5421 16.6313 32.536 16.5471 32.5092C16.463 32.4823 16.3866 32.4355 16.3244 32.3728C16.1216 32.165 15.8792 31.9999 15.6115 31.8874C15.3438 31.7748 15.0562 31.7171 14.7658 31.7177C13.7312 31.7177 12.8299 32.4516 12.6232 33.4633C12.6088 33.5337 12.5807 33.6005 12.5405 33.66C12.5003 33.7196 12.4488 33.7706 12.3889 33.8102C12.3289 33.8498 12.2618 33.8772 12.1913 33.8909C12.1208 33.9046 12.0483 33.9042 11.9779 33.8898C11.9075 33.8755 11.8406 33.8474 11.7811 33.8072C11.7216 33.767 11.6706 33.7155 11.6309 33.6555C11.5913 33.5956 11.5639 33.5285 11.5502 33.458C11.5366 33.3874 11.5369 33.3149 11.5513 33.2445C11.7053 32.5053 12.1088 31.8415 12.694 31.3644C13.2793 30.8873 14.0108 30.6258 14.7658 30.6239C15.4144 30.6239 16.0335 30.8109 16.5629 31.1598C16.9154 30.6581 17.3832 30.2482 17.9269 29.9646C18.4707 29.6811 19.0745 29.5321 19.6877 29.5302C21.7987 29.5302 23.5158 31.2473 23.5158 33.3583C23.5158 33.5033 23.4582 33.6424 23.3557 33.745C23.2531 33.8475 23.114 33.9052 22.969 33.9052Z" fill="#FFBD00"/>
<path d="M19.1406 28.4375C19.4427 28.4375 19.6875 28.1927 19.6875 27.8906C19.6875 27.5886 19.4427 27.3438 19.1406 27.3438C18.8386 27.3438 18.5938 27.5886 18.5938 27.8906C18.5938 28.1927 18.8386 28.4375 19.1406 28.4375Z" fill="#FFBD00"/>
<path d="M14.7656 16.9531L14.2188 14.9843V19.3495L12.0313 20.4432V17.1248C12.0313 16.1021 12.4294 15.1418 13.1524 14.4177L13.9136 13.6565C13.8228 13.2102 13.7496 12.7662 13.7058 12.3177L12.3791 13.6445C11.9206 14.1004 11.5571 14.6428 11.3096 15.2402C11.0622 15.8376 10.9357 16.4782 10.9375 17.1248V21.3281C10.9375 21.4213 10.9614 21.513 11.0068 21.5945C11.0522 21.6759 11.1177 21.7444 11.1971 21.7934C11.2764 21.8424 11.367 21.8703 11.4602 21.8744C11.5533 21.8785 11.646 21.8587 11.7294 21.817L15.0106 20.1763C15.1277 20.1118 15.2164 20.0056 15.2589 19.8788C14.9461 19.7749 14.7656 19.6874 14.7656 19.6874V16.9531ZM22.621 13.6445L21.2942 12.3177C21.2494 12.7651 21.1772 13.2102 21.0864 13.6565L21.8477 14.4177C22.2043 14.7724 22.487 15.1943 22.6794 15.659C22.8718 16.1236 22.9702 16.6218 22.9688 17.1248V20.4432L20.7813 19.3495V14.9843L20.2344 16.9531V19.6874C20.2344 19.6874 20.0539 19.7749 19.7422 19.8788C19.7844 20.0058 19.8731 20.1121 19.9905 20.1763L23.2717 21.817C23.355 21.8591 23.4477 21.8792 23.541 21.8752C23.6342 21.8713 23.7249 21.8434 23.8043 21.7943C23.8837 21.7453 23.9491 21.6766 23.9943 21.5949C24.0395 21.5133 24.063 21.4214 24.0625 21.3281V17.1248C24.0643 16.4782 23.9378 15.8376 23.6904 15.2402C23.4429 14.6428 23.0795 14.1004 22.621 13.6445Z" fill="#FFBD00"/>
<path d="M17.5 20.7812C15.75 20.7812 14.571 20.2015 14.5207 20.1763C14.43 20.1309 14.3537 20.0611 14.3004 19.9747C14.247 19.8884 14.2188 19.7889 14.2188 19.6874V17.0274L13.5746 14.7076C12.9227 12.3523 12.9069 9.86628 13.5286 7.50285C14.1504 5.13942 15.3875 2.98303 17.114 1.25338C17.2165 1.15086 17.3556 1.09326 17.5006 1.09326C17.6456 1.09326 17.7847 1.15086 17.8872 1.25338C19.6136 2.9831 20.8507 5.13949 21.4724 7.5029C22.0941 9.86631 22.0783 12.3523 21.4266 14.7076L20.7813 17.0274V19.6874C20.7813 19.7889 20.7531 19.8884 20.6997 19.9747C20.6464 20.0611 20.5701 20.1309 20.4794 20.1763C20.4291 20.2015 19.25 20.7812 17.5 20.7812ZM15.3125 19.3199C15.7172 19.4654 16.5004 19.6874 17.5 19.6874C18.5085 19.6874 19.2861 19.4665 19.6875 19.3221V16.9531C19.6875 16.9038 19.6941 16.8546 19.7072 16.8065L20.3711 14.4145C20.9463 12.3374 20.9846 10.1482 20.4824 8.05231C19.9802 5.95637 18.954 4.02228 17.5 2.43135C16.046 4.02244 15.0197 5.95673 14.5176 8.05285C14.0154 10.149 14.0537 12.3383 14.629 14.4156L15.2929 16.8076C15.306 16.855 15.3126 16.9039 15.3125 16.9531V19.3199Z" fill="#FFBD00"/>
<path d="M16.9531 12.0312C17.2552 12.0312 17.5 11.7864 17.5 11.4844C17.5 11.1823 17.2552 10.9375 16.9531 10.9375C16.6511 10.9375 16.4062 11.1823 16.4062 11.4844C16.4062 11.7864 16.6511 12.0312 16.9531 12.0312Z" fill="#FFBD00"/>
<path d="M16.9531 9.84375C17.2552 9.84375 17.5 9.59891 17.5 9.29688C17.5 8.99484 17.2552 8.75 16.9531 8.75C16.6511 8.75 16.4062 8.99484 16.4062 9.29688C16.4062 9.59891 16.6511 9.84375 16.9531 9.84375Z" fill="#FFBD00"/>
<path d="M17.5 17.5C17.2955 17.5 17.1008 17.4923 16.9127 17.4781C16.7707 17.4641 16.6399 17.3951 16.5481 17.286C16.4563 17.1769 16.4108 17.0362 16.4212 16.894C16.4316 16.7518 16.4972 16.6192 16.6039 16.5246C16.7106 16.4301 16.8501 16.3809 16.9925 16.3877C17.1555 16.3997 17.3239 16.4062 17.5 16.4062C18.9941 16.4062 19.9806 15.9217 19.9894 15.9173C20.1192 15.8525 20.2694 15.8419 20.4071 15.8878C20.4752 15.9106 20.5382 15.9465 20.5925 15.9936C20.6467 16.0407 20.6912 16.0981 20.7233 16.1623C20.7554 16.2266 20.7745 16.2966 20.7796 16.3683C20.7846 16.4399 20.7755 16.5119 20.7528 16.58C20.73 16.6482 20.6941 16.7112 20.647 16.7654C20.5999 16.8197 20.5426 16.8641 20.4783 16.8962C20.4291 16.9203 19.25 17.5 17.5 17.5ZM26.7969 25.1562C26.6518 25.1562 26.5127 25.0986 26.4102 24.9961C26.3076 24.8935 26.25 24.7544 26.25 24.6094V18.0469C26.25 17.9018 26.3076 17.7627 26.4102 17.6602C26.5127 17.5576 26.6518 17.5 26.7969 17.5C26.9419 17.5 27.081 17.5576 27.1836 17.6602C27.2861 17.7627 27.3438 17.9018 27.3438 18.0469V24.6094C27.3438 24.7544 27.2861 24.8935 27.1836 24.9961C27.081 25.0986 26.9419 25.1562 26.7969 25.1562ZM28.9844 20.7812C28.8393 20.7812 28.7002 20.7236 28.5977 20.6211C28.4951 20.5185 28.4375 20.3794 28.4375 20.2344V12.5781C28.4375 12.4331 28.4951 12.294 28.5977 12.1914C28.7002 12.0889 28.8393 12.0312 28.9844 12.0312C29.1294 12.0312 29.2685 12.0889 29.3711 12.1914C29.4736 12.294 29.5312 12.4331 29.5312 12.5781V20.2344C29.5312 20.3794 29.4736 20.5185 29.3711 20.6211C29.2685 20.7236 29.1294 20.7812 28.9844 20.7812ZM8.20312 25.1562C8.05808 25.1562 7.91899 25.0986 7.81643 24.9961C7.71387 24.8935 7.65625 24.7544 7.65625 24.6094V18.0469C7.65625 17.9018 7.71387 17.7627 7.81643 17.6602C7.91899 17.5576 8.05808 17.5 8.20312 17.5C8.34817 17.5 8.48726 17.5576 8.58982 17.6602C8.69238 17.7627 8.75 17.9018 8.75 18.0469V24.6094C8.75 24.7544 8.69238 24.8935 8.58982 24.9961C8.48726 25.0986 8.34817 25.1562 8.20312 25.1562ZM6.01562 19.6875C5.87058 19.6875 5.73149 19.6299 5.62893 19.5273C5.52637 19.4248 5.46875 19.2857 5.46875 19.1406V12.5781C5.46875 12.4331 5.52637 12.294 5.62893 12.1914C5.73149 12.0889 5.87058 12.0312 6.01562 12.0312C6.16067 12.0312 6.29976 12.0889 6.40232 12.1914C6.50488 12.294 6.5625 12.4331 6.5625 12.5781V19.1406C6.5625 19.2857 6.50488 19.4248 6.40232 19.5273C6.29976 19.6299 6.16067 19.6875 6.01562 19.6875Z" fill="#FFBD00"/>
<path d="M6.01562 21.875C6.31766 21.875 6.5625 21.6302 6.5625 21.3281C6.5625 21.0261 6.31766 20.7812 6.01562 20.7812C5.71359 20.7812 5.46875 21.0261 5.46875 21.3281C5.46875 21.6302 5.71359 21.875 6.01562 21.875Z" fill="#FFBD00"/>
</svg>
